  0
SECTION
  2
HEADER
  9
$ACADVER
  1
AC1015
  9
$ACADMAINTVER
 70
     6
  9
$DWGCODEPAGE
  3
ANSI_1252
  9
$INSBASE
 10
0.0
 20
0.0
 30
0.0
  9
$EXTMIN
 10
-463.342919583
 20
0.0
 30
0.0
  9
$EXTMAX
 10
-0.6550153526
 20
119.5542590693
 30
0.0
  9
$LIMMIN
 10
0.0
 20
0.0
  9
$LIMMAX
 10
420.0
 20
297.0
  9
$ORTHOMODE
 70
     0
  9
$REGENMODE
 70
     1
  9
$FILLMODE
 70
     1
  9
$QTEXTMODE
 70
     0
  9
$MIRRTEXT
 70
     1
  9
$LTSCALE
 40
1.0
  9
$ATTMODE
 70
     1
  9
$TEXTSIZE
 40
3.175
  9
$TRACEWID
 40
1.0
  9
$TEXTSTYLE
  7
Standard
  9
$CLAYER
  8
0
  9
$CELTYPE
  6
ByLayer
  9
$CECOLOR
 62
   256
  9
$CELTSCALE
 40
1.0
  9
$DISPSILH
 70
     0
  9
$DIMSCALE
 40
1.0
  9
$DIMASZ
 40
3.302
  9
$DIMEXO
 40
1.27
  9
$DIMDLI
 40
3.75
  9
$DIMRND
 40
0.0
  9
$DIMDLE
 40
0.0
  9
$DIMEXE
 40
3.175
  9
$DIMTP
 40
0.0
  9
$DIMTM
 40
0.0
  9
$DIMTXT
 40
3.175
  9
$DIMCEN
 40
2.5
  9
$DIMTSZ
 40
0.0
  9
$DIMTOL
 70
     0
  9
$DIMLIM
 70
     0
  9
$DIMTIH
 70
     1
  9
$DIMTOH
 70
     1
  9
$DIMSE1
 70
     0
  9
$DIMSE2
 70
     0
  9
$DIMTAD
 70
     0
  9
$DIMZIN
 70
     0
  9
$DIMBLK
  1

  9
$DIMASO
 70
     1
  9
$DIMSHO
 70
     1
  9
$DIMPOST
  1

  9
$DIMAPOST
  1

  9
$DIMALT
 70
     0
  9
$DIMALTD
 70
     3
  9
$DIMALTF
 40
0.0393700787
  9
$DIMLFAC
 40
1.0
  9
$DIMTOFL
 70
     1
  9
$DIMTVP
 40
0.0
  9
$DIMTIX
 70
     0
  9
$DIMSOXD
 70
     0
  9
$DIMSAH
 70
     0
  9
$DIMBLK1
  1

  9
$DIMBLK2
  1

  9
$DIMSTYLE
  2
ISO-25
  9
$DIMCLRD
 70
     0
  9
$DIMCLRE
 70
     0
  9
$DIMCLRT
 70
     0
  9
$DIMTFAC
 40
1.0
  9
$DIMGAP
 40
1.524
  9
$DIMJUST
 70
     0
  9
$DIMSD1
 70
     0
  9
$DIMSD2
 70
     0
  9
$DIMTOLJ
 70
     0
  9
$DIMTZIN
 70
     0
  9
$DIMALTZ
 70
     0
  9
$DIMALTTZ
 70
     0
  9
$DIMUPT
 70
     0
  9
$DIMDEC
 70
     2
  9
$DIMTDEC
 70
     2
  9
$DIMALTU
 70
     2
  9
$DIMALTTD
 70
     3
  9
$DIMTXSTY
  7
Standard
  9
$DIMAUNIT
 70
     0
  9
$DIMADEC
 70
     2
  9
$DIMALTRND
 40
0.0
  9
$DIMAZIN
 70
     0
  9
$DIMDSEP
 70
    44
  9
$DIMATFIT
 70
     3
  9
$DIMFRAC
 70
     0
  9
$DIMLDRBLK
  1

  9
$DIMLUNIT
 70
     2
  9
$DIMLWD
 70
    -2
  9
$DIMLWE
 70
    -2
  9
$DIMTMOVE
 70
     0
  9
$LUNITS
 70
     2
  9
$LUPREC
 70
     2
  9
$SKETCHINC
 40
1.0
  9
$FILLETRAD
 40
10.0
  9
$AUNITS
 70
     0
  9
$AUPREC
 70
     2
  9
$MENU
  1
.
  9
$ELEVATION
 40
0.0
  9
$PELEVATION
 40
0.0
  9
$THICKNESS
 40
0.0
  9
$LIMCHECK
 70
     0
  9
$CHAMFERA
 40
0.0
  9
$CHAMFERB
 40
0.0
  9
$CHAMFERC
 40
0.0
  9
$CHAMFERD
 40
0.0
  9
$SKPOLY
 70
     0
  9
$TDCREATE
 40
2458214.643774433
  9
$TDUCREATE
 40
2458214.5604411
  9
$TDUPDATE
 40
2458214.643861933
  9
$TDUUPDATE
 40
2458214.5605286
  9
$TDINDWG
 40
0.0000000116
  9
$TDUSRTIMER
 40
0.0000000116
  9
$USRTIMER
 70
     1
  9
$ANGBASE
 50
0.0
  9
$ANGDIR
 70
     0
  9
$PDMODE
 70
     0
  9
$PDSIZE
 40
-1.0
  9
$PLINEWID
 40
0.0
  9
$SPLFRAME
 70
     0
  9
$SPLINETYPE
 70
     6
  9
$SPLINESEGS
 70
     8
  9
$HANDSEED
  5
B9
  9
$SURFTAB1
 70
     6
  9
$SURFTAB2
 70
     6
  9
$SURFTYPE
 70
     6
  9
$SURFU
 70
     6
  9
$SURFV
 70
     6
  9
$UCSBASE
  2

  9
$UCSNAME
  2

  9
$UCSORG
 10
0.0
 20
0.0
 30
0.0
  9
$UCSXDIR
 10
1.0
 20
0.0
 30
0.0
  9
$UCSYDIR
 10
0.0
 20
1.0
 30
0.0
  9
$UCSORTHOREF
  2

  9
$UCSORTHOVIEW
 70
     0
  9
$UCSORGTOP
 10
0.0
 20
0.0
 30
0.0
  9
$UCSORGBOTTOM
 10
0.0
 20
0.0
 30
0.0
  9
$UCSORGLEFT
 10
0.0
 20
0.0
 30
0.0
  9
$UCSORGRIGHT
 10
0.0
 20
0.0
 30
0.0
  9
$UCSORGFRONT
 10
0.0
 20
0.0
 30
0.0
  9
$UCSORGBACK
 10
0.0
 20
0.0
 30
0.0
  9
$PUCSBASE
  2

  9
$PUCSNAME
  2

  9
$PUCSORG
 10
0.0
 20
0.0
 30
0.0
  9
$PUCSXDIR
 10
1.0
 20
0.0
 30
0.0
  9
$PUCSYDIR
 10
0.0
 20
1.0
 30
0.0
  9
$PUCSORTHOREF
  2

  9
$PUCSORTHOVIEW
 70
     0
  9
$PUCSORGTOP
 10
0.0
 20
0.0
 30
0.0
  9
$PUCSORGBOTTOM
 10
0.0
 20
0.0
 30
0.0
  9
$PUCSORGLEFT
 10
0.0
 20
0.0
 30
0.0
  9
$PUCSORGRIGHT
 10
0.0
 20
0.0
 30
0.0
  9
$PUCSORGFRONT
 10
0.0
 20
0.0
 30
0.0
  9
$PUCSORGBACK
 10
0.0
 20
0.0
 30
0.0
  9
$USERI1
 70
     0
  9
$USERI2
 70
     0
  9
$USERI3
 70
     0
  9
$USERI4
 70
     0
  9
$USERI5
 70
     0
  9
$USERR1
 40
0.0
  9
$USERR2
 40
0.0
  9
$USERR3
 40
0.0
  9
$USERR4
 40
0.0
  9
$USERR5
 40
0.0
  9
$WORLDVIEW
 70
     1
  9
$SHADEDGE
 70
     3
  9
$SHADEDIF
 70
    70
  9
$TILEMODE
 70
     1
  9
$MAXACTVP
 70
    64
  9
$PINSBASE
 10
0.0
 20
0.0
 30
0.0
  9
$PLIMCHECK
 70
     0
  9
$PEXTMIN
 10
1.0000000000E+20
 20
1.0000000000E+20
 30
1.0000000000E+20
  9
$PEXTMAX
 10
-1.0000000000E+20
 20
-1.0000000000E+20
 30
-1.0000000000E+20
  9
$PLIMMIN
 10
0.0
 20
0.0
  9
$PLIMMAX
 10
420.0
 20
297.0
  9
$UNITMODE
 70
     0
  9
$VISRETAIN
 70
     1
  9
$PLINEGEN
 70
     0
  9
$PSLTSCALE
 70
     1
  9
$TREEDEPTH
 70
  3020
  9
$CMLSTYLE
  2
Standard
  9
$CMLJUST
 70
     0
  9
$CMLSCALE
 40
20.0
  9
$PROXYGRAPHICS
 70
     1
  9
$MEASUREMENT
 70
     1
  9
$CELWEIGHT
370
    -1
  9
$ENDCAPS
280
     0
  9
$JOINSTYLE
280
     0
  9
$LWDISPLAY
290
     1
  9
$INSUNITS
 70
     4
  9
$HYPERLINKBASE
  1

  9
$STYLESHEET
  1

  9
$XEDIT
290
     1
  9
$CEPSNTYPE
380
     0
  9
$PSTYLEMODE
290
     1
  9
$FINGERPRINTGUID
  2
{2649006A-F23E-4469-A459-FAC4A114BD5B}
  9
$VERSIONGUID
  2
{FAEB1C32-E019-11D5-929B-00C0DF256EC4}
  9
$EXTNAMES
290
     1
  9
$PSVPSCALE
 40
0.0
  9
$OLESTARTUP
290
     0
  0
ENDSEC
  0
SECTION
  2
CLASSES
  0
CLASS
  1
ACDBDICTIONARYWDFLT
  2
AcDbDictionaryWithDefault
  3
ObjectDBX Classes
 90
        0
280
     0
281
     0
  0
CLASS
  1
VISUALSTYLE
  2
AcDbVisualStyle
  3
ObjectDBX Classes
 90
     4095
280
     0
281
     0
  0
CLASS
  1
MATERIAL
  2
AcDbMaterial
  3
ObjectDBX Classes
 90
     1153
280
     0
281
     0
  0
CLASS
  1
SCALE
  2
AcDbScale
  3
ObjectDBX Classes
 90
     1153
280
     0
281
     0
  0
CLASS
  1
TABLESTYLE
  2
AcDbTableStyle
  3
ObjectDBX Classes
 90
     4095
280
     0
281
     0
  0
CLASS
  1
MLEADERSTYLE
  2
AcDbMLeaderStyle
  3
ACDB_MLEADERSTYLE_CLASS
 90
     4095
280
     0
281
     0
  0
CLASS
  1
SUN
  2
AcDbSun
  3
SCENEOE
 90
     1153
280
     0
281
     0
  0
CLASS
  1
ACDBPLACEHOLDER
  2
AcDbPlaceHolder
  3
ObjectDBX Classes
 90
        0
280
     0
281
     0
  0
CLASS
  1
LAYOUT
  2
AcDbLayout
  3
ObjectDBX Classes
 90
        0
280
     0
281
     0
  0
ENDSEC
  0
SECTION
  2
TABLES
  0
TABLE
  2
VPORT
  5
8
330
0
100
AcDbSymbolTable
 70
     1
  0
VPORT
  5
29
330
8
100
AcDbSymbolTableRecord
100
AcDbViewportTableRecord
  2
*Active
 70
     0
 10
0.0
 20
0.0
 11
1.0
 21
1.0
 12
-231.9989674678
 22
59.7771295347
 13
0.0
 23
0.0
 14
10.0
 24
10.0
 15
10.0
 25
10.0
 16
0.0
 26
0.0
 36
1.0
 17
0.0
 27
0.0
 37
0.0
 40
121.9453442507
 41
3.8701080817
 42
50.0
 43
0.0
 44
0.0
 50
0.0
 51
0.0
 71
     0
 72
   100
 73
     1
 74
     3
 75
     0
 76
     0
 77
     0
 78
     0
281
     0
 65
     1
110
0.0
120
0.0
130
0.0
111
1.0
121
0.0
131
0.0
112
0.0
122
1.0
132
0.0
 79
     0
146
0.0
  0
ENDTAB
  0
TABLE
  2
LTYPE
  5
5
330
0
100
AcDbSymbolTable
 70
     6
  0
LTYPE
  5
14
330
5
100
AcDbSymbolTableRecord
100
AcDbLinetypeTableRecord
  2
ByBlock
 70
     0
  3

 72
    65
 73
     0
 40
0.0
  0
LTYPE
  5
15
330
5
100
AcDbSymbolTableRecord
100
AcDbLinetypeTableRecord
  2
ByLayer
 70
     0
  3

 72
    65
 73
     0
 40
0.0
  0
LTYPE
  5
16
330
5
100
AcDbSymbolTableRecord
100
AcDbLinetypeTableRecord
  2
Continuous
 70
     0
  3
Solid line
 72
    65
 73
     0
 40
0.0
  0
LTYPE
  5
6E
330
5
100
AcDbSymbolTableRecord
100
AcDbLinetypeTableRecord
  2
HIDDEN
 70
     0
  3
Hidden __ __ __ __ __ __ __ __ __ __ __ __ __ __
 72
    65
 73
     2
 40
1.905
 49
1.27
 74
     0
 49
-0.635
 74
     0
  0
LTYPE
  5
6F
330
5
100
AcDbSymbolTableRecord
100
AcDbLinetypeTableRecord
  2
PHANTOM
 70
     0
  3
Phantom ______  __  __  ______  __  __  ______
 72
    65
 73
     6
 40
12.7
 49
6.35
 74
     0
 49
-1.27
 74
     0
 49
1.27
 74
     0
 49
-1.27
 74
     0
 49
1.27
 74
     0
 49
-1.27
 74
     0
  0
LTYPE
  5
70
330
5
100
AcDbSymbolTableRecord
100
AcDbLinetypeTableRecord
  2
CENTER
 70
     0
  3
Center ____ _ ____ _ ____ _ ____ _ ____ _ ____
 72
    65
 73
     4
 40
10.16
 49
6.35
 74
     0
 49
-1.27
 74
     0
 49
1.27
 74
     0
 49
-1.27
 74
     0
  0
LTYPE
  5
71
330
5
100
AcDbSymbolTableRecord
100
AcDbLinetypeTableRecord
  2
CENTERX2
 70
     0
  3
Center (2x) ________  __  ________  __  _____
 72
    65
 73
     4
 40
20.32
 49
12.7
 74
     0
 49
-2.54
 74
     0
 49
2.54
 74
     0
 49
-2.54
 74
     0
  0
LTYPE
  5
72
330
5
100
AcDbSymbolTableRecord
100
AcDbLinetypeTableRecord
  2
DOT2
 70
     0
  3
Dot (.5x) ........................................
 72
    65
 73
     2
 40
0.635
 49
0.0
 74
     0
 49
-0.635
 74
     0
  0
ENDTAB
  0
TABLE
  2
LAYER
  5
2
330
0
100
AcDbSymbolTable
 70
     1
  0
LAYER
  5
10
330
2
100
AcDbSymbolTableRecord
100
AcDbLayerTableRecord
  2
0
 70
     0
 62
     7
  6
Continuous
370
    -3
390
F
  0
ENDTAB
  0
TABLE
  2
STYLE
  5
3
330
0
100
AcDbSymbolTable
 70
     1
  0
STYLE
  5
11
330
3
100
AcDbSymbolTableRecord
100
AcDbTextStyleTableRecord
  2
Standard
 70
     0
 40
0.0
 41
1.0
 50
0.0
 71
     0
 42
3.175
  3
txt
  4

  0
ENDTAB
  0
TABLE
  2
VIEW
  5
6
330
0
100
AcDbSymbolTable
 70
     0
  0
ENDTAB
  0
TABLE
  2
UCS
  5
7
330
0
100
AcDbSymbolTable
 70
     0
  0
ENDTAB
  0
TABLE
  2
APPID
  5
9
330
0
100
AcDbSymbolTable
 70
     1
  0
APPID
  5
12
330
9
100
AcDbSymbolTableRecord
100
AcDbRegAppTableRecord
  2
ACAD
 70
     0
  0
ENDTAB
  0
TABLE
  2
DIMSTYLE
  5
A
330
0
100
AcDbSymbolTable
 70
     1
100
AcDbDimStyleTable
  0
DIMSTYLE
105
27
330
A
100
AcDbSymbolTableRecord
100
AcDbDimStyleTableRecord
  2
ISO-25
 70
     0
 41
2.5
 42
0.625
 43
3.75
 44
1.25
 73
     0
 74
     0
 77
     1
 78
     8
140
2.5
141
2.5
143
0.0393700787
147
0.625
171
     3
172
     1
178
     0
271
     2
272
     2
274
     3
278
    44
283
     0
284
     8
340
11
  0
ENDTAB
  0
TABLE
  2
BLOCK_RECORD
  5
1
330
0
100
AcDbSymbolTable
 70
     1
  0
BLOCK_RECORD
  5
1F
330
1
100
AcDbSymbolTableRecord
100
AcDbBlockTableRecord
  2
*Model_Space
340
22
  0
BLOCK_RECORD
  5
1B
330
1
100
AcDbSymbolTableRecord
100
AcDbBlockTableRecord
  2
*Paper_Space
340
1E
  0
BLOCK_RECORD
  5
23
330
1
100
AcDbSymbolTableRecord
100
AcDbBlockTableRecord
  2
*Paper_Space0
340
26
  0
ENDTAB
  0
ENDSEC
  0
SECTION
  2
BLOCKS
  0
BLOCK
  5
20
330
1F
100
AcDbEntity
  8
0
100
AcDbBlockBegin
  2
*Model_Space
 70
     0
 10
0.0
 20
0.0
 30
0.0
  3
*Model_Space
  1

  0
ENDBLK
  5
21
330
1F
100
AcDbEntity
  8
0
100
AcDbBlockEnd
  0
BLOCK
  5
1C
330
1B
100
AcDbEntity
 67
     1
  8
0
100
AcDbBlockBegin
  2
*Paper_Space
 70
     0
 10
0.0
 20
0.0
 30
0.0
  3
*Paper_Space
  1

  0
ENDBLK
  5
1D
330
1B
100
AcDbEntity
 67
     1
  8
0
100
AcDbBlockEnd
  0
BLOCK
  5
24
330
23
100
AcDbEntity
  8
0
100
AcDbBlockBegin
  2
*Paper_Space0
 70
     0
 10
0.0
 20
0.0
 30
0.0
  3
*Paper_Space0
  1

  0
ENDBLK
  5
25
330
23
100
AcDbEntity
  8
0
100
AcDbBlockEnd
  0
ENDSEC
  0
SECTION
  2
ENTITIES
  0
LINE
  5
73
330
1F
100
AcDbEntity
  8
0
  6
CENTERX2
 62
     7
100
AcDbLine
 10
-456.8405257629
 20
59.7771295347
 30
0.0
 11
-342.0565851881
 21
59.7771295347
 31
0.0
  0
LINE
  5
74
330
1F
100
AcDbEntity
  8
0
  6
CENTERX2
 62
     7
100
AcDbLine
 10
-305.1833340836
 20
59.7771295347
 30
0.0
 11
-279.3143366294
 21
59.7771295347
 31
0.0
  0
LINE
  5
75
330
1F
100
AcDbEntity
  8
0
  6
CENTERX2
 62
     7
100
AcDbLine
 10
-167.9413882292
 20
59.7771295347
 30
0.0
 11
-7.1594739373
 21
59.7771295347
 31
0.0
  0
POINT
  5
76
330
1F
100
AcDbEntity
  8
0
  6
Continuous
 62
     7
100
AcDbPoint
 10
-456.8405257629
 20
59.7771295347
 30
0.0
  0
POINT
  5
77
330
1F
100
AcDbEntity
  8
0
  6
Continuous
 62
     7
100
AcDbPoint
 10
-342.0565851881
 20
59.7771295347
 30
0.0
  0
POINT
  5
78
330
1F
100
AcDbEntity
  8
0
  6
Continuous
 62
     7
100
AcDbPoint
 10
-305.1833340836
 20
59.7771295347
 30
0.0
  0
POINT
  5
79
330
1F
100
AcDbEntity
  8
0
  6
Continuous
 62
     7
100
AcDbPoint
 10
-279.3143366294
 20
59.7771295347
 30
0.0
  0
POINT
  5
7A
330
1F
100
AcDbEntity
  8
0
  6
Continuous
 62
     7
100
AcDbPoint
 10
-167.9413882292
 20
59.7771295347
 30
0.0
  0
POINT
  5
7B
330
1F
100
AcDbEntity
  8
0
  6
Continuous
 62
     7
100
AcDbPoint
 10
-7.1594739373
 20
59.7771295347
 30
0.0
  0
SPLINE
  5
7E
330
1F
100
AcDbEntity
  8
0
  6
Continuous
 62
     7
370
    15
100
AcDbSpline
210
0.0
220
0.0
230
1.0
 70
     8
 71
     3
 72
     9
 73
     5
 74
     0
 42
0.000000001
 43
0.00000001
 40
0.0
 40
0.0
 40
0.0
 40
0.0
 40
0.5154042451376619
 40
1.0
 40
1.0
 40
1.0
 40
1.0
 10
-178.4853904037165
 20
82.24653902750542
 30
0.0
 10
-177.8511098900906
 20
84.34359744214903
 30
0.0
 10
-176.6204632285434
 20
88.41236178475451
 30
0.0
 10
-175.398517685216
 20
92.48374763263286
 30
0.0
 10
-174.8063680622466
 20
94.4567239309213
 30
0.0
  0
SPLINE
  5
7F
330
1F
100
AcDbEntity
  8
0
  6
Continuous
 62
     7
370
    15
100
AcDbSpline
210
0.0
220
0.0
230
1.0
 70
     8
 71
     3
 72
    18
 73
    14
 74
     0
 42
0.000000001
 43
0.00000001
 40
0.0
 40
0.0
 40
0.0
 40
0.0
 40
0.0730576309893411
 40
0.1250899180700511
 40
0.191195619583121
 40
0.2501543881255491
 40
0.3732781301646299
 40
0.4999765377805306
 40
0.6232483614587441
 40
0.7498809069187653
 40
0.8749065729468352
 40
0.9269656633330533
 40
1.0
 40
1.0
 40
1.0
 40
1.0
 10
-185.0469457137614
 20
76.95043189206915
 30
0.0
 10
-184.8263763820789
 20
76.97076686867567
 30
0.0
 10
-184.4487156332249
 20
77.00558459439736
 30
0.0
 10
-183.8727860682477
 20
77.07224919311193
 30
0.0
 10
-183.3432287704509
 20
77.16402266610778
 30
0.0
 10
-182.6133243634158
 20
77.35020837489796
 30
0.0
 10
-181.7467630636218
 20
77.72438138937525
 30
0.0
 10
-180.8159499640433
 20
78.37944749975307
 30
0.0
 10
-180.0124066018375
 20
79.19898540688868
 30
0.0
 10
-179.3704765656353
 20
80.14434289921765
 30
0.0
 10
-178.9783248324726
 20
80.98015844701018
 30
0.0
 10
-178.6976572985064
 20
81.68455933576315
 30
0.0
 10
-178.5636367411618
 20
82.03938071089176
 30
0.0
 10
-178.4853904037165
 20
82.24653902750542
 30
0.0
  0
SPLINE
  5
81
330
1F
100
AcDbEntity
  8
0
  6
Continuous
 62
     7
370
    15
100
AcDbSpline
210
0.0
220
0.0
230
1.0
 70
     8
 71
     3
 72
    23
 73
    19
 74
     0
 42
0.000000001
 43
0.00000001
 40
0.0
 40
0.0
 40
0.0
 40
0.0
 40
0.0730658854258535
 40
0.125018781591366
 40
0.1872447472199277
 40
0.2500264477772706
 40
0.3213956990093103
 40
0.3866697691138236
 40
0.4461009890751096
 40
0.5000237769820368
 40
0.5639129721260819
 40
0.6263497029670226
 40
0.6881149792697852
 40
0.7500152317095953
 40
0.809198834883781
 40
0.8749853037441668
 40
0.9268324113697489
 40
0.9999999999999999
 40
0.9999999999999999
 40
0.9999999999999999
 40
0.9999999999999999
 10
-263.7856094343027
 20
84.24705998317644
 30
0.0
 10
-263.6846768679473
 20
83.96869133878482
 30
0.0
 10
-263.5119770314217
 20
83.49239096204612
 30
0.0
 10
-263.2378944562077
 20
82.78464284840446
 30
0.0
 10
-262.9422229278778
 20
82.13071752494507
 30
0.0
 10
-262.5701767567614
 20
81.42677778142418
 30
0.0
 10
-262.1561432861121
 20
80.73227272490475
 30
0.0
 10
-261.7129278808137
 20
80.07222557211607
 30
0.0
 10
-261.2694547540465
 20
79.49917842695857
 30
0.0
 10
-260.783120770586
 20
78.9693078394198
 30
0.0
 10
-260.2351246382406
 20
78.48401546550835
 30
0.0
 10
-259.6123060179016
 20
78.04184524737076
 30
0.0
 10
-258.9496605884215
 20
77.67838625293933
 30
0.0
 10
-258.2625823789356
 20
77.39612028420456
 30
0.0
 10
-257.5309069893013
 20
77.19494151979572
 30
0.0
 10
-256.8232409391522
 20
77.0756392150263
 30
0.0
 10
-256.0532653023802
 20
77.00247261628327
 30
0.0
 10
-255.5476923603599
 20
76.96964498320628
 30
0.0
 10
-255.2517947247042
 20
76.95043189206883
 30
0.0
  0
SPLINE
  5
84
330
1F
100
AcDbEntity
  8
0
  6
Continuous
 62
     7
370
    15
100
AcDbSpline
210
0.0
220
0.0
230
1.0
 70
     8
 71
     3
 72
    10
 73
     6
 74
     0
 42
0.000000001
 43
0.00000001
 40
0.0
 40
0.0
 40
0.0
 40
0.0
 40
0.4044651737900001
 40
0.7377983949849798
 40
1.0
 40
1.0
 40
1.0
 40
1.0
 10
-279.3143366294047
 20
59.77712953463693
 30
0.0
 10
-278.4385085219948
 20
64.38900188773803
 30
0.0
 10
-276.8408813001632
 20
72.80167185412739
 30
0.0
 10
-274.6838754907783
 20
84.2056643877204
 30
0.0
 10
-273.4108872991987
 20
90.99931804414845
 30
0.0
 10
-272.85041705916
 20
93.99042253415436
 30
0.0
  0
SPLINE
  5
89
330
1F
100
AcDbEntity
  8
0
  6
Continuous
 62
     7
370
    15
100
AcDbSpline
210
0.0
220
0.0
230
1.0
 70
     8
 71
     3
 72
    18
 73
    14
 74
     0
 42
0.000000001
 43
0.00000001
 40
0.0
 40
0.0
 40
0.0
 40
0.0
 40
0.0727796303804317
 40
0.1250913331285433
 40
0.2501403708133267
 40
0.3786837134785562
 40
0.5000933799741171
 40
0.6287429965325041
 40
0.749856839992562
 40
0.8087536726987413
 40
0.8749124855604238
 40
0.9266698544775372
 40
1.0
 40
1.0
 40
1.0
 40
1.0
 10
-178.4853904037163
 20
40.19327166031697
 30
0.0
 10
-178.5731610530096
 20
40.39558449367661
 30
0.0
 10
-178.7240184766082
 20
40.743313410431
 30
0.0
 10
-179.0357494752882
 20
41.43413144693091
 30
0.0
 10
-179.4566678918684
 20
42.26154952851921
 30
0.0
 10
-180.0984239569904
 20
43.20443284441291
 30
0.0
 10
-180.8874505967201
 20
44.0437084739121
 30
0.0
 10
-181.7942765062847
 20
44.72125660259288
 30
0.0
 10
-182.6548038252275
 20
45.1102312004714
 30
0.0
 10
-183.3791704861994
 20
45.29260277562568
 30
0.0
 10
-183.9085439872294
 20
45.37879154795672
 30
0.0
 10
-184.4853045920484
 20
45.43610586467811
 30
0.0
 10
-184.8632881816232
 20
45.46415662230163
 30
0.0
 10
-185.0848737791372
 20
45.48060083855906
 30
0.0
  0
SPLINE
  5
8D
330
1F
100
AcDbEntity
  8
0
  6
Continuous
 62
     7
370
    15
100
AcDbSpline
210
0.0
220
0.0
230
1.0
 70
     8
 71
     3
 72
     9
 73
     5
 74
     0
 42
0.000000001
 43
0.00000001
 40
0.0
 40
0.0
 40
0.0
 40
0.0
 40
0.5691575423277457
 40
1.0
 40
1.0
 40
1.0
 40
1.0
 10
-304.9754884326165
 20
62.47651931423835
 30
0.0
 10
-305.0066431771453
 20
61.96374244956402
 30
0.0
 10
-305.0613815267441
 20
61.06280232922904
 30
0.0
 10
-305.1466128226177
 20
60.16425801783166
 30
0.0
 10
-305.1833340836025
 20
59.77712697838181
 30
0.0
  0
SPLINE
  5
90
330
1F
100
AcDbEntity
  8
0
  6
Continuous
 62
     7
370
    15
100
AcDbSpline
210
0.0
220
0.0
230
1.0
 70
     8
 71
     3
 72
    23
 73
    19
 74
     0
 42
0.000000001
 43
0.00000001
 40
0.0
 40
0.0
 40
0.0
 40
0.0
 40
0.0365064045336099
 40
0.0625554488259548
 40
0.0955826054996614
 40
0.1251064130065452
 40
0.1861248855058256
 40
0.2501525611835845
 40
0.3749677668544742
 40
0.4999841758664315
 40
0.6249114672410155
 40
0.7498325500119453
 40
0.812980242413451
 40
0.8748910825531226
 40
0.904359795924091
 40
0.9374441056685319
 40
0.9635124967903568
 40
1.0
 40
1.0
 40
1.0
 40
1.0
 10
-323.7498807937278
 20
81.90058835014712
 30
0.0
 10
-323.3853563391318
 20
81.87970241930152
 30
0.0
 10
-322.7607264650969
 20
81.84391339009184
 30
0.0
 10
-321.8071250394855
 20
81.77574880114048
 30
0.0
 10
-320.9256074667982
 20
81.68254357254804
 30
0.0
 10
-319.7033674907083
 20
81.49613181071273
 30
0.0
 10
-318.1998246788423
 20
81.11790297145757
 30
0.0
 10
-315.8588128231029
 20
80.23320594579361
 30
0.0
 10
-313.0961166615065
 20
78.69529217569763
 30
0.0
 10
-310.2405092909457
 20
76.23049068929997
 30
0.0
 10
-307.9042838396842
 20
73.26819024543397
 30
0.0
 10
-306.4856651550641
 20
70.45266394041727
 30
0.0
 10
-305.6924804794157
 20
68.07824610453055
 30
0.0
 10
-305.3585182403873
 20
66.565673408931
 30
0.0
 10
-305.1886918910998
 20
65.33217317543028
 30
0.0
 10
-305.1013163969008
 20
64.44992960515873
 30
0.0
 10
-305.0337778608385
 20
63.4957267904129
 30
0.0
 10
-304.9969622082759
 20
62.87115255060193
 30
0.0
 10
-304.9754884326165
 20
62.50685187480935
 30
0.0
  0
SPLINE
  5
91
330
1F
100
AcDbEntity
  8
0
  6
Continuous
 62
     7
370
    15
100
AcDbSpline
210
0.0
220
0.0
230
1.0
 70
     8
 71
     3
 72
    25
 73
    21
 74
     0
 42
0.000000001
 43
0.00000001
 40
0.0
 40
0.0
 40
0.0
 40
0.0
 40
0.0364898952930494
 40
0.0625367070278407
 40
0.0955591992907081
 40
0.1250698351995452
 40
0.1853847647744328
 40
0.2500905367544646
 40
0.314425370396312
 40
0.3751247884827812
 40
0.4367858347579322
 40
0.5001462728617118
 40
0.6252195901434865
 40
0.7499247934384609
 40
0.8144747388367982
 40
0.8749325671276578
 40
0.9044140696587124
 40
0.9374635109448739
 40
0.9635090019854111
 40
1.0
 40
1.0
 40
1.0
 40
1.0
 10
-342.2587766972069
 20
62.5068518748092
 30
0.0
 10
-342.2388521733304
 20
62.86818934260431
 30
0.0
 10
-342.2047053471386
 20
63.48745270798833
 30
0.0
 10
-342.1405871381253
 20
64.43303331193403
 30
0.0
 10
-342.0543495600339
 20
65.3074963757407
 30
0.0
 10
-341.885460958403
 20
66.5145005294253
 30
0.0
 10
-341.5399322481346
 20
68.01121294977627
 30
0.0
 10
-340.9315226403713
 20
69.79044506394942
 30
0.0
 10
-340.1796463873666
 20
71.51773824349233
 30
0.0
 10
-339.2903556772762
 20
73.14508323699572
 30
0.0
 10
-338.2373342585587
 20
74.66088769398202
 30
0.0
 10
-336.615290771945
 20
76.54156950295638
 30
0.0
 10
-334.2627669708658
 20
78.6001167788871
 30
0.0
 10
-331.5419527339527
 20
80.16352548916377
 30
0.0
 10
-329.2376663076806
 20
81.08061113325772
 30
0.0
 10
-327.7536849367448
 20
81.48022432986471
 30
0.0
 10
-326.5491563903737
 20
81.67603382363025
 30
0.0
 10
-325.6757493866446
 20
81.77314350581557
 30
0.0
 10
-324.7303023693576
 20
81.84316180908925
 30
0.0
 10
-324.1111598974233
 20
81.87942703567035
 30
0.0
 10
-323.7498807937278
 20
81.90058835014712
 30
0.0
  0
SPLINE
  5
94
330
1F
100
AcDbEntity
  8
0
  6
Continuous
 62
     7
370
    15
100
AcDbSpline
210
0.0
220
0.0
230
1.0
 70
     8
 71
     3
 72
    12
 73
     8
 74
     0
 42
0.000000001
 43
0.00000001
 40
0.0
 40
0.0
 40
0.0
 40
0.0
 40
0.1581769509944944
 40
0.3372426005281128
 40
0.5372232518090768
 40
0.7581377374307652
 40
1.0
 40
1.0
 40
1.0
 40
1.0
 10
-342.0565851880717
 20
59.77713205036968
 30
0.0
 10
-342.0711227725143
 20
59.91913176969916
 30
0.0
 10
-342.1021177610509
 20
60.22188355698459
 30
0.0
 10
-342.1426845483322
 20
60.7049981680301
 30
0.0
 10
-342.1829796381201
 20
61.24490544829086
 30
0.0
 10
-342.2223557253644
 20
61.84169259241073
 30
0.0
 10
-342.2462754610844
 20
62.25861961675344
 30
0.0
 10
-342.2587766972071
 20
62.47651931423819
 30
0.0
  0
SPLINE
  5
96
330
1F
100
AcDbEntity
  8
0
  6
Continuous
 62
     7
370
    15
100
AcDbSpline
210
0.0
220
0.0
230
1.0
 70
     8
 71
     3
 72
    26
 73
    22
 74
     0
 42
0.000000001
 43
0.00000001
 40
0.0
 40
0.0
 40
0.0
 40
0.0
 40
0.0364458638207827
 40
0.0625181542344626
 40
0.0955270887568238
 40
0.1250332428496493
 40
0.1870104578659571
 40
0.2500101871614909
 40
0.3117225788638764
 40
0.3750002353971875
 40
0.437834574855047
 40
0.500000966061649
 40
0.5808534581697776
 40
0.6638148251340389
 40
0.7499683895590615
 40
0.8131294156828706
 40
0.8749740197933268
 40
0.9064752704623245
 40
0.9374880998776622
 40
0.9671722946672078
 40
1.0
 40
1.0
 40
1.0
 40
1.0
 10
-323.7498807937277
 20
42.80047635687033
 30
0.0
 10
-324.0798770830098
 20
42.8208443908837
 30
0.0
 10
-324.6459429337628
 20
42.85578311254937
 30
0.0
 10
-325.510231863258
 20
42.9193689209113
 30
0.0
 10
-326.3098836515051
 20
43.00107870313855
 30
0.0
 10
-327.4285342841141
 20
43.15826885474061
 30
0.0
 10
-328.7985782216333
 20
43.46837036636992
 30
0.0
 10
-330.4016431079783
 20
44.02460692303954
 30
0.0
 10
-331.9486688319909
 20
44.74914367565501
 30
0.0
 10
-333.4144310375349
 20
45.62290657899418
 30
0.0
 10
-334.79967989584
 20
46.62577053530439
 30
0.0
 10
-336.2114063277091
 20
47.85193767914922
 30
0.0
 10
-337.6094746147334
 20
49.3584244103552
 30
0.0
 10
-338.9463036489722
 20
51.19610626320855
 30
0.0
 10
-339.9936979311211
 20
53.02918590498953
 30
0.0
 10
-340.7936003756354
 20
54.7716890023144
 30
0.0
 10
-341.2767464213639
 20
56.10879558888377
 30
0.0
 10
-341.5891936621929
 20
57.19314850232922
 30
0.0
 10
-341.7825648958275
 20
58.00722144690928
 30
0.0
 10
-341.9366681333357
 20
58.84197621808926
 30
0.0
 10
-342.0094417428087
 20
59.40445476916506
 30
0.0
 10
-342.0476583160228
 20
59.69983660997607
 30
0.0
  0
SPLINE
  5
97
330
1F
100
AcDbEntity
  8
0
  6
Continuous
 62
     7
370
    15
100
AcDbSpline
210
0.0
220
0.0
230
1.0
 70
     8
 71
     3
 72
    29
 73
    25
 74
     0
 42
0.000000001
 43
0.00000001
 40
0.0
 40
0.0
 40
0.0
 40
0.0
 40
0.0169429703272924
 40
0.0330056426575896
 40
0.0481937906433592
 40
0.0625142457357436
 40
0.0938347886296485
 40
0.125026505823717
 40
0.1867441777353026
 40
0.2500130649854393
 40
0.3121068406205679
 40
0.3750269772685019
 40
0.4386304346751365
 40
0.5000143737495484
 40
0.5621823905782727
 40
0.6250095753943096
 40
0.6881366012541958
 40
0.7499928151837709
 40
0.8124127049717811
 40
0.8749690465096708
 40
0.904429840627248
 40
0.937483304291978
 40
0.9635859140923965
 40
1.0
 40
1.0
 40
1.0
 40
1.0
 10
-305.1954448702598
 20
59.67121166063135
 30
0.0
 10
-305.2145010095389
 20
59.5173627470532
 30
0.0
 10
-305.2516231971677
 20
59.21765837605284
 30
0.0
 10
-305.3155044767259
 20
58.78132323669796
 30
0.0
 10
-305.3835829256931
 20
58.36993081544549
 30
0.0
 10
-305.48728142275
 20
57.82307378329056
 30
0.0
 10
-305.6435730977002
 20
57.13736026525179
 30
0.0
 10
-305.9480070467438
 20
56.0418837386941
 30
0.0
 10
-306.4320763730615
 20
54.69473205186214
 30
0.0
 10
-307.1646651906037
 20
53.1451444900573
 30
0.0
 10
-308.0269105455674
 20
51.65195916327721
 30
0.0
 10
-308.9936347542181
 20
50.22067346822011
 30
0.0
 10
-310.0646481953832
 20
48.87288555227428
 30
0.0
 10
-311.2548224348874
 20
47.63793704903264
 30
0.0
 10
-312.5535000346061
 20
46.52884376539987
 30
0.0
 10
-313.9606228804456
 20
45.53355698384016
 30
0.0
 10
-315.4514253830878
 20
44.67345545316775
 30
0.0
 10
-317.0189978822752
 20
43.97104415752457
 30
0.0
 10
-318.6468934187423
 20
43.43901296298358
 30
0.0
 10
-320.0323222929446
 20
43.14637490401223
 30
0.0
 10
-321.1669858222715
 20
42.99611117267875
 30
0.0
 10
-321.9741248928086
 20
42.917452119598
 30
0.0
 10
-322.8463577388778
 20
42.85514005807806
 30
0.0
 10
-323.4173152807346
 20
42.82059677520017
 30
0.0
 10
-323.7498807937276
 20
42.80047635687031
 30
0.0
  0
SPLINE
  5
98
330
1F
100
AcDbEntity
  8
0
  6
Continuous
 62
     7
370
    15
100
AcDbSpline
210
0.0
220
0.0
230
1.0
 70
     8
 71
     3
 72
    30
 73
    26
 74
     0
 42
0.000000001
 43
0.00000001
 40
0.0
 40
0.0
 40
0.0
 40
0.0
 40
0.0218081732098681
 40
0.0431737861810209
 40
0.0641766271835211
 40
0.0849006749633706
 40
0.1054333293521382
 40
0.125864446545712
 40
0.1462852231462345
 40
0.1667869937483326
 40
0.2085494082520805
 40
0.2501702010847638
 40
0.3126731810363094
 40
0.3751299307847886
 40
0.4376112942969594
 40
0.5000873961810592
 40
0.5624935795389716
 40
0.625043164859133
 40
0.6874463257396686
 40
0.7500015875738508
 40
0.8124143814351217
 40
0.8749703712477597
 40
0.9156478446736748
 40
0.957096586915239
 40
1.0
 40
1.0
 40
1.0
 40
1.0
 10
-64.01395338040695
 20
15.7937111844631
 30
0.0
 10
-64.0154311773323
 20
15.85343362804434
 30
0.0
 10
-64.018356781777
 20
15.97166654854488
 30
0.0
 10
-64.00948913148719
 20
16.1473561080636
 30
0.0
 10
-63.99072711163164
 20
16.31921215196352
 30
0.0
 10
-63.96117591400988
 20
16.48726459487543
 30
0.0
 10
-63.92106543943632
 20
16.65149585686782
 30
0.0
 10
-63.87033222593386
 20
16.81189418633183
 30
0.0
 10
-63.80899948781691
 20
16.96846582344617
 30
0.0
 10
-63.71241283557674
 20
17.17341183945489
 30
0.0
 10
-63.56591803486896
 20
17.41841856186069
 30
0.0
 10
-63.31572960313825
 20
17.73122056243324
 30
0.0
 10
-62.97307927751996
 20
18.03767605306043
 30
0.0
 10
-62.52379557868807
 20
18.29327885718578
 30
0.0
 10
-62.03245624573714
 20
18.45411562016112
 30
0.0
 10
-61.51824766778899
 20
18.50633099450159
 30
0.0
 10
-61.00384903877648
 20
18.45411420362091
 30
0.0
 10
-60.51268532952239
 20
18.29326500998387
 30
0.0
 10
-60.06317186203555
 20
18.03756163039272
 30
0.0
 10
-59.67807347957532
 20
17.69287102717622
 30
0.0
 10
-59.36822951619327
 20
17.27916159189299
 30
0.0
 10
-59.17454365036229
 20
16.86511635132835
 30
0.0
 10
-59.06834893471846
 20
16.48252961751061
 30
0.0
 10
-59.01884575885224
 20
16.14229925063449
 30
0.0
 10
-59.02126203729088
 20
15.9110299902445
 30
0.0
 10
-59.02249101112778
 20
15.79340121627977
 30
0.0
  0
SPLINE
  5
99
330
1F
100
AcDbEntity
  8
0
  6
Continuous
 62
     7
370
    15
100
AcDbSpline
210
0.0
220
0.0
230
1.0
 70
     8
 71
     3
 72
    30
 73
    26
 74
     0
 42
0.000000001
 43
0.00000001
 40
0.0
 40
0.0
 40
0.0
 40
0.0
 40
0.0217387050224058
 40
0.0430509350908552
 40
0.0640185119680021
 40
0.0847273430522693
 40
0.1052665826882321
 40
0.1257276022116946
 40
0.1462028201647332
 40
0.1667844638230669
 40
0.2084253777435329
 40
0.2501675258842312
 40
0.3126646095743373
 40
0.3751295294079685
 40
0.4376102575793875
 40
0.5000870322534687
 40
0.5625009983032868
 40
0.6250435795608819
 40
0.6873952150707451
 40
0.7500045036339169
 40
0.8123518469332321
 40
0.874971915784938
 40
0.9156308194280695
 40
0.9570724471943649
 40
1.0
 40
1.0
 40
1.0
 40
1.0
 10
-59.02249076565319
 20
15.79339527769905
 30
0.0
 10
-59.02102598637363
 20
15.73408564323202
 30
0.0
 10
-59.01812516419388
 20
15.61662992445431
 30
0.0
 10
-59.02714412620147
 20
15.44203602971663
 30
0.0
 10
-59.04613677738044
 20
15.2711404434344
 30
0.0
 10
-59.07600700434629
 20
15.10391298896245
 30
0.0
 10
-59.11652281133514
 20
14.94037242178169
 30
0.0
 10
-59.16774382438938
 20
14.78052854681984
 30
0.0
 10
-59.22966137386646
 20
14.62438326924145
 30
0.0
 10
-59.32672171055833
 20
14.42056003295013
 30
0.0
 10
-59.47405520796495
 20
14.17703681364667
 30
0.0
 10
-59.72507610446625
 20
13.86685475889346
 30
0.0
 10
-60.06794923188613
 20
13.56282941558389
 30
0.0
 10
-60.5162090514281
 20
13.30943096295464
 30
0.0
 10
-61.00593325313175
 20
13.14994234795525
 30
0.0
 10
-61.5182367912214
 20
13.09823188093041
 30
0.0
 10
-62.0306839587238
 20
13.15002978776181
 30
0.0
 10
-62.52013477881482
 20
13.30935106445705
 30
0.0
 10
-62.96852211635232
 20
13.56295064445357
 30
0.0
 10
-63.35369281605854
 20
13.90430022040372
 30
0.0
 10
-63.66470132413163
 20
14.31488665354804
 30
0.0
 10
-63.85977019856351
 20
14.72634390617815
 30
0.0
 10
-63.96738455990833
 20
15.10711599254812
 30
0.0
 10
-64.01748055373194
 20
15.44599864440553
 30
0.0
 10
-64.01514282899015
 20
15.67645406380918
 30
0.0
 10
-64.01395338040695
 20
15.7937111844631
 30
0.0
  0
SPLINE
  5
9A
330
1F
100
AcDbEntity
  8
0
  6
Continuous
 62
     7
370
    15
100
AcDbSpline
210
0.0
220
0.0
230
1.0
 70
     8
 71
     3
 72
    30
 73
    26
 74
     0
 42
0.000000001
 43
0.00000001
 40
0.0
 40
0.0
 40
0.0
 40
0.0
 40
0.0218081732090337
 40
0.0431737861795857
 40
0.0641766271817262
 40
0.0849006749614585
 40
0.105433329350346
 40
0.1258644465442752
 40
0.1462852231453728
 40
0.1667869937482721
 40
0.2085494082523544
 40
0.2501702010847632
 40
0.3126731810402358
 40
0.3751299307848343
 40
0.4376112942995821
 40
0.5000873961809951
 40
0.5624935795399304
 40
0.625043164859115
 40
0.6874463257399706
 40
0.7500015875738119
 40
0.8124143814349659
 40
0.8749703712477519
 40
0.91564784467401
 40
0.9570965869155784
 40
1.0
 40
1.0
 40
1.0
 40
1.0
 10
-404.0139533804069
 20
15.79371118446362
 30
0.0
 10
-404.0154311773326
 20
15.85343362804256
 30
0.0
 10
-404.0183567817778
 20
15.97166654853917
 30
0.0
 10
-404.0094891314882
 20
16.14735610805294
 30
0.0
 10
-403.9907271116331
 20
16.31921215194989
 30
0.0
 10
-403.9611759140112
 20
16.48726459486079
 30
0.0
 10
-403.9210654394375
 20
16.65149585685408
 30
0.0
 10
-403.8703322259344
 20
16.81189418632093
 30
0.0
 10
-403.8089994878173
 20
16.96846582344014
 30
0.0
 10
-403.7124128355778
 20
17.17341183945432
 30
0.0
 10
-403.5659180348724
 20
17.41841856186476
 30
0.0
 10
-403.3157296031287
 20
17.73122056244073
 30
0.0
 10
-402.973079277512
 20
18.03767605306869
 30
0.0
 10
-402.5237955786712
 20
18.29327885719341
 30
0.0
 10
-402.0324562457284
 20
18.45411562015705
 30
0.0
 10
-401.5182476677788
 20
18.50633099450222
 30
0.0
 10
-401.0038490387733
 20
18.45411420362049
 30
0.0
 10
-400.5126853295187
 20
18.2932650099826
 30
0.0
 10
-400.0631718620359
 20
18.03756163038976
 30
0.0
 10
-399.6780734795746
 20
17.69287102717593
 30
0.0
 10
-399.3682295161919
 20
17.27916159189387
 30
0.0
 10
-399.1745436503621
 20
16.86511635132767
 30
0.0
 10
-399.0683489347184
 20
16.48252961750858
 30
0.0
 10
-399.0188457588519
 20
16.14229925063254
 30
0.0
 10
-399.0212620372906
 20
15.91102999024349
 30
0.0
 10
-399.0224910111275
 20
15.79340121627971
 30
0.0
  0
SPLINE
  5
9B
330
1F
100
AcDbEntity
  8
0
  6
Continuous
 62
     7
370
    15
100
AcDbSpline
210
0.0
220
0.0
230
1.0
 70
     8
 71
     3
 72
    30
 73
    26
 74
     0
 42
0.000000001
 43
0.00000001
 40
0.0
 40
0.0
 40
0.0
 40
0.0
 40
0.0217387050236723
 40
0.0430509350930282
 40
0.0640185119707114
 40
0.0847273430551521
 40
0.1052665826909365
 40
0.1257276022138726
 40
0.1462028201660619
 40
0.1667844638232451
 40
0.2084253777422065
 40
0.2501675258842693
 40
0.312664609572314
 40
0.375129529408198
 40
0.437610257580524
 40
0.5000870322535622
 40
0.5625009983036608
 40
0.6250435795610181
 40
0.6873952150683158
 40
0.7500045036338344
 40
0.8123518469307728
 40
0.8749719157850067
 40
0.9156308194291647
 40
0.9570724471954479
 40
1.0
 40
1.0
 40
1.0
 40
1.0
 10
-399.022490765653
 20
15.79339527769898
 30
0.0
 10
-399.0210259863734
 20
15.73408564322846
 30
0.0
 10
-399.0181251641936
 20
15.61662992444479
 30
0.0
 10
-399.0271441262011
 20
15.44203602969965
 30
0.0
 10
-399.0461367773799
 20
15.27114044341291
 30
0.0
 10
-399.0760070043456
 20
15.10391298893935
 30
0.0
 10
-399.1165228113346
 20
14.94037242176005
 30
0.0
 10
-399.1677438243886
 20
14.78052854680249
 30
0.0
 10
-399.2296613738657
 20
14.62438326923141
 30
0.0
 10
-399.3267217105595
 20
14.4205600329514
 30
0.0
 10
-399.4740552079719
 20
14.17703681365606
 30
0.0
 10
-399.7250761044581
 20
13.86685475889934
 30
0.0
 10
-400.067949231873
 20
13.56282941557498
 30
0.0
 10
-400.516209051426
 20
13.3094309629568
 30
0.0
 10
-401.0059332531357
 20
13.14994234796028
 30
0.0
 10
-401.5182367912249
 20
13.09823188092989
 30
0.0
 10
-402.0306839587255
 20
13.15002978775803
 30
0.0
 10
-402.5201347788104
 20
13.30935106445358
 30
0.0
 10
-402.9685221163404
 20
13.56295064445936
 30
0.0
 10
-403.3536928160495
 20
13.90430022039389
 30
0.0
 10
-403.6647013241388
 20
14.31488665353642
 30
0.0
 10
-403.8597701985626
 20
14.726343906175
 30
0.0
 10
-403.9673845599079
 20
15.10711599255456
 30
0.0
 10
-404.0174805537322
 20
15.44599864441187
 30
0.0
 10
-404.0151428289902
 20
15.67645406381261
 30
0.0
 10
-404.0139533804069
 20
15.79371118446362
 30
0.0
  0
SPLINE
  5
9C
330
1F
100
AcDbEntity
  8
0
  6
Continuous
 62
     7
370
    15
100
AcDbSpline
210
0.0
220
0.0
230
1.0
 70
     8
 71
     3
 72
    30
 73
    26
 74
     0
 42
0.000000001
 43
0.00000001
 40
0.0
 40
0.0
 40
0.0
 40
0.0
 40
0.0218081732096747
 40
0.0431737861806866
 40
0.064176627183099
 40
0.0849006749629172
 40
0.1054333293517114
 40
0.125864446545367
 40
0.1462852231460244
 40
0.1667869937483174
 40
0.2085494082491654
 40
0.2501702010846952
 40
0.3126731810332776
 40
0.3751299307848165
 40
0.4376112942973085
 40
0.5000873961811089
 40
0.562493579540966
 40
0.6250431648592089
 40
0.6874463257400185
 40
0.7500015875738172
 40
0.8124143814315574
 40
0.8749703712476553
 40
0.9156478446713741
 40
0.9570965869129342
 40
1.0
 40
1.0
 40
1.0
 40
1.0
 10
-234.0139533804068
 20
15.79371118446444
 30
0.0
 10
-234.0154311773323
 20
15.85343362804515
 30
0.0
 10
-234.0183567817773
 20
15.97166654854479
 30
0.0
 10
-234.0094891314876
 20
16.14735610806234
 30
0.0
 10
-233.9907271116322
 20
16.31921215196158
 30
0.0
 10
-233.9611759140104
 20
16.48726459487323
 30
0.0
 10
-233.9210654394367
 20
16.65149585686582
 30
0.0
 10
-233.870332225934
 20
16.81189418633047
 30
0.0
 10
-233.8089994878167
 20
16.96846582344585
 30
0.0
 10
-233.7124128355806
 20
17.17341183944875
 30
0.0
 10
-233.565918034869
 20
17.41841856185262
 30
0.0
 10
-233.3157296031492
 20
17.73122056242284
 30
0.0
 10
-232.9730792775294
 20
18.03767605306145
 30
0.0
 10
-232.5237955786931
 20
18.29327885718172
 30
0.0
 10
-232.0324562457359
 20
18.45411562016491
 30
0.0
 10
-231.5182476677816
 20
18.50633099450062
 30
0.0
 10
-231.0038490387699
 20
18.45411420362098
 30
0.0
 10
-230.5126853295151
 20
18.29326500998144
 30
0.0
 10
-230.0631718620379
 20
18.03756163038605
 30
0.0
 10
-229.6780734795792
 20
17.69287102718285
 30
0.0
 10
-229.3682295162012
 20
17.27916159189796
 30
0.0
 10
-229.1745436503691
 20
16.86511635134145
 30
0.0
 10
-229.0683489347144
 20
16.48252961752299
 30
0.0
 10
-229.0188457588507
 20
16.14229925064587
 30
0.0
 10
-229.0212620372903
 20
15.91102999024963
 30
0.0
 10
-229.0224910111278
 20
15.79340121627862
 30
0.0
  0
SPLINE
  5
9D
330
1F
100
AcDbEntity
  8
0
  6
Continuous
 62
     7
370
    15
100
AcDbSpline
210
0.0
220
0.0
230
1.0
 70
     8
 71
     3
 72
    30
 73
    26
 74
     0
 42
0.000000001
 43
0.00000001
 40
0.0
 40
0.0
 40
0.0
 40
0.0
 40
0.0217387050239074
 40
0.0430509350934227
 40
0.0640185119711945
 40
0.0847273430556593
 40
0.1052665826914008
 40
0.1257276022142358
 40
0.1462028201662755
 40
0.1667844638232601
 40
0.2084253777462584
 40
0.2501675258843347
 40
0.3126646095752409
 40
0.3751295294081437
 40
0.4376102575809958
 40
0.5000870322535645
 40
0.5625009983041366
 40
0.6250435795609868
 40
0.6873952150710478
 40
0.7500045036339446
 40
0.812351846934224
 40
0.8749719157850279
 40
0.9156308194293119
 40
0.9570724471955998
 40
1.0
 40
1.0
 40
1.0
 40
1.0
 10
-229.0224907656531
 20
15.79339527769709
 30
0.0
 10
-229.0210259863733
 20
15.73408564322595
 30
0.0
 10
-229.0181251641932
 20
15.61662992444124
 30
0.0
 10
-229.0271441262002
 20
15.44203602969476
 30
0.0
 10
-229.0461367773788
 20
15.27114044340727
 30
0.0
 10
-229.0760070043446
 20
15.10391298893357
 30
0.0
 10
-229.1165228113335
 20
14.9403724217546
 30
0.0
 10
-229.167743824388
 20
14.78052854679811
 30
0.0
 10
-229.2296613738654
 20
14.62438326922841
 30
0.0
 10
-229.3267217105664
 20
14.42056003294085
 30
0.0
 10
-229.474055207975
 20
14.17703681364361
 30
0.0
 10
-229.7250761044724
 20
13.86685475888518
 30
0.0
 10
-230.0679492318857
 20
13.56282941557711
 30
0.0
 10
-230.5162090514349
 20
13.30943096295179
 30
0.0
 10
-231.0059332531378
 20
13.14994234795805
 30
0.0
 10
-231.5182367912286
 20
13.09823188092996
 30
0.0
 10
-232.0306839587276
 20
13.15002978776048
 30
0.0
 10
-232.5201347788185
 20
13.30935106445832
 30
0.0
 10
-232.9685221163521
 20
13.56295064445744
 30
0.0
 10
-233.3536928160613
 20
13.9043002204071
 30
0.0
 10
-233.664701324138
 20
14.31488665354873
 30
0.0
 10
-233.8597701985669
 20
14.7263439061845
 30
0.0
 10
-233.9673845599063
 20
15.1071159925566
 30
0.0
 10
-234.017480553731
 20
15.44599864441352
 30
0.0
 10
-234.0151428289898
 20
15.67645406381386
 30
0.0
 10
-234.0139533804068
 20
15.79371118446444
 30
0.0
  0
SPLINE
  5
9E
330
1F
100
AcDbEntity
  8
0
  6
Continuous
 62
     7
370
    15
100
AcDbSpline
210
0.0
220
0.0
230
1.0
 70
     8
 71
     3
 72
    23
 73
    19
 74
     0
 42
0.000000001
 43
0.00000001
 40
0.0
 40
0.0
 40
0.0
 40
0.0
 40
0.0323756988505839
 40
0.0643124138818203
 40
0.0958685360414241
 40
0.1271045907276363
 40
0.15808297943349
 40
0.1888676705819266
 40
0.2195238451515083
 40
0.2501175055604855
 40
0.375004452993864
 40
0.4999943912835211
 40
0.6248801877231226
 40
0.7498710420367884
 40
0.8123701377493494
 40
0.8745351338273615
 40
0.9369016060376655
 40
1.0
 40
1.0
 40
1.0
 40
1.0
 10
-446.0609796718455
 20
119.5542590693093
 30
0.0
 10
-446.1405946536076
 20
119.5523889118825
 30
0.0
 10
-446.2987451133677
 20
119.5486739545928
 30
0.0
 10
-446.5339405796903
 20
119.5306203136436
 30
0.0
 10
-446.765383716561
 20
119.5034074883825
 30
0.0
 10
-446.9930619326539
 20
119.4661708530755
 30
0.0
 10
-447.2169775900892
 20
119.4191383203391
 30
0.0
 10
-447.4371179685848
 20
119.3622415843996
 30
0.0
 10
-447.6535139414974
 20
119.2955240313809
 30
0.0
 10
-448.0842099197899
 20
119.1401952597667
 30
0.0
 10
-448.7065342286805
 20
118.8322010796255
 30
0.0
 10
-449.4451898446731
 20
118.272532290549
 30
0.0
 10
-450.072048035496
 20
117.5894154875007
 30
0.0
 10
-450.4780378774512
 20
116.931554261138
 30
0.0
 10
-450.7277848506055
 20
116.3698364400088
 30
0.0
 10
-450.8743078417186
 20
115.9332098284138
 30
0.0
 10
-450.9827913558727
 20
115.4836868520886
 30
0.0
 10
-451.0202349752496
 20
115.1771814929513
 30
0.0
 10
-451.0390660019656
 20
115.0230347864478
 30
0.0
  0
SPLINE
  5
A0
330
1F
100
AcDbEntity
  8
0
  6
Continuous
 62
     7
370
    15
100
AcDbSpline
210
0.0
220
0.0
230
1.0
 70
     8
 71
     3
 72
    23
 73
    19
 74
     0
 42
0.000000001
 43
0.00000001
 40
0.0
 40
0.0
 40
0.0
 40
0.0
 40
0.0323778330703552
 40
0.0643161629173864
 40
0.0958733338474763
 40
0.1271098260546799
 40
0.1580879980200728
 40
0.1888717780971066
 40
0.2195263108443484
 40
0.2501175665341522
 40
0.3750054809097695
 40
0.4999944763309249
 40
0.6248812387327265
 40
0.7498711553603205
 40
0.8123724851394046
 40
0.8745380089757555
 40
0.93690359140452
 40
0.9999999999999999
 40
0.9999999999999999
 40
0.9999999999999999
 40
0.9999999999999999
 10
-12.96093400828843
 20
115.0230348951859
 30
0.0
 10
-12.97026993962616
 20
115.1021279648897
 30
0.0
 10
-12.98881507449048
 20
115.2592404790486
 30
0.0
 10
-13.02886311275994
 20
115.4917151788618
 30
0.0
 10
-13.07767364648132
 20
115.7195912324147
 30
0.0
 10
-13.13610592205355
 20
115.9427749825055
 30
0.0
 10
-13.20393336358713
 20
116.1612901696237
 30
0.0
 10
-13.28122275991919
 20
116.3751177240658
 30
0.0
 10
-13.36793381296933
 20
116.5842924578326
 30
0.0
 10
-13.5629590323402
 20
116.9985195740061
 30
0.0
 10
-13.92793975158782
 20
117.5892209436969
 30
0.0
 10
-14.55439526343072
 20
118.2721546758071
 30
0.0
 10
-15.29327070292455
 20
118.8322067693285
 30
0.0
 10
-15.9863028779004
 20
119.1747331511315
 30
0.0
 10
-16.56896853128614
 20
119.3707100719186
 30
0.0
 10
-17.01741769453302
 20
119.4756362242538
 30
0.0
 10
-17.47513035054343
 20
119.5414678673342
 30
0.0
 10
-17.78379000800773
 20
119.5499788096769
 30
0.0
 10
-17.93901882037805
 20
119.5542590693093
 30
0.0
  0
SPLINE
  5
A1
330
1F
100
AcDbEntity
  8
0
  6
Continuous
 62
     7
370
    15
100
AcDbSpline
210
0.0
220
0.0
230
1.0
 70
     8
 71
     3
 72
    19
 73
    15
 74
     0
 42
0.000000001
 43
0.00000001
 40
0.0
 40
0.0
 40
0.0
 40
0.0
 40
0.0978387169360521
 40
0.1898750909693654
 40
0.2761092469836721
 40
0.3565413368893331
 40
0.4311715480271675
 40
0.5000001151134862
 40
0.588874545174776
 40
0.675531453325527
 40
0.7599715981303254
 40
0.8421957995064535
 40
0.9222049454968203
 40
1.0
 40
1.0
 40
1.0
 40
1.0
 10
-0.6908094639366813
 20
5.610852659053291
 30
0.0
 10
-1.128009490910631
 20
9.174878393538096
 30
0.0
 10
-1.976481317741197
 20
16.09156466810128
 30
0.0
 10
-3.196826764614608
 20
26.15119630898598
 30
0.0
 10
-4.329240096641512
 20
35.57797048726812
 30
0.0
 10
-5.372893353606134
 20
44.37198945613938
 30
0.0
 10
-6.328108586960451
 20
52.53321565201023
 30
0.0
 10
-7.302938427012684
 20
61.00408548418606
 30
0.0
 10
-8.30573467443363
 20
69.91601577857168
 30
0.0
 10
-9.345578219493305
 20
79.40030847860889
 30
0.0
 10
-10.33089251761746
 20
88.64501122440682
 30
0.0
 10
-11.26091936678866
 20
97.65019363656161
 30
0.0
 10
-12.1387744232592
 20
106.4155625699499
 30
0.0
 10
-12.68945619615938
 20
112.1808400144652
 30
0.0
 10
-12.96093387801253
 20
115.0230335151406
 30
0.0
  0
SPLINE
  5
A2
330
1F
100
AcDbEntity
  8
0
  6
Continuous
 62
     7
370
    15
100
AcDbSpline
210
0.0
220
0.0
230
1.0
 70
     8
 71
     3
 72
    25
 73
    21
 74
     0
 42
0.000000001
 43
0.00000001
 40
0.0
 40
0.0
 40
0.0
 40
0.0
 40
0.0287701282420855
 40
0.0571643622710956
 40
0.0852370979550906
 40
0.1130446179296001
 40
0.1406448273698403
 40
0.168096943332329
 40
0.1954611443283782
 40
0.2227981894713227
 40
0.2501690187208099
 40
0.3750413693872988
 40
0.5000002709949609
 40
0.6248689498912745
 40
0.7498313756160001
 40
0.7995666660231846
 40
0.849095679729778
 40
0.8987762624585007
 40
0.9489630178471476
 40
1.0
 40
1.0
 40
1.0
 40
1.0
 10
-5.653163633017905
 20
-0.0000000000007633
 30
0.0
 10
-5.572068682272613
 20
0.0019292340041333
 30
0.0
 10
-5.410938321512543
 20
0.0057624957342725
 30
0.0
 10
-5.171268356940817
 20
0.0245450948442305
 30
0.0
 10
-4.93532458770643
 20
0.0528917416030353
 30
0.0
 10
-4.703119506057507
 20
0.0917057414708267
 30
0.0
 10
-4.474654175492504
 20
0.1407508798083323
 30
0.0
 10
-4.249929815881598
 20
0.2000895365205924
 30
0.0
 10
-4.028959766507162
 20
0.2697093792523308
 30
0.0
 10
-3.811709725241752
 20
0.349598312817008
 30
0.0
 10
-3.345379040924801
 20
0.5467533796322601
 30
0.0
 10
-2.663565928056361
 20
0.9424687998130232
 30
0.0
 10
-1.880975282054442
 20
1.663241521443086
 30
0.0
 10
-1.26095629855616
 20
2.528286466826187
 30
0.0
 10
-0.926783831273259
 20
3.311681501369797
 30
0.0
 10
-0.764519817862519
 20
3.923099490075764
 30
0.0
 10
-0.6915763707505684
 20
4.337209390402739
 30
0.0
 10
-0.6546272665930164
 20
4.757139225136569
 30
0.0
 10
-0.6507375863387399
 20
5.183257658017915
 30
0.0
 10
-0.6773775840276386
 20
5.467525092493118
 30
0.0
 10
-0.6908094639366813
 20
5.610852659053291
 30
0.0
  0
SPLINE
  5
A4
330
1F
100
AcDbEntity
  8
0
  6
Continuous
 62
     7
370
    15
100
AcDbSpline
210
0.0
220
0.0
230
1.0
 70
     8
 71
     3
 72
    25
 73
    21
 74
     0
 42
0.000000001
 43
0.00000001
 40
0.0
 40
0.0
 40
0.0
 40
0.0
 40
0.0287736231204473
 40
0.0571706199119028
 40
0.0852453217016307
 40
0.1130539489403548
 40
0.1406543480630959
 40
0.1681056818936915
 40
0.1954680801974779
 40
0.2228022596675687
 40
0.2501691248183932
 40
0.3750417134243695
 40
0.5000003670855829
 40
0.6248693627086036
 40
0.749831632033804
 40
0.7995699597488488
 40
0.8491002181557872
 40
0.8987804869796028
 40
0.9489656349970979
 40
1.0
 40
1.0
 40
1.0
 40
1.0
 10
-463.3091905485259
 20
5.610852557702064
 30
0.0
 10
-463.3171757508343
 20
5.530118727268365
 30
0.0
 10
-463.3330416348134
 20
5.369707815009075
 30
0.0
 10
-463.3436652683091
 20
5.129514668393738
 30
0.0
 10
-463.3443464525681
 20
4.891858679656968
 30
0.0
 10
-463.3341876965738
 20
4.656642047888751
 30
0.0
 10
-463.3134231495636
 20
4.423894634097758
 30
0.0
 10
-463.2819907912013
 20
4.193610032567512
 30
0.0
 10
-463.239901206157
 20
3.965802981267447
 30
0.0
 10
-463.187170602425
 20
3.740440908032043
 30
0.0
 10
-463.04850144803
 20
3.253525473359345
 30
0.0
 10
-462.7390995889701
 20
2.528463984948166
 30
0.0
 10
-462.1193806138272
 20
1.663643685435701
 30
0.0
 10
-461.336602006395
 20
0.9425453530807343
 30
0.0
 10
-460.5999225065398
 20
0.5151141704941367
 30
0.0
 10
-460.0129116883693
 20
0.2793274785346106
 30
0.0
 10
-459.610808529696
 20
0.1563205574251145
 30
0.0
 10
-459.1985403602981
 20
0.0683430402442509
 30
0.0
 10
-458.7760995603713
 20
0.0124358805791563
 30
0.0
 10
-458.4907179502396
 20
0.0041684144717474
 30
0.0
 10
-458.3468299900828
 20
-0.0000000000007494
 30
0.0
  0
SPLINE
  5
A5
330
1F
100
AcDbEntity
  8
0
  6
Continuous
 62
     7
370
    15
100
AcDbSpline
210
0.0
220
0.0
230
1.0
 70
     8
 71
     3
 72
    21
 73
    17
 74
     0
 42
0.000000001
 43
0.00000001
 40
0.0
 40
0.0
 40
0.0
 40
0.0
 40
0.042263952176612
 40
0.0851655714481713
 40
0.128705021596603
 40
0.1728824593098158
 40
0.2176980345839645
 40
0.2631518910977085
 40
0.3092441665607649
 40
0.3559749930388356
 40
0.4033444972568018
 40
0.4513528008818973
 40
0.5000000207884228
 40
0.643580472753426
 40
0.8102466755608225
 40
1.0
 40
1.0
 40
1.0
 40
1.0
 10
-451.0390660019656
 20
115.0230347864478
 30
0.0
 10
-451.1858439601245
 20
113.4788815252461
 30
0.0
 10
-451.4816144226304
 20
110.3672772355136
 30
0.0
 10
-451.9405076191617
 20
105.6660628586803
 30
0.0
 10
-452.4146933704596
 20
100.895791516117
 30
0.0
 10
-452.9050667242485
 20
96.05654774153456
 30
0.0
 10
-453.4113825615756
 20
91.14830834372667
 30
0.0
 10
-453.9337083269705
 20
86.17107967187073
 30
0.0
 10
-454.4720247816954
 20
81.12485986272152
 30
0.0
 10
-455.0263405871615
 20
76.00964978404605
 30
0.0
 10
-455.5966408503613
 20
70.82544772531843
 30
0.0
 10
-456.182977729873
 20
65.57225966300919
 30
0.0
 10
-457.174225578323
 20
56.81134691025863
 30
0.0
 10
-458.6964230311872
 20
43.72793912764819
 30
0.0
 10
-460.8733048796939
 20
25.50718484072298
 30
0.0
 10
-462.462906324293
 20
12.52330839939666
 30
0.0
 10
-463.3091903676399
 20
5.610854028890895
 30
0.0
  0
LINE
  5
A6
330
1F
100
AcDbEntity
  8
0
  6
Continuous
 62
     7
370
    15
100
AcDbLine
 10
-167.9413882292
 20
94.4567239309
 30
0.0
 11
-167.9413882292
 21
29.0589743122
 31
0.0
  0
LINE
  5
A7
330
1F
100
AcDbEntity
  8
0
  6
Continuous
 62
     7
370
    15
100
AcDbLine
 10
-174.8063680622
 20
94.4567239309
 30
0.0
 11
-167.9413882292
 21
94.4567239309
 31
0.0
  0
LINE
  5
A8
330
1F
100
AcDbEntity
  8
0
  6
Continuous
 62
     7
370
    15
100
AcDbLine
 10
-255.2517947247
 20
76.9504318921
 30
0.0
 11
-185.0469457138
 21
76.9504318921
 31
0.0
  0
LINE
  5
A9
330
1F
100
AcDbEntity
  8
0
  6
Continuous
 62
     7
370
    15
100
AcDbLine
 10
-267.2370633835
 20
93.9904225342
 30
0.0
 11
-263.7856094343
 21
84.2470599832
 31
0.0
  0
LINE
  5
AA
330
1F
100
AcDbEntity
  8
0
  6
Continuous
 62
     7
370
    15
100
AcDbLine
 10
-272.8504170592
 20
93.9904225342
 30
0.0
 11
-267.2370633835
 21
93.9904225342
 31
0.0
  0
LINE
  5
AB
330
1F
100
AcDbEntity
  8
0
  6
Continuous
 62
     7
370
    15
100
AcDbLine
 10
-282.0290088801
 20
45.639784148
 30
0.0
 11
-279.3143366294
 21
59.7771295346
 31
0.0
  0
LINE
  5
AC
330
1F
100
AcDbEntity
  8
0
  6
Continuous
 62
     7
370
    15
100
AcDbLine
 10
-281.9988458551
 20
45.639784148
 30
0.0
 11
-282.0290088801
 21
45.639784148
 31
0.0
  0
LINE
  5
AD
330
1F
100
AcDbEntity
  8
0
  6
Continuous
 62
     7
370
    15
100
AcDbLine
 10
-282.0290088801
 20
45.4806008386
 30
0.0
 11
-281.9988458551
 21
45.639784148
 31
0.0
  0
LINE
  5
AE
330
1F
100
AcDbEntity
  8
0
  6
Continuous
 62
     7
370
    15
100
AcDbLine
 10
-185.0848737791
 20
45.4806008386
 30
0.0
 11
-282.0290088801
 21
45.4806008386
 31
0.0
  0
LINE
  5
AF
330
1F
100
AcDbEntity
  8
0
  6
Continuous
 62
     7
370
    15
100
AcDbLine
 10
-174.8063680622
 20
29.0589743122
 30
0.0
 11
-178.4853904037
 21
40.1932716603
 31
0.0
  0
LINE
  5
B0
330
1F
100
AcDbEntity
  8
0
  6
Continuous
 62
     7
370
    15
100
AcDbLine
 10
-167.9413882292
 20
29.0589743122
 30
0.0
 11
-174.8063680622
 21
29.0589743122
 31
0.0
  0
LINE
  5
B1
330
1F
100
AcDbEntity
  8
0
  6
Continuous
 62
     7
370
    15
100
AcDbLine
 10
-305.1833340836
 20
59.7771269784
 30
0.0
 11
-305.1954448703
 21
59.6712116606
 31
0.0
  0
LINE
  5
B2
330
1F
100
AcDbEntity
  8
0
  6
Continuous
 62
     7
370
    15
100
AcDbLine
 10
-304.976375399
 20
62.4917862837
 30
0.0
 11
-304.9754884326
 21
62.4765193142
 31
0.0
  0
LINE
  5
B3
330
1F
100
AcDbEntity
  8
0
  6
Continuous
 62
     7
370
    15
100
AcDbLine
 10
-304.9754884326
 20
62.5068518748
 30
0.0
 11
-304.976375399
 21
62.4917862837
 31
0.0
  0
LINE
  5
B4
330
1F
100
AcDbEntity
  8
0
  6
Continuous
 62
     7
370
    15
100
AcDbLine
 10
-342.2579486153
 20
62.4918065547
 30
0.0
 11
-342.2587766972
 21
62.5068518748
 31
0.0
  0
LINE
  5
B5
330
1F
100
AcDbEntity
  8
0
  6
Continuous
 62
     7
370
    15
100
AcDbLine
 10
-342.2587766972
 20
62.4765193142
 30
0.0
 11
-342.2579486153
 21
62.4918065547
 31
0.0
  0
LINE
  5
B6
330
1F
100
AcDbEntity
  8
0
  6
Continuous
 62
     7
370
    15
100
AcDbLine
 10
-342.047658316
 20
59.69983661
 30
0.0
 11
-342.0565851881
 21
59.7771320504
 31
0.0
  0
LINE
  5
B7
330
1F
100
AcDbEntity
  8
0
  6
Continuous
 62
     7
370
    15
100
AcDbLine
 10
-17.9390188204
 20
119.5542590693
 30
0.0
 11
-446.0609796718
 21
119.5542590693
 31
0.0
  0
LINE
  5
B8
330
1F
100
AcDbEntity
  8
0
  6
Continuous
 62
     7
370
    15
100
AcDbLine
 10
-458.3468299901
 20
0.0
 30
0.0
 11
-5.653163633
 21
0.0
 31
0.0
  0
ENDSEC
  0
SECTION
  2
OBJECTS
  0
DICTIONARY
  5
C
330
0
100
AcDbDictionary
281
     1
  3
ACAD_GROUP
350
D
  3
ACAD_LAYOUT
350
1A
  3
ACAD_MLINESTYLE
350
17
  3
ACAD_PLOTSETTINGS
350
19
  3
ACAD_PLOTSTYLENAME
350
E
  3
ACAD_SCALELIST
350
47
  0
DICTIONARY
  5
D
102
{ACAD_REACTORS
330
C
102
}
330
C
100
AcDbDictionary
281
     1
  0
DICTIONARY
  5
1A
102
{ACAD_REACTORS
330
C
102
}
330
C
100
AcDbDictionary
281
     1
  3
Layout1
350
1E
  3
Layout2
350
26
  3
Model
350
22
  0
DICTIONARY
  5
17
102
{ACAD_REACTORS
330
C
102
}
330
C
100
AcDbDictionary
281
     1
  3
Standard
350
18
  0
DICTIONARY
  5
19
102
{ACAD_REACTORS
330
C
102
}
330
C
100
AcDbDictionary
281
     1
  0
ACDBDICTIONARYWDFLT
  5
E
102
{ACAD_REACTORS
330
C
102
}
330
C
100
AcDbDictionary
281
     1
  3
Normal
350
F
100
AcDbDictionaryWithDefault
340
F
  0
DICTIONARY
  5
47
102
{ACAD_REACTORS
330
C
102
}
330
C
100
AcDbDictionary
281
     1
  3
A0
350
48
  3
A1
350
49
  3
A2
350
4A
  3
A3
350
4B
  3
A4
350
4C
  3
A5
350
4D
  3
A6
350
4E
  3
A7
350
4F
  3
A8
350
50
  3
A9
350
51
  3
B0
350
52
  3
B1
350
53
  3
B2
350
54
  3
B3
350
55
  3
B4
350
56
  3
B5
350
57
  3
B6
350
58
  3
B7
350
59
  3
B8
350
5A
  3
B9
350
5B
  3
C0
350
5C
  3
C1
350
5D
  3
C2
350
5E
  3
C3
350
5F
  3
C4
350
60
  3
C5
350
61
  3
C6
350
62
  3
C7
350
63
  3
C8
350
64
  3
C9
350
65
  3
D0
350
66
  3
D1
350
67
  3
D2
350
68
  0
LAYOUT
  5
1E
102
{ACAD_REACTORS
330
1A
102
}
330
1A
100
AcDbPlotSettings
  1

  2
none_device
  4

  6

 40
0.0
 41
0.0
 42
0.0
 43
0.0
 44
0.0
 45
0.0
 46
0.0
 47
0.0
 48
0.0
 49
0.0
140
0.0
141
0.0
142
1.0
143
1.0
 70
   688
 72
     1
 73
     0
 74
     5
  7

 75
    16
147
1.0
148
0.0
149
0.0
100
AcDbLayout
  1
Layout1
 70
     1
 71
     1
 10
0.0
 20
0.0
 11
420.0
 21
297.0
 12
0.0
 22
0.0
 32
0.0
 14
1.0000000000E+20
 24
1.0000000000E+20
 34
1.0000000000E+20
 15
-1.0000000000E+20
 25
-1.0000000000E+20
 35
-1.0000000000E+20
146
0.0
 13
0.0
 23
0.0
 33
0.0
 16
1.0
 26
0.0
 36
0.0
 17
0.0
 27
1.0
 37
0.0
 76
     0
330
1B
  0
LAYOUT
  5
26
102
{ACAD_REACTORS
330
1A
102
}
330
1A
100
AcDbPlotSettings
  1

  2
none_device
  4

  6

 40
0.0
 41
0.0
 42
0.0
 43
0.0
 44
0.0
 45
0.0
 46
0.0
 47
0.0
 48
0.0
 49
0.0
140
0.0
141
0.0
142
1.0
143
1.0
 70
   688
 72
     1
 73
     0
 74
     5
  7

 75
    16
147
1.0
148
0.0
149
0.0
100
AcDbLayout
  1
Layout2
 70
     1
 71
     2
 10
0.0
 20
0.0
 11
0.0
 21
0.0
 12
0.0
 22
0.0
 32
0.0
 14
0.0
 24
0.0
 34
0.0
 15
0.0
 25
0.0
 35
0.0
146
0.0
 13
0.0
 23
0.0
 33
0.0
 16
1.0
 26
0.0
 36
0.0
 17
0.0
 27
1.0
 37
0.0
 76
     0
330
23
  0
LAYOUT
  5
22
102
{ACAD_REACTORS
330
1A
102
}
330
1A
100
AcDbPlotSettings
  1

  2
none_device
  4
ANSI_A_(11.00_x_8.50_Inches)
  6

 40
6.35
 41
19.05
 42
6.35000508
 43
19.05000254
 44
279.4
 45
215.9
 46
272.0445814521
 47
53.1637874721
 48
0.0
 49
0.0
140
0.0
141
0.0
142
0.0235363836
143
1.0
 70
  1696
 72
     0
 73
     0
 74
     0
  7

 75
     0
147
0.0179189148
148
-1300.4909072572
149
0.0
100
AcDbLayout
  1
Model
 70
     1
 71
     0
 10
0.0
 20
0.0
 11
420.0
 21
297.0
 12
0.0
 22
0.0
 32
0.0
 14
-463.342919583
 24
0.0
 34
0.0
 15
-0.6550153526
 25
119.5542590693
 35
0.0
146
0.0
 13
0.0
 23
0.0
 33
0.0
 16
1.0
 26
0.0
 36
0.0
 17
0.0
 27
1.0
 37
0.0
 76
     0
330
1F
331
29
  0
MLINESTYLE
  5
18
102
{ACAD_REACTORS
330
17
102
}
330
17
100
AcDbMlineStyle
  2
Standard
 70
     0
  3

 62
   256
 51
90.0
 52
90.0
 71
     2
 49
0.5
 62
   256
  6
BYLAYER
 49
-0.5
 62
   256
  6
BYLAYER
  0
ACDBPLACEHOLDER
  5
F
102
{ACAD_REACTORS
330
E
102
}
330
E
  0
SCALE
  5
48
102
{ACAD_REACTORS
330
47
102
}
330
47
100
AcDbScale
 70
     0
300
1:1
140
1.0
141
1.0
290
     1
  0
SCALE
  5
49
102
{ACAD_REACTORS
330
47
102
}
330
47
100
AcDbScale
 70
     0
300
1:2
140
1.0
141
2.0
290
     0
  0
SCALE
  5
4A
102
{ACAD_REACTORS
330
47
102
}
330
47
100
AcDbScale
 70
     0
300
1:4
140
1.0
141
4.0
290
     0
  0
SCALE
  5
4B
102
{ACAD_REACTORS
330
47
102
}
330
47
100
AcDbScale
 70
     0
300
1:5
140
1.0
141
5.0
290
     0
  0
SCALE
  5
4C
102
{ACAD_REACTORS
330
47
102
}
330
47
100
AcDbScale
 70
     0
300
1:8
140
1.0
141
8.0
290
     0
  0
SCALE
  5
4D
102
{ACAD_REACTORS
330
47
102
}
330
47
100
AcDbScale
 70
     0
300
1:10
140
1.0
141
10.0
290
     0
  0
SCALE
  5
4E
102
{ACAD_REACTORS
330
47
102
}
330
47
100
AcDbScale
 70
     0
300
1:16
140
1.0
141
16.0
290
     0
  0
SCALE
  5
4F
102
{ACAD_REACTORS
330
47
102
}
330
47
100
AcDbScale
 70
     0
300
1:20
140
1.0
141
20.0
290
     0
  0
SCALE
  5
50
102
{ACAD_REACTORS
330
47
102
}
330
47
100
AcDbScale
 70
     0
300
1:30
140
1.0
141
30.0
290
     0
  0
SCALE
  5
51
102
{ACAD_REACTORS
330
47
102
}
330
47
100
AcDbScale
 70
     0
300
1:40
140
1.0
141
40.0
290
     0
  0
SCALE
  5
52
102
{ACAD_REACTORS
330
47
102
}
330
47
100
AcDbScale
 70
     0
300
1:50
140
1.0
141
50.0
290
     0
  0
SCALE
  5
53
102
{ACAD_REACTORS
330
47
102
}
330
47
100
AcDbScale
 70
     0
300
1:100
140
1.0
141
100.0
290
     0
  0
SCALE
  5
54
102
{ACAD_REACTORS
330
47
102
}
330
47
100
AcDbScale
 70
     0
300
2:1
140
2.0
141
1.0
290
     0
  0
SCALE
  5
55
102
{ACAD_REACTORS
330
47
102
}
330
47
100
AcDbScale
 70
     0
300
4:1
140
4.0
141
1.0
290
     0
  0
SCALE
  5
56
102
{ACAD_REACTORS
330
47
102
}
330
47
100
AcDbScale
 70
     0
300
8:1
140
8.0
141
1.0
290
     0
  0
SCALE
  5
57
102
{ACAD_REACTORS
330
47
102
}
330
47
100
AcDbScale
 70
     0
300
10:1
140
10.0
141
1.0
290
     0
  0
SCALE
  5
58
102
{ACAD_REACTORS
330
47
102
}
330
47
100
AcDbScale
 70
     0
300
100:1
140
100.0
141
1.0
290
     0
  0
SCALE
  5
59
102
{ACAD_REACTORS
330
47
102
}
330
47
100
AcDbScale
 70
     0
300
1/128" = 1'-0"
140
0.0078125
141
12.0
290
     0
  0
SCALE
  5
5A
102
{ACAD_REACTORS
330
47
102
}
330
47
100
AcDbScale
 70
     0
300
1/64" = 1'-0"
140
0.015625
141
12.0
290
     0
  0
SCALE
  5
5B
102
{ACAD_REACTORS
330
47
102
}
330
47
100
AcDbScale
 70
     0
300
1/32" = 1'-0"
140
0.03125
141
12.0
290
     0
  0
SCALE
  5
5C
102
{ACAD_REACTORS
330
47
102
}
330
47
100
AcDbScale
 70
     0
300
1/16" = 1'-0"
140
0.0625
141
12.0
290
     0
  0
SCALE
  5
5D
102
{ACAD_REACTORS
330
47
102
}
330
47
100
AcDbScale
 70
     0
300
3/32" = 1'-0"
140
0.09375
141
12.0
290
     0
  0
SCALE
  5
5E
102
{ACAD_REACTORS
330
47
102
}
330
47
100
AcDbScale
 70
     0
300
1/8" = 1'-0"
140
0.125
141
12.0
290
     0
  0
SCALE
  5
5F
102
{ACAD_REACTORS
330
47
102
}
330
47
100
AcDbScale
 70
     0
300
3/16" = 1'-0"
140
0.1875
141
12.0
290
     0
  0
SCALE
  5
60
102
{ACAD_REACTORS
330
47
102
}
330
47
100
AcDbScale
 70
     0
300
1/4" = 1'-0"
140
0.25
141
12.0
290
     0
  0
SCALE
  5
61
102
{ACAD_REACTORS
330
47
102
}
330
47
100
AcDbScale
 70
     0
300
3/8" = 1'-0"
140
0.375
141
12.0
290
     0
  0
SCALE
  5
62
102
{ACAD_REACTORS
330
47
102
}
330
47
100
AcDbScale
 70
     0
300
1/2" = 1'-0"
140
0.5
141
12.0
290
     0
  0
SCALE
  5
63
102
{ACAD_REACTORS
330
47
102
}
330
47
100
AcDbScale
 70
     0
300
3/4" = 1'-0"
140
0.75
141
12.0
290
     0
  0
SCALE
  5
64
102
{ACAD_REACTORS
330
47
102
}
330
47
100
AcDbScale
 70
     0
300
1" = 1'-0"
140
1.0
141
12.0
290
     0
  0
SCALE
  5
65
102
{ACAD_REACTORS
330
47
102
}
330
47
100
AcDbScale
 70
     0
300
1-1/2" = 1'-0"
140
1.5
141
12.0
290
     0
  0
SCALE
  5
66
102
{ACAD_REACTORS
330
47
102
}
330
47
100
AcDbScale
 70
     0
300
3" = 1'-0"
140
3.0
141
12.0
290
     0
  0
SCALE
  5
67
102
{ACAD_REACTORS
330
47
102
}
330
47
100
AcDbScale
 70
     0
300
6" = 1'-0"
140
6.0
141
12.0
290
     0
  0
SCALE
  5
68
102
{ACAD_REACTORS
330
47
102
}
330
47
100
AcDbScale
 70
     0
300
1'-0" = 1'-0"
140
12.0
141
12.0
290
     0
  0
ENDSEC
  0
EOF
