**ABCDEFGHIJKLMNOPQRSTUVWXYZabcdefghijklmnopqrstuvwxyz**************************
**PARASOLID !"#$%&'()*+,-./:;<=>?@[\]^_`{|}~0123456789**************************
**PART1;
MC=AMD64;
MC_MODEL=Intel64 Family 6 Model 60 Stepping 3, GenuineIntel;
MC_ID=unknown;
OS=Windows_NT;
OS_RELEASE=unknown;
FRU=Parasolid Version 24.0, build 216,  1-13-2012;
APPL=SolidWorks 2012-2012159;
SITE=;
USER=unknown;
FORMAT=text;
GUISE=transmit;
KEY=Заглушка D14 (Черная);
FILE=Заглушка D14 (Черная).x_t;
DATE=Fri Jul 15 13:16:16 2016;
**PART2;
SCH=SCH_2400216_20000;
USFLD_SIZE=0;
**PART3;
**END_OF_HEADER*****************************************************************
T51 : TRANSMIT FILE created by modeller version 240021623 SCH_2400216_20000_1300
6186 0 12 27 CCCCCCCCCCCCCCCCCCCCCCCA16 index_map_offset0 0 1 dA9 index_map82 0
 A17 node_id_index_map82 0 A20 schema_embedding_map82 0 Z1 1228 2 3 0 0 0 0 1e3
 1e-8 0 4 0 1 0 1 1 5 6 7 8 9 10 11 0 0 0 0 81 255 2 2 1006 12 1 0 0 0 0 13 0 70
 11 CI9 list_type0 0 1 uI10 notransmit0 0 1 lCCCDCCDI12 finger_index0 0 1 dI12 f
inger_block1012 0 CZ3 0 4 T1 0 0 3 20 1 14 14 13 255 5 47 0 1 0 15 0 0 16 0 54 2
55 6 968 0 17 18 0 19 +-2344015366567205e-50 -.0038 .00641013882797716 616846149
096633e-47 1 0 .000589861172022844 2e-4 -1 616846149096633e-47 0 38 255 7 835 0
 10 20 0 0 +21 6 22 23 24 29 255 8 770 0 11 25 0 75e-5 -.0038 .00665789005616644
 19 255 9 51 0 1 16 0 26 V16 255 10 820 0 ?27 0 28 7 0 0 1 18 255 11 768 0 29 0
 30 8 ?1 17 255 29 0 31 32 33 11 34 35 0 36 +18 30 765 0 37 11 38 25 ?1 17 37 0
 39 40 41 30 42 28 0 33 +18 38 757 0 27 30 43 44 ?1 29 25 767 0 30 44 8 -75e-5 -
.0038 .00665789005616644 29 44 759 0 38 45 25 .000524811413376956 -.004 .0066794
1411954591 29 45 756 0 43 46 44 -.000524811413376956 -.004 .00667941411954591 18
 43 754 0 42 38 47 45 ?1 29 46 748 0 47 48 45 -.0053909019242439 -.0038 .0039784
64080921615 18 47 746 0 49 43 50 46 ?1 29 48 745 0 50 51 46 -.00614090192424391
 -.0038 .002679425975244965 18 50 743 0 52 47 53 48 ?1 29 51 737 0 53 54 48 -.00
552213660323471 -.004 .00379420707595348 18 53 735 0 55 50 56 51 ?1 29 54 734 0
 56 57 51 -.00604694801661167 -.004 .002885207043592565 18 56 732 0 58 53 59 54
 ?1 29 57 726 0 59 60 54 -.00614090192424397 -.0038 -.002679425975244835 18 59 7
24 0 61 56 62 57 ?1 29 60 723 0 62 63 57 -.00539090192424398 -.0038 -.0039784640
809215 18 62 721 0 64 59 65 60 ?1 29 63 715 0 65 66 60 -.00604694801661173 -.004
 -.00288520704359244 18 65 713 0 67 62 68 63 ?1 29 66 712 0 68 69 63 -.005522136
60323479 -.004 -.003794207075953365 18 68 710 0 70 65 71 66 ?1 29 69 704 0 71 72
 66 -75e-5 -.0038 -.00665789005616644 18 71 702 0 73 68 74 69 ?1 29 72 701 0 74
 75 69 75e-5 -.0038 -.00665789005616644 18 74 699 0 76 71 77 72 ?1 29 75 693 0 7
7 78 72 -.000524811413376956 -.004 -.00667941411954591 18 77 691 0 79 74 80 75 ?
1 29 78 690 0 80 81 75 .000524811413376956 -.004 -.00667941411954591 18 80 688 0
 82 77 83 78 ?1 29 81 682 0 83 84 78 .00539090192424393 -.0038 -.003978464080921
575 18 83 680 0 85 80 86 81 ?1 29 84 679 0 86 87 81 .00614090192424393 -.0038 -.
00267942597524492 18 86 677 0 88 83 89 84 ?1 29 87 671 0 89 90 84 .0055221366032
3473 -.004 -.003794207075953445 18 89 669 0 91 86 92 87 ?1 29 90 668 0 92 93 87
 .00604694801661169 -.004 -.002885207043592525 18 92 666 0 94 89 95 90 ?1 29 93
 660 0 95 96 90 .00614090192424395 -.0038 .00267942597524488 18 95 658 0 97 92 9
8 93 ?1 29 96 657 0 98 99 93 .00539090192424395 -.0038 .00397846408092154 18 98
 655 0 100 95 101 96 ?1 29 99 649 0 101 102 96 .00604694801661172 -.004 .0028852
0704359248 18 101 647 0 103 98 104 99 ?1 29 102 646 0 104 105 99 .00552213660323
476 -.004 .003794207075953405 18 104 644 0 106 101 107 102 ?1 29 105 541 0 107 1
08 102 -.00539090192424389 838086122772927e-35 .003978464080921615 18 107 539 0
 109 104 110 105 ?1 29 108 466 0 110 111 105 -.00614090192424397 838086122772927
e-35 -.00267942597524483 18 110 464 0 112 107 113 108 ?1 29 111 391 0 113 114 10
8 -75e-5 838086122772927e-35 -.00665789005616644 18 113 389 0 115 110 116 111 ?1
 29 114 316 0 116 117 111 .00539090192424392 838086122772912e-35 -.0039784640809
2158 18 116 314 0 118 113 119 114 ?1 29 117 241 0 119 120 114 .00614090192424395
 838086122772927e-35 .002679425975244875 18 119 239 0 121 116 122 117 ?1 29 120
 155 0 122 123 117 75e-5 838086122772927e-35 .00665789005616644 18 122 153 0 32
 119 124 120 ?1 29 123 220 0 124 125 120 -75e-5 462634611822475e-50 .00665789005
616644 18 124 190 0 40 122 126 123 ?1 29 125 306 0 126 127 123 .0053909019242439
5 -3325357092127515e-50 .00397846408092154 18 126 276 0 128 124 129 125 ?1 29 12
7 381 0 129 130 125 .00614090192424393 -3787991703949975e-50 -.00267942597524492
 18 129 351 0 131 126 132 127 ?1 29 130 456 0 132 133 127 75e-5 -462634611822475
e-50 -.00665789005616644 18 132 426 0 134 129 135 130 ?1 29 133 531 0 135 136 13
0 -.00539090192424398 332535709212753e-49 -.0039784640809215 18 135 501 0 137 13
2 138 133 ?1 29 136 606 0 138 0 133 -.00614090192424391 3787991703949965e-50 .00
2679425975244965 18 138 576 0 139 135 0 136 ?1 17 139 0 39 140 52 138 141 142 0
 143 +15 255 39 557 0 144 15 0 17 140 0 39 145 139 110 143 146 0 0 -17 52 0 39 1
39 147 50 58 148 0 141 +17 141 0 149 49 150 50 139 142 0 151 -16 142 744 0 ?139
 152 153 154 0 0 1 17 143 0 155 156 157 138 140 146 0 150 +15 155 543 0 156 158
 0 17 156 0 155 159 143 107 150 160 0 161 -17 157 0 155 143 162 110 163 164 0 14
0 -16 146 465 0 ?143 165 166 167 165 166 1 17 150 0 149 141 109 138 156 160 0 0
 +15 149 587 0 141 168 0 17 109 0 149 150 49 107 144 152 0 156 +16 160 566 0 ?15
0 153 0 169 0 0 1 16 153 733 0 ?170 142 160 171 0 0 1 31 255 169 602 0 160 171 1
54 0 +-.00555134306681319 342432459307801e-49 .003205069413988645 -6168461490966
33e-47 -1 0 -.50000000000001 308423074548323e-47 -.866025403784433 .000789861172
022844 31 171 605 0 153 0 169 0 +-2467384596386535e-50 -.004 0 616846149096633e-
47 1 0 -.50000000000001 308423074548323e-47 -.866025403784433 .0067 30 255 154 6
01 0 142 169 172 0 +-.00614090192424391 -.004 .002679425975244965 61684614909663
3e-47 1 0 30 172 600 0 152 154 173 0 +-.0053909019242439 -.004 .0039784640809216
15 616846149096633e-47 1 0 16 152 747 0 ?109 164 142 172 0 0 1 31 173 530 0 174
 172 175 0 +-2467384596386535e-50 -.004 0 616846149096633e-47 1 0 .4999999999999
92 -308423074548312e-47 -.866025403784443 .0067 16 174 711 0 ?176 177 164 173 0
 0 1 31 175 527 0 164 173 178 0 +-.00555134306681325 342432459307805e-49 -.00320
5069413988525 -616846149096633e-47 -1 0 .499999999999992 -308423074548312e-47 -.
866025403784443 .000789861172022844 16 164 491 0 ?163 174 152 175 0 0 1 30 178 5
26 0 177 175 179 0 +-.00539090192424398 -.004 -.0039784640809215 616846149096633
e-47 1 0 16 177 722 0 ?137 180 174 178 0 0 1 30 179 525 0 180 178 181 0 +-.00614
090192424397 -.004 -.002679425975244835 616846149096633e-47 1 0 16 180 725 0 ?11
2 182 177 179 0 0 1 31 181 455 0 183 179 184 0 +-2467384596386535e-50 -.004 0 61
6846149096633e-47 1 0 1 -616846149096633e-47 0 .0067 16 183 689 0 ?185 186 182 1
81 0 0 1 31 184 452 0 182 181 187 0 +0 0 -.00641013882797716 -616846149096633e-4
7 -1 0 1 -616846149096633e-47 0 .000789861172022844 16 182 416 0 ?188 183 180 18
4 0 0 1 30 187 451 0 186 184 189 0 +75e-5 -.004 -.00665789005616644 616846149096
633e-47 1 0 16 186 700 0 ?134 190 183 187 0 0 1 30 189 450 0 190 187 191 0 +-75e
-5 -.004 -.00665789005616644 616846149096633e-47 1 0 16 190 703 0 ?115 192 186 1
89 0 0 1 31 191 380 0 193 189 194 0 +-2467384596386535e-50 -.004 547382212626882
e-65 616846149096633e-47 1 -1368455531567204e-63 .5 -3084230745483195e-48 .86602
5403784437 .0067 16 193 667 0 ?195 196 192 191 0 0 1 31 194 377 0 192 191 197 0
 +.00555134306681321 -3424324593078025e-50 -.003205069413988605 -616846149096633
e-47 -1 1368455531567204e-63 .5 -3084230745483195e-48 .866025403784437 .00078986
1172022844 16 192 341 0 ?198 193 190 194 0 0 1 30 197 376 0 196 194 199 0 +.0061
4090192424393 -.004 -.00267942597524492 616846149096633e-47 1 -1368455531567204e
-63 16 196 678 0 ?131 200 193 197 0 0 1 30 199 375 0 200 197 201 0 +.00539090192
424393 -.004 -.003978464080921575 616846149096633e-47 1 -1368455531567204e-63 16
 200 681 0 ?118 202 196 199 0 0 1 31 201 305 0 203 199 204 0 +-2467384596386535e
-50 -.004 0 616846149096633e-47 1 0 -.5 3084230745483155e-48 .86602540378444 .00
67 16 203 645 0 ?205 206 202 201 0 0 1 31 204 302 0 202 201 207 0 +.005551343066
81323 -3424324593078035e-50 .003205069413988565 -616846149096633e-47 -1 0 -.5 30
84230745483155e-48 .86602540378444 .000789861172022844 16 202 266 0 ?208 203 200
 204 0 0 1 30 207 301 0 206 204 209 0 +.00539090192424395 -.004 .003978464080921
54 616846149096633e-47 1 0 16 206 656 0 ?128 210 203 207 0 0 1 30 209 300 0 210
 207 211 0 +.00614090192424395 -.004 .00267942597524488 616846149096633e-47 1 0
 16 210 659 0 ?121 212 206 209 0 0 1 31 211 219 0 213 209 214 0 +-24673845963865
35e-50 -.004 0 616846149096633e-47 1 0 -1 616846149096633e-47 0 .0067 16 213 755
 0 ?215 216 212 211 0 0 1 31 214 216 0 212 211 217 0 +0 0 .00641013882797716 -61
6846149096633e-47 -1 0 -1 616846149096633e-47 0 .000789861172022844 16 212 180 0
 ?218 213 210 214 0 0 1 30 217 215 0 216 214 219 0 +-75e-5 -.004 .00665789005616
644 616846149096633e-47 1 0 16 216 766 0 ?40 220 213 217 0 0 1 30 219 214 0 220
 217 221 0 +75e-5 -.004 .00665789005616644 616846149096633e-47 1 0 16 220 769 0
 ?32 222 216 219 0 0 1 31 221 95 0 222 219 167 0 +271583550503236e-49 0 0 616846
149096633e-47 1 0 -1 616846149096633e-47 0 .00835 16 222 53 0 ?223 166 220 221 0
 0 1 31 167 96 0 224 221 225 0 +271583550503236e-49 -216840434497101e-33 0 61684
6149096633e-47 1 0 -1 616846149096633e-47 0 .0067 16 224 154 0 ?226 227 228 167
 166 228 1 31 225 97 0 227 167 229 0 +-738502929908787e-50 -.0056 0 616846149096
633e-47 1 0 -1 616846149096633e-47 0 .0067 16 227 60 0 ?230 231 224 225 0 0 1 31
 229 98 0 231 225 232 0 +-1478718308824746e-50 -.0068 0 616846149096633e-47 1 0
 -1 616846149096633e-47 0 .0055 16 231 65 0 ?233 234 227 229 0 0 1 31 232 99 0 2
34 229 235 0 +2407412430484045e-50 -5e-4 0 616846149096633e-47 1 0 -1 6168461490
96633e-47 0 .0055 16 234 70 0 ?236 237 231 232 0 0 1 31 235 652 0 237 232 238 0
 -.00555134306681323 -.004 .003205069413988565 616846149096633e-47 1 0 -1 616846
149096633e-47 0 .000589861172022844 16 237 650 0 ?239 240 234 235 0 0 1 31 238 6
63 0 240 235 241 0 +.00555134306681323 -.0038 .003205069413988565 61684614909663
3e-47 1 0 -1 616846149096633e-47 0 .000789861172022844 16 240 661 0 ?97 242 237
 238 0 0 1 31 241 674 0 242 238 243 0 -.00555134306681321 -.004 -.00320506941398
8605 616846149096633e-47 1 -1368455531567204e-63 -1 616846149096633e-47 0 .00058
9861172022844 16 242 672 0 ?244 245 240 241 0 0 1 31 243 685 0 245 241 246 0 +.0
0555134306681321 -.0038 -.003205069413988605 616846149096633e-47 1 -136845553156
7204e-63 -1 616846149096633e-47 0 .000789861172022844 16 245 683 0 ?85 247 242 2
43 0 0 1 31 246 696 0 247 243 248 0 --2467384596386535e-50 -.004 -.0064101388279
7716 616846149096633e-47 1 0 -1 616846149096633e-47 0 .000589861172022844 16 247
 694 0 ?249 250 245 246 0 0 1 31 248 707 0 250 246 251 0 +-2344015366567205e-50
 -.0038 -.00641013882797716 616846149096633e-47 1 0 -1 616846149096633e-47 0 .00
0789861172022844 16 250 705 0 ?73 252 247 248 0 0 1 31 251 718 0 252 248 253 0 -
-.00555134306681325 -.004 -.003205069413988525 616846149096633e-47 1 0 -1 616846
149096633e-47 0 .000589861172022844 16 252 716 0 ?254 255 250 251 0 0 1 31 253 7
29 0 255 251 256 0 +-.00555134306681325 -.0038 -.003205069413988525 616846149096
633e-47 1 0 -1 616846149096633e-47 0 .000789861172022844 16 255 727 0 ?61 257 25
2 253 0 0 1 31 256 740 0 257 253 258 0 --.00555134306681319 -.004 .0032050694139
88645 616846149096633e-47 1 0 -1 616846149096633e-47 0 .000589861172022844 16 25
7 738 0 ?259 260 255 256 0 0 1 31 258 751 0 260 256 261 0 +-.00555134306681319 -
.0038 .003205069413988645 616846149096633e-47 1 0 -1 616846149096633e-47 0 .0007
89861172022844 16 260 749 0 ?49 262 257 258 0 0 1 31 261 762 0 262 258 263 0 --2
467384596386535e-50 -.004 .00641013882797716 616846149096633e-47 1 0 -1 61684614
9096633e-47 0 .000589861172022844 16 262 760 0 ?264 35 260 261 0 0 1 31 263 773
 0 35 261 265 0 +-2344015366567205e-50 -.0038 .00641013882797716 616846149096633
e-47 1 0 -1 616846149096633e-47 0 .000789861172022844 16 35 771 0 ?29 266 262 26
3 0 0 1 38 265 824 0 266 263 267 0 +21 268 269 270 271 16 266 776 0 ?100 272 35
 265 0 0 1 38 267 825 0 272 265 273 0 +21 268 274 275 276 51 255 21 90 0 15 277
 278 279 -2407412430484045e-50 -5e-4 0 616846149096633e-47 1 0 .0067 -1 61684614
9096633e-47 0 54 268 863 0 280 281 282 283 +.00555134306681323 -.0038 .003205069
413988565 616846149096633e-47 1 0 .000589861172022844 2e-4 -1 616846149096633e-4
7 0 40 255 6 269 0 1 6 168141036748836e-19 .3845193788963245 ??.0055221366032347
6 -.004 .00379420707595341 .00547384445738265 -.003986136607321705 .003863551068
173075 .00543046967225792 -.00394337617378162 .003924283264328275 .0054028868517
7243 -.00388366396659246 .00396217284667701 .00539151526685872 -.003819351108983
93 .00397763285475538 .00539090192424395 -.0038 .00397846408092154 41 255 1 270
 L.00552213660323476 -.004 .00379420707595341 41 1 271 L.00539090192424395 -.003
8 .00397846408092154 14 255 280 851 284 ?285 286 287 5 268 +0 0 285 286 26 53 25
5 281 94 0 288 289 268 0 -2754332705182325e-33 -.02249083333333335 0 .0239908333
3333335 616846149096633e-47 1 0 1 -616846149096633e-47 0 54 282 884 0 285 268 29
0 291 +.00555134306681321 -.0038 -.003205069413988605 616846149096633e-47 1 -136
8455531567204e-63 .000589861172022844 2e-4 -1 616846149096633e-47 0 141 255 283
 265 292 292 268 141 292 267 283 283 268 14 285 872 293 ?294 280 295 5 282 +0 0
 294 280 26 54 290 905 0 294 282 296 297 +-2344015366567205e-50 -.0038 -.0064101
3882797716 616846149096633e-47 1 0 .000589861172022844 2e-4 -1 616846149096633e-
47 0 141 291 273 298 298 282 38 273 826 0 299 267 300 0 +21 282 301 302 303 141
 298 300 291 291 282 38 300 827 0 304 273 305 0 +21 282 306 307 308 16 304 788 0
 ?91 309 299 300 0 0 1 38 305 828 0 309 300 310 0 +21 290 311 312 313 40 6 306 0
 1 6 1116974352978926e-20 .342205206491627 ??.00539090192424393 -.0038 -.0039784
64080921575 .00539722913624039 -.003861471867634325 -.00396987627652523 .0054151
0334858572 -.003915948455674295 -.00394546014098935 .00544280870874498 -.0039595
7803218216 -.003907151566040125 .00547942773316489 -.00398925902434659 -.0038556
2857612394 .00552213660323473 -.004 -.00379420707595345 41 1 307 L.0053909019242
4393 -.0038 -.003978464080921575 41 1 308 L.00552213660323473 -.004 -.0037942070
7595345 16 309 792 0 ?76 314 304 305 0 0 1 38 310 829 0 314 305 315 0 +21 290 31
6 317 318 40 6 311 0 1 6 168141036748836e-19 .3845193788963235 ??.00052481141337
6962 -.004 -.00667941411954591 .00060901114516508 -.003986136607321705 -.0066722
6389054455 .000683294162425466 -.00394337617378162 -.00666506632282045 .00072989
8913520996 -.00388366396659246 -.00666012369074636 .000748973465716434 -.0038193
5110898393 -.00665800561336897 75e-5 -.0038 -.00665789005616645 41 1 312 L.00052
4811413376962 -.004 -.00667941411954591 41 1 313 L75e-5 -.0038 -.006657890056166
45 16 314 796 0 ?79 319 309 310 0 0 1 38 315 830 0 319 310 320 0 +21 296 321 322
 323 40 6 316 0 1 6 1116974352978922e-20 .342205206491628 ??-75e-5 -.0038 -.0066
5789005616644 -.000739399137231799 -.003861471867634325 -.00665907568029234 -.00
0709317037422816 -.003915948455674295 -.0066623471344881 -.000662288158254378 -.
00395957803218216 -.0066671863927324 -.00059935842789808 -.00398925902434659 -.0
0667313790318375 -.000524811413376962 -.004 -.00667941411954591 41 1 317 L-75e-5
 -.0038 -.00665789005616644 41 1 318 L-.000524811413376962 -.004 -.0066794141195
4591 16 319 800 0 ?64 324 314 315 0 0 1 38 320 831 0 324 315 325 0 +21 296 326 3
27 328 54 296 926 0 329 290 18 330 +-.00555134306681325 -.0038 -.003205069413988
525 616846149096633e-47 1 0 .000589861172022844 2e-4 -1 616846149096633e-47 0 40
 6 321 0 1 6 168141036748833e-19 .384519378896324 ??-.00552213660323478 -.004 -.
00379420707595337 -.00547384445738267 -.003986136607321705 -.003863551068173035
 -.00543046967225795 -.00394337617378162 -.003924283264328235 -.0054028868517724
6 -.00388366396659246 -.003962172846676975 -.00539151526685874 -.003819351108983
93 -.00397763285475534 -.00539090192424398 -.0038 -.003978464080921505 41 1 322
 L-.00552213660323478 -.004 -.00379420707595337 41 1 323 L-.00539090192424398 -.
0038 -.003978464080921505 14 329 914 331 ?332 294 333 5 296 +0 0 332 294 26 54 1
8 947 0 332 296 6 334 +-.00555134306681319 -.0038 .003205069413988645 6168461490
96633e-47 1 0 .000589861172022844 2e-4 -1 616846149096633e-47 0 141 330 315 335
 335 296 141 335 320 330 330 296 14 332 935 336 ?17 329 337 5 18 +0 0 17 329 26
 141 334 325 338 338 18 38 325 832 0 148 320 339 0 +21 18 340 341 342 141 338 33
9 334 334 18 38 339 833 0 343 325 20 0 +21 18 344 345 346 16 343 812 0 ?55 28 14
8 339 0 0 1 38 20 834 0 28 339 7 0 +21 6 347 348 349 40 6 344 0 1 6 111697435297
8926e-20 .3422052064916255 ??-.0053909019242439 -.0038 .003978464080921615 -.005
39722913624036 -.003861471867634325 .003969876276525265 -.0054151033485857 -.003
915948455674295 .00394546014098939 -.00544280870874496 -.00395957803218216 .0039
07151566040165 -.00547942773316486 -.00398925902434659 .00385562857612398 -.0055
221366032347 -.004 .003794207075953485 41 1 345 L-.0053909019242439 -.0038 .0039
78464080921615 41 1 346 L-.0055221366032347 -.004 .003794207075953485 16 28 816
 0 ?37 10 343 20 0 0 1 40 6 347 0 1 6 168141036748836e-19 .3845193788963235 ??-.
000524811413376962 -.004 .00667941411954591 -.00060901114516508 -.00398613660732
1705 .00667226389054455 -.000683294162425466 -.00394337617378162 .00666506632282
045 -.000729898913520996 -.00388366396659246 .00666012369074636 -.00074897346571
6434 -.00381935110898393 .00665800561336897 -75e-5 -.0038 .00665789005616645 41
 1 348 L-.000524811413376962 -.004 .00667941411954591 41 1 349 L-75e-5 -.0038 .0
0665789005616645 17 55 0 39 147 144 53 350 343 0 170 +16 148 808 0 ?52 343 324 3
25 0 0 1 16 324 804 0 ?67 148 319 320 0 0 1 17 67 0 39 351 145 65 352 324 0 176
 +17 351 0 39 64 67 68 176 174 0 0 -17 145 0 39 67 140 59 112 180 0 352 -17 352
 0 333 353 354 59 67 324 0 0 -17 176 0 355 254 254 65 351 174 0 354 +15 355 515
 0 176 356 0 17 254 0 355 176 176 68 354 252 0 351 +17 354 0 333 352 70 65 254 2
52 0 0 -15 333 915 0 352 329 0 17 70 0 333 354 353 68 64 319 0 254 -17 353 0 333
 70 352 62 61 255 0 0 -17 64 0 39 137 351 62 70 319 0 357 +17 137 0 39 358 64 13
5 357 177 0 162 +17 357 0 359 61 163 62 137 177 0 353 -15 359 512 0 357 360 0 17
 61 0 359 112 357 59 353 255 0 145 +17 163 0 359 357 112 135 157 164 0 0 +17 112
 0 359 163 61 110 145 180 0 157 +14 360 509 361 ?356 362 359 5 363 -0 0 356 362
 26 81 1 361 1209 364 360 365 0 336 366 367 14 356 513 366 ?168 360 355 5 368 -0
 0 168 360 26 14 362 438 369 ?360 370 371 5 372 -0 0 360 370 26 51 363 522 0 360
 368 372 0 --.00555134306681325 -.004 -.003205069413988525 616846149096633e-47 1
 0 .000789861172022844 -1 616846149096633e-47 0 13 26 50 0 0 0 0 0 0 9 15 14 15
 559 373 ?158 0 374 5 21 -0 0 158 0 26 81 1 373 1212 364 15 375 0 369 376 377 14
 158 545 376 ?288 15 378 5 277 -0 0 288 15 26 15 374 62 0 230 15 39 17 230 0 374
 230 230 0 379 227 0 0 +17 379 0 380 379 379 0 230 227 0 0 -15 380 126 0 379 381
 382 14 381 68 383 ?384 385 380 5 278 -0 0 384 385 26 15 382 67 0 233 381 0 17 2
33 0 382 233 233 0 386 231 0 0 +17 386 0 387 386 386 0 233 231 0 0 -15 387 127 0
 386 385 388 14 385 73 389 ?381 390 387 5 391 -0 0 381 390 26 15 388 72 0 236 38
5 0 17 236 0 388 236 236 0 392 234 0 0 +17 392 0 393 392 392 0 236 234 0 0 -15 3
93 128 0 392 390 0 14 390 78 394 ?385 288 393 5 289 -0 0 385 288 26 81 1 394 121
6 364 390 395 0 389 396 397 14 288 86 396 ?390 158 398 5 281 -0 0 390 158 26 50
 255 289 93 0 390 391 281 0 +.0055 -5e-4 0 616846149096633e-47 1 0 -1 6168461490
96633e-47 0 51 391 92 0 385 278 289 0 +2407412430484045e-50 -5e-4 0 616846149096
633e-47 1 0 .0055 -1 616846149096633e-47 0 52 255 278 91 0 381 21 391 0 --147871
8308824746e-50 -.0068 0 616846149096633e-47 1 0 .0055 .707106781186549 .70710678
1186547 -1 616846149096633e-47 0 81 1 396 1217 364 288 399 0 394 400 401 15 398
 85 0 223 288 0 17 223 0 398 223 223 0 402 222 0 0 +17 402 0 378 402 402 0 223 2
22 0 0 -15 378 124 0 402 158 155 80 255 1 364 403 404 9000 1 1 1 1 1 1 1 1 0 FFF
FTFTFFFFFFF1 81 1 399 1133 405 288 0 396 406 395 407 81 1 400 1218 364 384 408 0
 396 409 410 82 255 1 401 449183860 14 384 198 400 ?411 381 31 5 412 -0 0 411 38
1 26 81 1 408 1137 405 384 0 400 413 414 415 81 1 409 1219 364 411 414 0 400 416
 417 82 1 410 -1000603522 14 411 202 409 ?418 384 419 5 420 -0 0 418 384 26 81 1
 414 1138 405 411 0 409 408 421 422 81 1 416 1220 364 418 421 0 409 423 424 82 1
 417 -1004404610 14 418 284 416 ?425 411 426 5 427 -0 0 425 411 26 81 1 421 1139
 405 418 0 416 414 428 429 81 1 423 1221 364 425 428 0 416 430 431 82 1 424 -714
669954 14 425 288 423 ?432 418 433 5 434 -0 0 432 418 26 81 1 428 1140 405 425 0
 423 421 435 436 81 1 430 1222 364 432 435 0 423 437 438 82 1 431 -718471042 14
 432 359 430 ?439 425 440 5 441 -0 0 439 425 26 81 1 435 1141 405 432 0 430 428
 442 443 81 1 437 1223 364 439 442 0 430 444 445 82 1 438 -701562754 14 439 363
 437 ?370 432 446 5 447 -0 0 370 432 26 81 1 442 1142 405 439 0 437 435 448 449
 81 1 444 1224 364 370 448 0 437 450 451 82 1 445 -705363842 14 370 434 444 ?362
 439 452 5 453 -0 0 362 439 26 81 1 448 1143 405 370 0 444 442 454 455 81 1 450
 1225 364 168 456 0 444 457 458 82 1 451 -688521090 14 168 584 450 ?286 356 149
 5 459 -0 0 286 356 26 81 1 456 1147 405 168 0 450 460 461 462 81 1 457 1226 364
 286 461 0 450 463 464 82 1 458 -662437762 14 286 588 457 ?280 168 465 5 466 -0
 0 280 168 26 81 1 461 1148 405 286 0 457 456 467 468 81 1 463 1227 364 294 469
 0 457 470 471 82 1 464 -666238850 14 294 893 463 ?329 285 472 5 290 +0 0 329 28
5 26 81 1 469 1151 405 294 0 463 473 474 475 81 1 470 1228 364 17 476 0 463 0 47
7 82 1 471 1003487358 14 17 956 470 ?0 332 478 5 6 +0 0 0 332 26 81 1 476 1154 4
05 17 0 470 479 0 480 82 1 477 1009385598 80 1 405 0 481 8001 0 0 0 0 3 5 0 0 0
 FFFFTFTFFFFFFF2 81 1 479 1153 405 332 0 336 474 476 482 83 255 3 480 .250980392
156863 .250980392156863 .250980392156863 81 1 336 1208 364 332 479 0 331 361 483
 81 1 474 1152 405 329 0 331 469 479 484 83 3 482 .250980392156863 .250980392156
863 .250980392156863 81 1 331 1207 364 329 474 0 293 336 485 83 3 484 .250980392
156863 .250980392156863 .250980392156863 81 1 293 1206 364 285 473 0 284 331 486
 82 1 485 1005453438 81 1 473 1150 405 285 0 293 467 469 487 81 1 284 1205 364 2
80 467 0 0 293 488 82 1 486 1001521278 81 1 467 1149 405 280 0 284 461 473 489 8
2 1 488 999555198 83 3 489 .250980392156863 .250980392156863 .250980392156863 83
 3 487 .250980392156863 .250980392156863 .250980392156863 82 1 483 1007419518 79
 255 15 481 SDL/TYSA_COLOUR15 478 957 0 490 17 0 17 490 0 478 34 491 11 27 10 0
 0 -17 34 0 478 42 490 30 29 35 0 0 -17 491 0 478 490 42 38 264 262 0 0 -17 27 0
 39 41 36 38 490 10 0 215 +17 41 0 39 37 27 43 215 213 0 0 -17 36 0 39 27 492 11
 32 220 0 490 -17 215 0 419 264 264 38 41 213 0 491 +15 419 204 0 215 411 0 17 2
64 0 419 215 215 43 491 262 0 41 +17 492 0 39 36 128 122 226 224 0 0 -17 32 0 31
 218 29 122 36 220 0 493 +15 31 201 0 33 384 0 17 218 0 31 33 32 124 493 212 0 0
 +17 493 0 155 226 159 122 218 212 0 492 -17 226 0 155 494 493 126 492 224 0 208
 +17 159 0 155 493 156 124 161 166 0 218 +17 161 0 39 144 40 107 159 166 0 0 -16
 166 540 0 ?159 146 222 167 146 224 1 17 144 0 39 55 161 47 109 152 0 350 -17 40
 0 39 161 37 124 33 216 0 159 +17 33 0 31 29 218 30 40 216 0 34 -17 350 0 337 15
1 495 47 55 343 0 0 -15 337 936 0 350 332 0 17 151 0 337 58 350 50 49 260 0 0 -1
7 495 0 337 350 58 53 259 257 0 0 -17 58 0 337 495 151 56 52 148 0 259 -17 259 0
 465 170 170 56 495 257 0 147 +15 465 590 0 170 286 0 17 170 0 465 259 259 53 14
7 153 0 495 +17 147 0 39 52 55 56 170 153 0 0 -17 49 0 149 109 141 47 151 260 0
 144 +17 494 0 155 496 226 119 208 202 0 497 -17 208 0 426 498 121 126 494 202 0
 0 +15 426 287 0 498 418 0 17 498 0 426 97 208 98 128 206 0 499 -17 121 0 426 20
8 97 119 500 210 0 494 +17 97 0 426 121 498 95 499 240 0 500 +17 500 0 39 103 49
7 95 121 210 0 501 -17 103 0 39 502 500 101 501 272 0 205 +17 497 0 39 500 131 1
19 496 228 0 0 -17 501 0 287 499 503 95 103 272 0 0 -15 287 852 0 501 280 0 17 4
99 0 287 106 501 98 97 240 0 0 -17 503 0 287 501 106 101 239 237 0 0 -16 272 780
 0 ?103 299 266 267 0 0 1 16 299 784 0 ?88 304 272 273 0 0 1 17 88 0 39 131 504
 86 94 299 0 505 +17 131 0 39 497 88 129 505 196 0 496 +17 504 0 39 88 91 92 195
 193 0 0 -17 94 0 295 506 507 92 88 299 0 244 -17 505 0 440 85 198 86 131 196 0
 507 -15 440 362 0 505 432 0 17 85 0 440 118 505 83 507 245 0 508 +17 198 0 440
 505 118 129 509 192 0 0 +17 507 0 295 94 510 86 85 245 0 0 -15 295 873 0 510 28
5 0 17 510 0 295 507 506 83 91 304 0 0 -17 506 0 295 510 94 89 244 242 0 0 -17 9
1 0 39 504 508 89 510 304 0 195 +17 508 0 39 91 511 83 118 200 0 510 -17 195 0 4
46 244 244 89 504 193 0 506 +15 446 365 0 195 439 0 17 244 0 446 195 195 92 506
 242 0 504 +17 511 0 39 508 134 116 512 513 0 0 -17 118 0 440 198 85 116 508 200
 0 509 +17 509 0 155 512 496 116 198 192 0 511 -17 512 0 155 514 509 132 511 513
 0 188 +17 496 0 155 509 494 129 497 228 0 198 +16 228 240 0 ?496 224 513 167 22
4 513 1 16 513 315 0 ?512 228 165 167 228 165 1 16 165 390 0 ?162 513 146 167 51
3 146 1 17 162 0 155 157 514 135 358 165 0 163 +17 514 0 155 162 512 113 188 182
 0 358 -17 358 0 39 515 137 113 162 165 0 0 -17 515 0 39 79 358 71 115 190 0 516
 -17 79 0 39 517 515 77 516 314 0 185 +17 115 0 452 188 73 113 515 190 0 514 +17
 516 0 472 518 519 71 79 314 0 0 -15 472 894 0 516 294 0 17 518 0 472 82 516 74
 73 250 0 0 -17 519 0 472 516 82 77 249 247 0 0 -17 82 0 472 519 518 80 76 309 0
 249 -17 249 0 371 185 185 80 519 247 0 517 +15 371 440 0 185 362 0 17 185 0 371
 249 249 77 517 183 0 519 +17 517 0 39 76 79 80 185 183 0 0 -17 76 0 39 134 517
 74 82 309 0 520 +17 134 0 39 511 76 132 520 186 0 512 +17 520 0 452 73 188 74 1
34 186 0 518 -15 452 437 0 520 370 0 17 73 0 452 115 520 71 518 250 0 515 +17 18
8 0 452 520 115 132 514 182 0 0 +17 106 0 287 503 499 104 100 266 0 239 -17 239
 0 433 205 205 104 503 237 0 502 +15 433 290 0 205 425 0 17 205 0 433 239 239 10
1 502 203 0 503 +17 502 0 39 100 103 104 205 203 0 0 -17 100 0 39 128 502 98 106
 266 0 498 +17 128 0 39 492 100 126 498 206 0 226 +17 42 0 478 491 34 43 37 28 0
 264 -83 3 475 .250980392156863 .250980392156863 .250980392156863 83 3 468 .2509
80392156863 .250980392156863 .250980392156863 50 466 599 0 286 0 459 0 +-.002775
671533406595 -.004 .00160253470699432 616846149096633e-47 1 0 -.50000000000001 3
08423074548323e-47 -.866025403784433 51 459 597 0 168 466 368 0 --.0055513430668
1319 -.004 .003205069413988645 616846149096633e-47 1 0 .000789861172022844 -1 61
6846149096633e-47 0 50 368 524 0 356 459 363 0 +-.002775671533406625 -.004 -.001
602534706994265 616846149096633e-47 1 0 .499999999999992 -308423074548312e-47 -.
866025403784443 81 1 460 1146 405 356 0 366 365 456 521 83 3 462 .25098039215686
3 .250980392156863 .250980392156863 81 1 366 1210 364 356 460 0 361 369 522 81 1
 365 1145 405 360 0 361 454 460 523 83 3 521 .250980392156863 .250980392156863 .
250980392156863 81 1 454 1144 405 362 0 369 448 365 524 83 3 523 .25098039215686
3 .250980392156863 .250980392156863 81 1 369 1211 364 362 454 0 366 373 525 83 3
 524 .250980392156863 .250980392156863 .250980392156863 82 1 525 -692322178 82 1
 522 -679280514 83 3 455 .250980392156863 .250980392156863 .250980392156863 51 4
53 447 0 370 372 447 0 --2467384596386535e-50 -.004 -.00641013882797716 61684614
9096633e-47 1 0 .000789861172022844 -1 616846149096633e-47 0 50 372 449 0 362 36
3 453 0 +-2467384596386535e-50 -.004 -.00320506941398858 616846149096633e-47 1 0
 1 -616846149096633e-47 0 50 447 374 0 439 453 441 0 +.002775671533406605 -.004
 -.0016025347069943 616846149096633e-47 1 -1368455531567204e-63 .5 -308423074548
3195e-48 .866025403784437 51 441 372 0 432 447 434 0 -.00555134306681321 -.004 -
.003205069413988605 616846149096633e-47 1 -1368455531567204e-63 .000789861172022
844 -1 616846149096633e-47 0 50 434 299 0 425 441 427 0 +.002775671533406615 -.0
04 .001602534706994285 616846149096633e-47 1 0 -.5 3084230745483155e-48 .8660254
0378444 51 427 297 0 418 434 420 0 -.00555134306681323 -.004 .003205069413988565
 616846149096633e-47 1 0 .000789861172022844 -1 616846149096633e-47 0 50 420 213
 0 411 427 412 0 +-2467384596386535e-50 -.004 .00320506941398858 616846149096633
e-47 1 0 -1 616846149096633e-47 0 51 412 211 0 384 420 277 0 --2467384596386535e
-50 -.004 .00641013882797716 616846149096633e-47 1 0 .000789861172022844 -1 6168
46149096633e-47 0 50 277 89 0 158 412 21 0 +.00835 -1010333609296566e-34 0 61684
6149096633e-47 1 0 -1 616846149096633e-47 0 83 3 449 .250980392156863 .250980392
156863 .250980392156863 83 3 443 .250980392156863 .250980392156863 .250980392156
863 83 3 436 .250980392156863 .250980392156863 .250980392156863 83 3 429 .250980
392156863 .250980392156863 .250980392156863 83 3 422 .250980392156863 .250980392
156863 .250980392156863 81 1 413 1136 405 381 0 383 526 408 527 83 3 415 .250980
392156863 .250980392156863 .250980392156863 81 1 383 1214 364 381 413 0 376 389
 528 81 1 526 1135 405 385 0 389 395 413 529 83 3 527 .250980392156863 .25098039
2156863 .250980392156863 81 1 389 1215 364 385 526 0 383 394 530 81 1 395 1134 4
05 390 0 394 399 526 531 83 3 529 .250980392156863 .250980392156863 .25098039215
6863 83 3 531 .250980392156863 .250980392156863 .250980392156863 82 1 530 447676
532 81 1 376 1213 364 158 406 0 373 383 532 82 1 528 447086708 81 1 406 1132 405
 158 0 376 375 399 533 82 1 532 -648019847 81 1 375 1131 405 15 0 373 0 406 534
 83 3 533 .250980392156863 .250980392156863 .250980392156863 83 3 534 .250980392
156863 .250980392156863 .250980392156863 83 3 407 .250980392156863 .250980392156
863 .250980392156863 79 14 404 SWEntUnchanged82 1 397 448266356 82 1 377 -646709
122 82 1 367 -675479426 40 6 340 0 1 6 168141036748839e-19 .384519378896326 ??-.
00604694801661168 -.004 .00288520704359256 -.00608285560254768 -.003986136607321
705 .002808712822371535 -.00611376383468334 -.00394337617378162 .002740783058492
23 -.00613278576529339 -.00388366396659246 .002697950844069405 -.006140488732575
11 -.00381935110898393 .00268037275861365 -.00614090192424391 -.0038 .0026794259
75244965 41 1 341 L-.00604694801661168 -.004 .00288520704359256 41 1 342 L-.0061
4090192424391 -.0038 .002679425975244965 40 6 326 0 1 6 111697435297901e-19 .342
205206491626 ??-.00614090192424397 -.0038 -.002679425975244835 -.006136628273472
23 -.003861471867634325 -.00268919940376708 -.00612442038600858 -.00391594845567
4295 -.002716886993498715 -.00610509686699941 -.00395957803218216 -.002760034826
69224 -.00607878616106301 -.00398925902434659 -.002817509327059775 -.00604694801
661174 -.004 -.002885207043592435 41 1 327 L-.00614090192424397 -.0038 -.0026794
25975244835 41 1 328 L-.00604694801661174 -.004 -.002885207043592435 40 6 301 0
 1 6 1681410367488365e-20 .384519378896326 ??.0060469480166117 -.004 -.002885207
04359252 .0060828556025477 -.003986136607321705 -.002808712822371495 .0061137638
3468336 -.00394337617378162 -.00274078305849219 .00613278576529341 -.00388366396
659246 -.002697950844069365 .00614048873257513 -.00381935110898393 -.00268037275
861361 .00614090192424393 -.0038 -.00267942597524492 41 1 302 L.0060469480166117
 -.004 -.00288520704359252 41 1 303 L.00614090192424393 -.0038 -.002679425975244
92 141 297 305 535 535 290 141 535 310 297 297 290 141 279 265 536 537 21 141 53
6 7 538 279 21 141 537 267 279 539 21 141 539 273 537 540 21 141 540 300 539 541
 21 141 541 305 540 542 21 141 542 310 541 543 21 141 543 315 542 544 21 141 544
 320 543 545 21 141 545 325 544 546 21 141 546 339 545 538 21 141 538 20 546 536
 21 40 6 274 0 1 6 1116974352978928e-20 .342205206491628 ??.00614090192424395 -.
0038 .00267942597524488 .00613662827347221 -.003861471867634325 .002689199403767
12 .00612442038600857 -.003915948455674295 .002716886993498755 .0061050968669993
9 -.00395957803218216 .002760034826692285 .00607878616106299 -.00398925902434659
 .002817509327059815 .00604694801661172 -.004 .002885207043592475 41 1 275 L.006
14090192424395 -.0038 .00267942597524488 41 1 276 L.00604694801661172 -.004 .002
885207043592475 19 16 46 0 1 0 9 5 S40 6 22 0 1 6 1116974352978922e-20 .34220520
6491628 ??75e-5 -.0038 .00665789005616644 .000739399137231799 -.0038614718676343
25 .00665907568029234 .000709317037422816 -.003915948455674295 .0066623471344881
 .000662288158254378 -.00395957803218216 .0066671863927324 .00059935842789808 -.
00398925902434659 .00667313790318375 .000524811413376962 -.004 .0066794141195459
1 41 1 23 L75e-5 -.0038 .00665789005616644 41 1 24 L.000524811413376962 -.004 .0
0667941411954591 141 19 20 547 547 6 141 547 7 19 19 6 74 4 CI16 index_map_offse
t0 0 1 dCCZ20 14 3 0 0 470 2 476 0 0 0 0 0 0 0 0 0 0 0 0 0 0 0 0 0 80 2 12 548 5
49 8004 0 0 0 0 3 5 0 0 0 FFTFFFFFFFFFFF2 3 83 1 13 7850 79 16 549 SDL/TYSA_DENS
ITY1 0 
