  0
SECTION
  2
HEADER
  9
$ACADVER
  1
AC1015
  9
$ACADMAINTVER
 70
     6
  9
$DWGCODEPAGE
  3
ANSI_1252
  9
$INSBASE
 10
0.0
 20
0.0
 30
0.0
  9
$EXTMIN
 10
-103.8208842936
 20
41.3883991229
 30
0.0
  9
$EXTMAX
 10
36.8139312956
 20
528.6157756158
 30
0.0
  9
$LIMMIN
 10
0.0
 20
0.0
  9
$LIMMAX
 10
420.0
 20
297.0
  9
$ORTHOMODE
 70
     0
  9
$REGENMODE
 70
     1
  9
$FILLMODE
 70
     1
  9
$QTEXTMODE
 70
     0
  9
$MIRRTEXT
 70
     1
  9
$LTSCALE
 40
1.0
  9
$ATTMODE
 70
     1
  9
$TEXTSIZE
 40
3.175
  9
$TRACEWID
 40
1.0
  9
$TEXTSTYLE
  7
Standard
  9
$CLAYER
  8
0
  9
$CELTYPE
  6
ByLayer
  9
$CECOLOR
 62
   256
  9
$CELTSCALE
 40
1.0
  9
$DISPSILH
 70
     0
  9
$DIMSCALE
 40
1.0
  9
$DIMASZ
 40
3.302
  9
$DIMEXO
 40
1.27
  9
$DIMDLI
 40
3.75
  9
$DIMRND
 40
0.0
  9
$DIMDLE
 40
0.0
  9
$DIMEXE
 40
3.175
  9
$DIMTP
 40
0.0
  9
$DIMTM
 40
0.0
  9
$DIMTXT
 40
3.175
  9
$DIMCEN
 40
2.5
  9
$DIMTSZ
 40
0.0
  9
$DIMTOL
 70
     0
  9
$DIMLIM
 70
     0
  9
$DIMTIH
 70
     1
  9
$DIMTOH
 70
     1
  9
$DIMSE1
 70
     0
  9
$DIMSE2
 70
     0
  9
$DIMTAD
 70
     0
  9
$DIMZIN
 70
     0
  9
$DIMBLK
  1

  9
$DIMASO
 70
     1
  9
$DIMSHO
 70
     1
  9
$DIMPOST
  1

  9
$DIMAPOST
  1

  9
$DIMALT
 70
     0
  9
$DIMALTD
 70
     3
  9
$DIMALTF
 40
0.0393700787
  9
$DIMLFAC
 40
1.0
  9
$DIMTOFL
 70
     1
  9
$DIMTVP
 40
0.0
  9
$DIMTIX
 70
     0
  9
$DIMSOXD
 70
     0
  9
$DIMSAH
 70
     0
  9
$DIMBLK1
  1

  9
$DIMBLK2
  1

  9
$DIMSTYLE
  2
ISO-25
  9
$DIMCLRD
 70
     0
  9
$DIMCLRE
 70
     0
  9
$DIMCLRT
 70
     0
  9
$DIMTFAC
 40
1.0
  9
$DIMGAP
 40
1.524
  9
$DIMJUST
 70
     0
  9
$DIMSD1
 70
     0
  9
$DIMSD2
 70
     0
  9
$DIMTOLJ
 70
     0
  9
$DIMTZIN
 70
     0
  9
$DIMALTZ
 70
     0
  9
$DIMALTTZ
 70
     0
  9
$DIMUPT
 70
     0
  9
$DIMDEC
 70
     2
  9
$DIMTDEC
 70
     2
  9
$DIMALTU
 70
     2
  9
$DIMALTTD
 70
     3
  9
$DIMTXSTY
  7
Standard
  9
$DIMAUNIT
 70
     0
  9
$DIMADEC
 70
     2
  9
$DIMALTRND
 40
0.0
  9
$DIMAZIN
 70
     0
  9
$DIMDSEP
 70
    44
  9
$DIMATFIT
 70
     3
  9
$DIMFRAC
 70
     0
  9
$DIMLDRBLK
  1

  9
$DIMLUNIT
 70
     2
  9
$DIMLWD
 70
    -2
  9
$DIMLWE
 70
    -2
  9
$DIMTMOVE
 70
     0
  9
$LUNITS
 70
     2
  9
$LUPREC
 70
     2
  9
$SKETCHINC
 40
1.0
  9
$FILLETRAD
 40
10.0
  9
$AUNITS
 70
     0
  9
$AUPREC
 70
     2
  9
$MENU
  1
.
  9
$ELEVATION
 40
0.0
  9
$PELEVATION
 40
0.0
  9
$THICKNESS
 40
0.0
  9
$LIMCHECK
 70
     0
  9
$CHAMFERA
 40
0.0
  9
$CHAMFERB
 40
0.0
  9
$CHAMFERC
 40
0.0
  9
$CHAMFERD
 40
0.0
  9
$SKPOLY
 70
     0
  9
$TDCREATE
 40
2458214.77821662
  9
$TDUCREATE
 40
2458214.694883287
  9
$TDUPDATE
 40
2458214.778321505
  9
$TDUUPDATE
 40
2458214.694988171
  9
$TDINDWG
 40
0.0000000116
  9
$TDUSRTIMER
 40
0.0000000116
  9
$USRTIMER
 70
     1
  9
$ANGBASE
 50
0.0
  9
$ANGDIR
 70
     0
  9
$PDMODE
 70
     0
  9
$PDSIZE
 40
-1.0
  9
$PLINEWID
 40
0.0
  9
$SPLFRAME
 70
     0
  9
$SPLINETYPE
 70
     6
  9
$SPLINESEGS
 70
     8
  9
$HANDSEED
  5
A8
  9
$SURFTAB1
 70
     6
  9
$SURFTAB2
 70
     6
  9
$SURFTYPE
 70
     6
  9
$SURFU
 70
     6
  9
$SURFV
 70
     6
  9
$UCSBASE
  2

  9
$UCSNAME
  2

  9
$UCSORG
 10
0.0
 20
0.0
 30
0.0
  9
$UCSXDIR
 10
1.0
 20
0.0
 30
0.0
  9
$UCSYDIR
 10
0.0
 20
1.0
 30
0.0
  9
$UCSORTHOREF
  2

  9
$UCSORTHOVIEW
 70
     0
  9
$UCSORGTOP
 10
0.0
 20
0.0
 30
0.0
  9
$UCSORGBOTTOM
 10
0.0
 20
0.0
 30
0.0
  9
$UCSORGLEFT
 10
0.0
 20
0.0
 30
0.0
  9
$UCSORGRIGHT
 10
0.0
 20
0.0
 30
0.0
  9
$UCSORGFRONT
 10
0.0
 20
0.0
 30
0.0
  9
$UCSORGBACK
 10
0.0
 20
0.0
 30
0.0
  9
$PUCSBASE
  2

  9
$PUCSNAME
  2

  9
$PUCSORG
 10
0.0
 20
0.0
 30
0.0
  9
$PUCSXDIR
 10
1.0
 20
0.0
 30
0.0
  9
$PUCSYDIR
 10
0.0
 20
1.0
 30
0.0
  9
$PUCSORTHOREF
  2

  9
$PUCSORTHOVIEW
 70
     0
  9
$PUCSORGTOP
 10
0.0
 20
0.0
 30
0.0
  9
$PUCSORGBOTTOM
 10
0.0
 20
0.0
 30
0.0
  9
$PUCSORGLEFT
 10
0.0
 20
0.0
 30
0.0
  9
$PUCSORGRIGHT
 10
0.0
 20
0.0
 30
0.0
  9
$PUCSORGFRONT
 10
0.0
 20
0.0
 30
0.0
  9
$PUCSORGBACK
 10
0.0
 20
0.0
 30
0.0
  9
$USERI1
 70
     0
  9
$USERI2
 70
     0
  9
$USERI3
 70
     0
  9
$USERI4
 70
     0
  9
$USERI5
 70
     0
  9
$USERR1
 40
0.0
  9
$USERR2
 40
0.0
  9
$USERR3
 40
0.0
  9
$USERR4
 40
0.0
  9
$USERR5
 40
0.0
  9
$WORLDVIEW
 70
     1
  9
$SHADEDGE
 70
     3
  9
$SHADEDIF
 70
    70
  9
$TILEMODE
 70
     1
  9
$MAXACTVP
 70
    64
  9
$PINSBASE
 10
0.0
 20
0.0
 30
0.0
  9
$PLIMCHECK
 70
     0
  9
$PEXTMIN
 10
1.0000000000E+20
 20
1.0000000000E+20
 30
1.0000000000E+20
  9
$PEXTMAX
 10
-1.0000000000E+20
 20
-1.0000000000E+20
 30
-1.0000000000E+20
  9
$PLIMMIN
 10
0.0
 20
0.0
  9
$PLIMMAX
 10
420.0
 20
297.0
  9
$UNITMODE
 70
     0
  9
$VISRETAIN
 70
     1
  9
$PLINEGEN
 70
     0
  9
$PSLTSCALE
 70
     1
  9
$TREEDEPTH
 70
  3020
  9
$CMLSTYLE
  2
Standard
  9
$CMLJUST
 70
     0
  9
$CMLSCALE
 40
20.0
  9
$PROXYGRAPHICS
 70
     1
  9
$MEASUREMENT
 70
     1
  9
$CELWEIGHT
370
    -1
  9
$ENDCAPS
280
     0
  9
$JOINSTYLE
280
     0
  9
$LWDISPLAY
290
     1
  9
$INSUNITS
 70
     4
  9
$HYPERLINKBASE
  1

  9
$STYLESHEET
  1

  9
$XEDIT
290
     1
  9
$CEPSNTYPE
380
     0
  9
$PSTYLEMODE
290
     1
  9
$FINGERPRINTGUID
  2
{A53DD121-089C-4729-A485-F5668D6C6D3E}
  9
$VERSIONGUID
  2
{FAEB1C32-E019-11D5-929B-00C0DF256EC4}
  9
$EXTNAMES
290
     1
  9
$PSVPSCALE
 40
0.0
  9
$OLESTARTUP
290
     0
  0
ENDSEC
  0
SECTION
  2
CLASSES
  0
CLASS
  1
ACDBDICTIONARYWDFLT
  2
AcDbDictionaryWithDefault
  3
ObjectDBX Classes
 90
        0
280
     0
281
     0
  0
CLASS
  1
VISUALSTYLE
  2
AcDbVisualStyle
  3
ObjectDBX Classes
 90
     4095
280
     0
281
     0
  0
CLASS
  1
MATERIAL
  2
AcDbMaterial
  3
ObjectDBX Classes
 90
     1153
280
     0
281
     0
  0
CLASS
  1
SCALE
  2
AcDbScale
  3
ObjectDBX Classes
 90
     1153
280
     0
281
     0
  0
CLASS
  1
TABLESTYLE
  2
AcDbTableStyle
  3
ObjectDBX Classes
 90
     4095
280
     0
281
     0
  0
CLASS
  1
MLEADERSTYLE
  2
AcDbMLeaderStyle
  3
ACDB_MLEADERSTYLE_CLASS
 90
     4095
280
     0
281
     0
  0
CLASS
  1
SUN
  2
AcDbSun
  3
SCENEOE
 90
     1153
280
     0
281
     0
  0
CLASS
  1
ACDBPLACEHOLDER
  2
AcDbPlaceHolder
  3
ObjectDBX Classes
 90
        0
280
     0
281
     0
  0
CLASS
  1
LAYOUT
  2
AcDbLayout
  3
ObjectDBX Classes
 90
        0
280
     0
281
     0
  0
ENDSEC
  0
SECTION
  2
TABLES
  0
TABLE
  2
VPORT
  5
8
330
0
100
AcDbSymbolTable
 70
     1
  0
VPORT
  5
29
330
8
100
AcDbSymbolTableRecord
100
AcDbViewportTableRecord
  2
*Active
 70
     0
 10
0.0
 20
0.0
 11
1.0
 21
1.0
 12
-33.503476499
 22
285.0020873694
 13
0.0
 23
0.0
 14
10.0
 24
10.0
 15
10.0
 25
10.0
 16
0.0
 26
0.0
 36
1.0
 17
0.0
 27
0.0
 37
0.0
 40
496.9719240228
 41
0.2886430902
 42
50.0
 43
0.0
 44
0.0
 50
0.0
 51
0.0
 71
     0
 72
   100
 73
     1
 74
     3
 75
     0
 76
     0
 77
     0
 78
     0
281
     0
 65
     1
110
0.0
120
0.0
130
0.0
111
1.0
121
0.0
131
0.0
112
0.0
122
1.0
132
0.0
 79
     0
146
0.0
  0
ENDTAB
  0
TABLE
  2
LTYPE
  5
5
330
0
100
AcDbSymbolTable
 70
     6
  0
LTYPE
  5
14
330
5
100
AcDbSymbolTableRecord
100
AcDbLinetypeTableRecord
  2
ByBlock
 70
     0
  3

 72
    65
 73
     0
 40
0.0
  0
LTYPE
  5
15
330
5
100
AcDbSymbolTableRecord
100
AcDbLinetypeTableRecord
  2
ByLayer
 70
     0
  3

 72
    65
 73
     0
 40
0.0
  0
LTYPE
  5
16
330
5
100
AcDbSymbolTableRecord
100
AcDbLinetypeTableRecord
  2
Continuous
 70
     0
  3
Solid line
 72
    65
 73
     0
 40
0.0
  0
LTYPE
  5
6E
330
5
100
AcDbSymbolTableRecord
100
AcDbLinetypeTableRecord
  2
HIDDEN
 70
     0
  3
Hidden __ __ __ __ __ __ __ __ __ __ __ __ __ __
 72
    65
 73
     2
 40
1.905
 49
1.27
 74
     0
 49
-0.635
 74
     0
  0
LTYPE
  5
6F
330
5
100
AcDbSymbolTableRecord
100
AcDbLinetypeTableRecord
  2
PHANTOM
 70
     0
  3
Phantom ______  __  __  ______  __  __  ______
 72
    65
 73
     6
 40
12.7
 49
6.35
 74
     0
 49
-1.27
 74
     0
 49
1.27
 74
     0
 49
-1.27
 74
     0
 49
1.27
 74
     0
 49
-1.27
 74
     0
  0
LTYPE
  5
70
330
5
100
AcDbSymbolTableRecord
100
AcDbLinetypeTableRecord
  2
CENTER
 70
     0
  3
Center ____ _ ____ _ ____ _ ____ _ ____ _ ____
 72
    65
 73
     4
 40
10.16
 49
6.35
 74
     0
 49
-1.27
 74
     0
 49
1.27
 74
     0
 49
-1.27
 74
     0
  0
LTYPE
  5
71
330
5
100
AcDbSymbolTableRecord
100
AcDbLinetypeTableRecord
  2
CENTERX2
 70
     0
  3
Center (2x) ________  __  ________  __  _____
 72
    65
 73
     4
 40
20.32
 49
12.7
 74
     0
 49
-2.54
 74
     0
 49
2.54
 74
     0
 49
-2.54
 74
     0
  0
LTYPE
  5
72
330
5
100
AcDbSymbolTableRecord
100
AcDbLinetypeTableRecord
  2
DOT2
 70
     0
  3
Dot (.5x) ........................................
 72
    65
 73
     2
 40
0.635
 49
0.0
 74
     0
 49
-0.635
 74
     0
  0
ENDTAB
  0
TABLE
  2
LAYER
  5
2
330
0
100
AcDbSymbolTable
 70
     1
  0
LAYER
  5
10
330
2
100
AcDbSymbolTableRecord
100
AcDbLayerTableRecord
  2
0
 70
     0
 62
     7
  6
Continuous
370
    -3
390
F
  0
ENDTAB
  0
TABLE
  2
STYLE
  5
3
330
0
100
AcDbSymbolTable
 70
     1
  0
STYLE
  5
11
330
3
100
AcDbSymbolTableRecord
100
AcDbTextStyleTableRecord
  2
Standard
 70
     0
 40
0.0
 41
1.0
 50
0.0
 71
     0
 42
3.175
  3
txt
  4

  0
ENDTAB
  0
TABLE
  2
VIEW
  5
6
330
0
100
AcDbSymbolTable
 70
     0
  0
ENDTAB
  0
TABLE
  2
UCS
  5
7
330
0
100
AcDbSymbolTable
 70
     0
  0
ENDTAB
  0
TABLE
  2
APPID
  5
9
330
0
100
AcDbSymbolTable
 70
     1
  0
APPID
  5
12
330
9
100
AcDbSymbolTableRecord
100
AcDbRegAppTableRecord
  2
ACAD
 70
     0
  0
ENDTAB
  0
TABLE
  2
DIMSTYLE
  5
A
330
0
100
AcDbSymbolTable
 70
     1
100
AcDbDimStyleTable
  0
DIMSTYLE
105
27
330
A
100
AcDbSymbolTableRecord
100
AcDbDimStyleTableRecord
  2
ISO-25
 70
     0
 41
2.5
 42
0.625
 43
3.75
 44
1.25
 73
     0
 74
     0
 77
     1
 78
     8
140
2.5
141
2.5
143
0.0393700787
147
0.625
171
     3
172
     1
178
     0
271
     2
272
     2
274
     3
278
    44
283
     0
284
     8
340
11
  0
ENDTAB
  0
TABLE
  2
BLOCK_RECORD
  5
1
330
0
100
AcDbSymbolTable
 70
     1
  0
BLOCK_RECORD
  5
1F
330
1
100
AcDbSymbolTableRecord
100
AcDbBlockTableRecord
  2
*Model_Space
340
22
  0
BLOCK_RECORD
  5
1B
330
1
100
AcDbSymbolTableRecord
100
AcDbBlockTableRecord
  2
*Paper_Space
340
1E
  0
BLOCK_RECORD
  5
23
330
1
100
AcDbSymbolTableRecord
100
AcDbBlockTableRecord
  2
*Paper_Space0
340
26
  0
ENDTAB
  0
ENDSEC
  0
SECTION
  2
BLOCKS
  0
BLOCK
  5
20
330
1F
100
AcDbEntity
  8
0
100
AcDbBlockBegin
  2
*Model_Space
 70
     0
 10
0.0
 20
0.0
 30
0.0
  3
*Model_Space
  1

  0
ENDBLK
  5
21
330
1F
100
AcDbEntity
  8
0
100
AcDbBlockEnd
  0
BLOCK
  5
1C
330
1B
100
AcDbEntity
 67
     1
  8
0
100
AcDbBlockBegin
  2
*Paper_Space
 70
     0
 10
0.0
 20
0.0
 30
0.0
  3
*Paper_Space
  1

  0
ENDBLK
  5
1D
330
1B
100
AcDbEntity
 67
     1
  8
0
100
AcDbBlockEnd
  0
BLOCK
  5
24
330
23
100
AcDbEntity
  8
0
100
AcDbBlockBegin
  2
*Paper_Space0
 70
     0
 10
0.0
 20
0.0
 30
0.0
  3
*Paper_Space0
  1

  0
ENDBLK
  5
25
330
23
100
AcDbEntity
  8
0
100
AcDbBlockEnd
  0
ENDSEC
  0
SECTION
  2
ENTITIES
  0
SPLINE
  5
73
330
1F
100
AcDbEntity
  8
0
  6
Continuous
 62
     7
370
    15
100
AcDbSpline
210
0.0
220
0.0
230
1.0
 70
     8
 71
     2
 72
     9
 73
     6
 74
     0
 42
0.000000001
 43
0.00000001
 40
0.0
 40
0.0
 40
0.0
 40
0.25
 40
0.5
 40
0.75
 40
1.0
 40
1.0
 40
1.0
 10
15.24210965148354
 20
511.3170642346292
 30
0.0
 10
16.34966584519332
 20
511.4222168953144
 30
0.0
 10
18.39785151063907
 20
510.7972133738452
 30
0.0
 10
20.0533759146999
 20
509.3905346921481
 30
0.0
 10
20.97405549670155
 20
507.4418210096292
 30
0.0
 10
20.97970329448865
 20
506.3467913006899
 30
0.0
  0
LINE
  5
74
330
1F
100
AcDbEntity
  8
0
  6
Continuous
 62
     7
370
    15
100
AcDbLine
 10
20.9797032945
 20
506.3467913007
 30
0.0
 11
20.9797032945
 21
473.00185168
 31
0.0
  0
SPLINE
  5
75
330
1F
100
AcDbEntity
  8
0
  6
Continuous
 62
     7
370
    15
100
AcDbSpline
210
0.0
220
0.0
230
1.0
 70
     8
 71
     2
 72
     9
 73
     6
 74
     0
 42
0.000000001
 43
0.00000001
 40
0.0
 40
0.0
 40
0.0
 40
0.25
 40
0.5
 40
0.75
 40
1.0
 40
1.0
 40
1.0
 10
20.97970329448846
 20
473.0018516800054
 30
0.0
 10
20.97011511435709
 20
472.3737168010131
 30
0.0
 10
20.49265885957528
 20
471.283745129312
 30
0.0
 10
19.60976107342223
 20
470.4475254139584
 30
0.0
 10
18.48693824009355
 20
470.0058185541913
 30
0.0
 10
17.86853967139659
 20
470.0018516800054
 30
0.0
  0
LINE
  5
76
330
1F
100
AcDbEntity
  8
0
  6
Continuous
 62
     7
370
    15
100
AcDbLine
 10
17.8685396714
 20
470.00185168
 30
0.0
 11
8.6239803775
 21
470.00185168
 31
0.0
  0
SPLINE
  5
77
330
1F
100
AcDbEntity
  8
0
  6
Continuous
 62
     7
370
    15
100
AcDbSpline
210
0.0
220
0.0
230
1.0
 70
     8
 71
     2
 72
    10
 73
     7
 74
     0
 42
0.000000001
 43
0.00000001
 40
0.0
 40
0.0
 40
0.0
 40
0.2
 40
0.3333333333333333
 40
0.5
 40
0.75
 40
1.0
 40
1.0
 40
1.0
 10
8.623980377548586
 20
470.0018516800054
 30
0.0
 10
8.120620087866689
 20
469.9944127169978
 30
0.0
 10
7.368289220436419
 20
469.7572535189386
 30
0.0
 10
6.761308295904739
 20
469.4141942635938
 30
0.0
 10
6.040009887103036
 20
468.7126953376091
 30
0.0
 10
5.577759362391868
 20
467.6263737773904
 30
0.0
 10
5.568363001928478
 20
467.0018516800054
 30
0.0
  0
LINE
  5
78
330
1F
100
AcDbEntity
  8
0
  6
Continuous
 62
     7
370
    15
100
AcDbLine
 10
5.5683630019
 20
467.00185168
 30
0.0
 11
5.5683630019
 21
443.00185168
 31
0.0
  0
SPLINE
  5
79
330
1F
100
AcDbEntity
  8
0
  6
Continuous
 62
     7
370
    15
100
AcDbSpline
210
0.0
220
0.0
230
1.0
 70
     8
 71
     2
 72
     9
 73
     6
 74
     0
 42
0.000000001
 43
0.00000001
 40
0.0
 40
0.0
 40
0.0
 40
0.25
 40
0.5
 40
0.75
 40
1.0
 40
1.0
 40
1.0
 10
5.568363001928464
 20
443.0018516800054
 30
0.0
 10
5.577878221957398
 20
442.3777609228779
 30
0.0
 10
6.03918683690454
 20
441.2922061533004
 30
0.0
 10
6.90225743145391
 20
440.4520351600358
 30
0.0
 10
8.004433529446304
 20
440.0082854598543
 30
0.0
 10
8.6239803775486
 20
440.0018516800055
 30
0.0
  0
LINE
  5
7A
330
1F
100
AcDbEntity
  8
0
  6
Continuous
 62
     7
370
    15
100
AcDbLine
 10
8.6239803775
 20
440.00185168
 30
0.0
 11
17.8685396714
 21
440.00185168
 31
0.0
  0
SPLINE
  5
7B
330
1F
100
AcDbEntity
  8
0
  6
Continuous
 62
     7
370
    15
100
AcDbSpline
210
0.0
220
0.0
230
1.0
 70
     8
 71
     2
 72
     9
 73
     6
 74
     0
 42
0.000000001
 43
0.00000001
 40
0.0
 40
0.0
 40
0.0
 40
0.25
 40
0.5
 40
0.75
 40
1.0
 40
1.0
 40
1.0
 10
17.86853967139665
 20
440.0018516800055
 30
0.0
 10
18.48693824014978
 20
439.9978848058193
 30
0.0
 10
19.60976107342567
 20
439.5561779460287
 30
0.0
 10
20.4926588595471
 20
438.7199582307464
 30
0.0
 10
20.97011511435644
 20
437.6299865590152
 30
0.0
 10
20.97970329448862
 20
437.0018516800054
 30
0.0
  0
LINE
  5
7C
330
1F
100
AcDbEntity
  8
0
  6
Continuous
 62
     7
370
    15
100
AcDbLine
 10
20.9797032945
 20
437.00185168
 30
0.0
 11
20.9797032945
 21
303.00185168
 31
0.0
  0
SPLINE
  5
7D
330
1F
100
AcDbEntity
  8
0
  6
Continuous
 62
     7
370
    15
100
AcDbSpline
210
0.0
220
0.0
230
1.0
 70
     8
 71
     2
 72
     9
 73
     6
 74
     0
 42
0.000000001
 43
0.00000001
 40
0.0
 40
0.0
 40
0.0
 40
0.25
 40
0.5
 40
0.75
 40
1.0
 40
1.0
 40
1.0
 10
20.97970329448863
 20
303.0018516800054
 30
0.0
 10
20.97011511435678
 20
302.3737168010221
 30
0.0
 10
20.49265885958898
 20
301.2837451293332
 30
0.0
 10
19.60976107352262
 20
300.4475254140451
 30
0.0
 10
18.48693824019264
 20
300.0058185541844
 30
0.0
 10
17.86853967139666
 20
300.0018516800054
 30
0.0
  0
LINE
  5
7E
330
1F
100
AcDbEntity
  8
0
  6
Continuous
 62
     7
370
    15
100
AcDbLine
 10
17.8685396714
 20
300.00185168
 30
0.0
 11
8.6239803775
 21
300.00185168
 31
0.0
  0
SPLINE
  5
7F
330
1F
100
AcDbEntity
  8
0
  6
Continuous
 62
     7
370
    15
100
AcDbSpline
210
0.0
220
0.0
230
1.0
 70
     8
 71
     2
 72
    10
 73
     7
 74
     0
 42
0.000000001
 43
0.00000001
 40
0.0
 40
0.0
 40
0.0
 40
0.2
 40
0.3333333333333333
 40
0.5
 40
0.75
 40
1.0
 40
1.0
 40
1.0
 10
8.623980377548634
 20
300.0018516800054
 30
0.0
 10
8.120620087745209
 20
299.9944127169954
 30
0.0
 10
7.368289220337262
 20
299.7572535188807
 30
0.0
 10
6.761308295844606
 20
299.4141942635353
 30
0.0
 10
6.040009887129924
 20
298.7126953376351
 30
0.0
 10
5.57775936239268
 20
297.6263737774279
 30
0.0
 10
5.568363001928485
 20
297.0018516800054
 30
0.0
  0
LINE
  5
80
330
1F
100
AcDbEntity
  8
0
  6
Continuous
 62
     7
370
    15
100
AcDbLine
 10
5.5683630019
 20
297.00185168
 30
0.0
 11
5.5683630019
 21
273.00185168
 31
0.0
  0
SPLINE
  5
81
330
1F
100
AcDbEntity
  8
0
  6
Continuous
 62
     7
370
    15
100
AcDbSpline
210
0.0
220
0.0
230
1.0
 70
     8
 71
     2
 72
     9
 73
     6
 74
     0
 42
0.000000001
 43
0.00000001
 40
0.0
 40
0.0
 40
0.0
 40
0.25
 40
0.5
 40
0.75
 40
1.0
 40
1.0
 40
1.0
 10
5.568363001928492
 20
273.0018516800052
 30
0.0
 10
5.577878221957551
 20
272.3777609228909
 30
0.0
 10
6.039186836892571
 20
271.2922061533149
 30
0.0
 10
6.902257431368665
 20
270.4520351601158
 30
0.0
 10
8.004433529333589
 20
270.0082854598554
 30
0.0
 10
8.623980377548593
 20
270.0018516800054
 30
0.0
  0
LINE
  5
82
330
1F
100
AcDbEntity
  8
0
  6
Continuous
 62
     7
370
    15
100
AcDbLine
 10
8.6239803775
 20
270.00185168
 30
0.0
 11
17.8685396714
 21
270.00185168
 31
0.0
  0
SPLINE
  5
83
330
1F
100
AcDbEntity
  8
0
  6
Continuous
 62
     7
370
    15
100
AcDbSpline
210
0.0
220
0.0
230
1.0
 70
     8
 71
     2
 72
     9
 73
     6
 74
     0
 42
0.000000001
 43
0.00000001
 40
0.0
 40
0.0
 40
0.0
 40
0.25
 40
0.5
 40
0.75
 40
1.0
 40
1.0
 40
1.0
 10
17.86853967139666
 20
270.0018516800054
 30
0.0
 10
18.48693824018778
 20
269.9978848058249
 30
0.0
 10
19.60976107348906
 20
269.5561779459824
 30
0.0
 10
20.49265885958756
 20
268.719958230694
 30
0.0
 10
20.97011511435744
 20
267.6299865589742
 30
0.0
 10
20.97970329448862
 20
267.0018516800054
 30
0.0
  0
LINE
  5
84
330
1F
100
AcDbEntity
  8
0
  6
Continuous
 62
     7
370
    15
100
AcDbLine
 10
20.9797032945
 20
267.00185168
 30
0.0
 11
20.9797032945
 21
133.00185168
 31
0.0
  0
SPLINE
  5
85
330
1F
100
AcDbEntity
  8
0
  6
Continuous
 62
     7
370
    15
100
AcDbSpline
210
0.0
220
0.0
230
1.0
 70
     8
 71
     2
 72
     9
 73
     6
 74
     0
 42
0.000000001
 43
0.00000001
 40
0.0
 40
0.0
 40
0.0
 40
0.25
 40
0.5
 40
0.75
 40
1.0
 40
1.0
 40
1.0
 10
20.97970329448862
 20
133.0018516800054
 30
0.0
 10
20.97011511435646
 20
132.3737168010166
 30
0.0
 10
20.49265885958059
 20
131.2837451293191
 30
0.0
 10
19.60976107346677
 20
130.4475254139983
 30
0.0
 10
18.48693824013814
 20
130.005818554187
 30
0.0
 10
17.86853967139665
 20
130.0018516800054
 30
0.0
  0
LINE
  5
86
330
1F
100
AcDbEntity
  8
0
  6
Continuous
 62
     7
370
    15
100
AcDbLine
 10
17.8685396714
 20
130.00185168
 30
0.0
 11
8.6239803775
 21
130.00185168
 31
0.0
  0
SPLINE
  5
87
330
1F
100
AcDbEntity
  8
0
  6
Continuous
 62
     7
370
    15
100
AcDbSpline
210
0.0
220
0.0
230
1.0
 70
     8
 71
     2
 72
    10
 73
     7
 74
     0
 42
0.000000001
 43
0.00000001
 40
0.0
 40
0.0
 40
0.0
 40
0.2
 40
0.3333333333333333
 40
0.5
 40
0.75
 40
1.0
 40
1.0
 40
1.0
 10
8.62398037754864
 20
130.0018516800054
 30
0.0
 10
8.12062008772548
 20
129.9944127169959
 30
0.0
 10
7.368289220341273
 20
129.757253518877
 30
0.0
 10
6.761308295862162
 20
129.4141942635406
 30
0.0
 10
6.040009887152794
 20
128.7126953376751
 30
0.0
 10
5.577759362392847
 20
127.6263737774417
 30
0.0
 10
5.568363001928485
 20
127.0018516800054
 30
0.0
  0
LINE
  5
88
330
1F
100
AcDbEntity
  8
0
  6
Continuous
 62
     7
370
    15
100
AcDbLine
 10
5.5683630019
 20
127.00185168
 30
0.0
 11
5.5683630019
 21
103.00185168
 31
0.0
  0
SPLINE
  5
89
330
1F
100
AcDbEntity
  8
0
  6
Continuous
 62
     7
370
    15
100
AcDbSpline
210
0.0
220
0.0
230
1.0
 70
     8
 71
     2
 72
     9
 73
     6
 74
     0
 42
0.000000001
 43
0.00000001
 40
0.0
 40
0.0
 40
0.0
 40
0.25
 40
0.5
 40
0.75
 40
1.0
 40
1.0
 40
1.0
 10
5.568363001928548
 20
103.0018516800054
 30
0.0
 10
5.577878221957267
 20
102.3777609228716
 30
0.0
 10
6.039186836903118
 20
101.2922061533106
 30
0.0
 10
6.902257431376596
 20
100.4520351601022
 30
0.0
 10
8.004433529357271
 20
100.0082854598561
 30
0.0
 10
8.6239803775486
 20
100.0018516800054
 30
0.0
  0
LINE
  5
8A
330
1F
100
AcDbEntity
  8
0
  6
Continuous
 62
     7
370
    15
100
AcDbLine
 10
8.6239803775
 20
100.00185168
 30
0.0
 11
17.8685396714
 21
100.00185168
 31
0.0
  0
SPLINE
  5
8B
330
1F
100
AcDbEntity
  8
0
  6
Continuous
 62
     7
370
    15
100
AcDbSpline
210
0.0
220
0.0
230
1.0
 70
     8
 71
     2
 72
     9
 73
     6
 74
     0
 42
0.000000001
 43
0.00000001
 40
0.0
 40
0.0
 40
0.0
 40
0.25
 40
0.5
 40
0.75
 40
1.0
 40
1.0
 40
1.0
 10
17.86853967139664
 20
100.0018516800054
 30
0.0
 10
18.48693824016884
 20
99.99788480582316
 30
0.0
 10
19.60976107347806
 20
99.55617794599617
 30
0.0
 10
20.49265885958514
 20
98.71995823069294
 30
0.0
 10
20.97011511435688
 20
97.62998655898194
 30
0.0
 10
20.97970329448865
 20
97.00185168000536
 30
0.0
  0
LINE
  5
8C
330
1F
100
AcDbEntity
  8
0
  6
Continuous
 62
     7
370
    15
100
AcDbLine
 10
20.9797032945
 20
97.00185168
 30
0.0
 11
20.9797032945
 21
63.65673154
 31
0.0
  0
SPLINE
  5
8D
330
1F
100
AcDbEntity
  8
0
  6
Continuous
 62
     7
370
    15
100
AcDbSpline
210
0.0
220
0.0
230
1.0
 70
     8
 71
     2
 72
     9
 73
     6
 74
     0
 42
0.000000001
 43
0.00000001
 40
0.0
 40
0.0
 40
0.0
 40
0.25
 40
0.5
 40
0.75
 40
1.0
 40
1.0
 40
1.0
 10
20.97970329448865
 20
63.65673154001211
 30
0.0
 10
20.96657592379383
 20
62.54664516672531
 30
0.0
 10
20.05434147745214
 20
60.61424543327948
 30
0.0
 10
18.39927644264291
 20
59.2070901249886
 30
0.0
 10
16.32680557594547
 20
58.57398864608771
 30
0.0
 10
15.24227437925537
 20
58.68644109301419
 30
0.0
  0
SPLINE
  5
8E
330
1F
100
AcDbEntity
  8
0
  6
Continuous
 62
     7
370
    15
100
AcDbSpline
210
0.0
220
0.0
230
1.0
 70
     8
 71
     2
 72
     6
 73
     3
 74
     0
 42
0.000000001
 43
0.00000001
 40
0.75
 40
0.75
 40
0.75
 40
1.0
 40
1.0
 40
1.0
 10
15.24227437925537
 20
58.68644109301419
 30
0.0
 10
3.839265587873474
 20
59.89976131430602
 30
0.0
 10
-9.77783061465995
 20
61.38798008154001
 30
0.0
  0
SPLINE
  5
8F
330
1F
100
AcDbEntity
  8
0
  6
Continuous
 62
     7
370
    15
100
AcDbSpline
210
0.0
220
0.0
230
1.0
 70
     8
 71
     3
 72
    10
 73
     6
 74
     0
 42
0.000000001
 43
0.00000001
 40
0.0
 40
0.0
 40
0.0
 40
0.0
 40
0.5
 40
0.5
 40
1.0
 40
1.0
 40
1.0
 40
1.0
 10
-9.77783061465995
 20
61.38798008154001
 30
0.0
 10
-16.64229784959948
 20
62.1382008932428
 30
0.0
 10
-35.64305992736745
 20
64.23567269416874
 30
0.0
 10
-64.06310710176281
 20
67.34290980901245
 30
0.0
 10
-75.72239879787229
 20
68.59930288500613
 30
0.0
 10
-84.83095860289359
 20
69.55847047957153
 30
0.0
  0
SPLINE
  5
90
330
1F
100
AcDbEntity
  8
0
  6
Continuous
 62
     7
370
    15
100
AcDbSpline
210
0.0
220
0.0
230
1.0
 70
     8
 71
     2
 72
     9
 73
     6
 74
     0
 42
0.000000001
 43
0.00000001
 40
0.0
 40
0.0
 40
0.0
 40
0.25
 40
0.5
 40
0.75
 40
1.0
 40
1.0
 40
1.0
 10
-84.83095860289357
 20
69.55847047957153
 30
0.0
 10
-85.79875119910021
 20
69.67086723937435
 30
0.0
 10
-87.47146747323885
 20
70.48078684449737
 30
0.0
 10
-88.77611798963447
 20
71.84472384561788
 30
0.0
 10
-89.47845424250883
 20
73.5594926651019
 30
0.0
 10
-89.49011212435518
 20
74.5287609265694
 30
0.0
  0
LINE
  5
91
330
1F
100
AcDbEntity
  8
0
  6
Continuous
 62
     7
370
    15
100
AcDbLine
 10
-89.4901121244
 20
74.5287609266
 30
0.0
 11
-89.4901121244
 21
167.00185168
 31
0.0
  0
SPLINE
  5
92
330
1F
100
AcDbEntity
  8
0
  6
Continuous
 62
     7
370
    15
100
AcDbSpline
210
0.0
220
0.0
230
1.0
 70
     8
 71
     2
 72
     9
 73
     6
 74
     0
 42
0.000000001
 43
0.00000001
 40
0.0
 40
0.0
 40
0.0
 40
0.25
 40
0.5
 40
0.75
 40
1.0
 40
1.0
 40
1.0
 10
-89.49011212435518
 20
167.0018516800053
 30
0.0
 10
-89.49982573313467
 20
167.635040946736
 30
0.0
 10
-89.98935174255706
 20
168.7307681079382
 30
0.0
 10
-90.8889185744203
 20
169.5633434893806
 30
0.0
 10
-92.01816861160175
 20
169.9952605674314
 30
0.0
 10
-92.65048184066549
 20
170.0018516800053
 30
0.0
  0
LINE
  5
93
330
1F
100
AcDbEntity
  8
0
  6
Continuous
 62
     7
370
    15
100
AcDbLine
 10
-92.6504818407
 20
170.00185168
 30
0.0
 11
-100.1066721756
 21
170.00185168
 31
0.0
  0
LINE
  5
94
330
1F
100
AcDbEntity
  8
0
  6
Continuous
 62
     7
370
    15
100
AcDbLine
 10
-100.1066721756
 20
170.00185168
 30
0.0
 11
-100.1066721756
 21
200.00185168
 31
0.0
  0
LINE
  5
95
330
1F
100
AcDbEntity
  8
0
  6
Continuous
 62
     7
370
    15
100
AcDbLine
 10
-100.1066721756
 20
200.00185168
 30
0.0
 11
-92.6504818407
 21
200.00185168
 31
0.0
  0
SPLINE
  5
96
330
1F
100
AcDbEntity
  8
0
  6
Continuous
 62
     7
370
    15
100
AcDbSpline
210
0.0
220
0.0
230
1.0
 70
     8
 71
     2
 72
     9
 73
     6
 74
     0
 42
0.000000001
 43
0.00000001
 40
0.0
 40
0.0
 40
0.0
 40
0.25
 40
0.5
 40
0.75
 40
1.0
 40
1.0
 40
1.0
 10
-92.65048184066546
 20
200.0018516800054
 30
0.0
 10
-92.01816861166253
 20
200.0084427925787
 30
0.0
 10
-90.8889185744128
 20
200.4403598706094
 30
0.0
 10
-89.9893517425207
 20
201.2729352521344
 30
0.0
 10
-89.49982573313434
 20
202.3686624132944
 30
0.0
 10
-89.49011212435515
 20
203.0018516800053
 30
0.0
  0
LINE
  5
97
330
1F
100
AcDbEntity
  8
0
  6
Continuous
 62
     7
370
    15
100
AcDbLine
 10
-89.4901121244
 20
203.00185168
 30
0.0
 11
-89.4901121244
 21
367.00185168
 31
0.0
  0
SPLINE
  5
98
330
1F
100
AcDbEntity
  8
0
  6
Continuous
 62
     7
370
    15
100
AcDbSpline
210
0.0
220
0.0
230
1.0
 70
     8
 71
     2
 72
     9
 73
     6
 74
     0
 42
0.000000001
 43
0.00000001
 40
0.0
 40
0.0
 40
0.0
 40
0.25
 40
0.5
 40
0.75
 40
1.0
 40
1.0
 40
1.0
 10
-89.49011212435519
 20
367.0018516800054
 30
0.0
 10
-89.4998257331341
 20
367.6350409467044
 30
0.0
 10
-89.98935174254038
 20
368.7307681079319
 30
0.0
 10
-90.88891857451023
 20
369.563343489455
 30
0.0
 10
-92.01816861170936
 20
369.9952605674343
 30
0.0
 10
-92.65048184066552
 20
370.0018516800054
 30
0.0
  0
LINE
  5
99
330
1F
100
AcDbEntity
  8
0
  6
Continuous
 62
     7
370
    15
100
AcDbLine
 10
-92.6504818407
 20
370.00185168
 30
0.0
 11
-100.1066721756
 21
370.00185168
 31
0.0
  0
LINE
  5
9A
330
1F
100
AcDbEntity
  8
0
  6
Continuous
 62
     7
370
    15
100
AcDbLine
 10
-100.1066721756
 20
370.00185168
 30
0.0
 11
-100.1066721756
 21
400.00185168
 31
0.0
  0
LINE
  5
9B
330
1F
100
AcDbEntity
  8
0
  6
Continuous
 62
     7
370
    15
100
AcDbLine
 10
-100.1066721756
 20
400.00185168
 30
0.0
 11
-92.6504818407
 21
400.00185168
 31
0.0
  0
SPLINE
  5
9C
330
1F
100
AcDbEntity
  8
0
  6
Continuous
 62
     7
370
    15
100
AcDbSpline
210
0.0
220
0.0
230
1.0
 70
     8
 71
     2
 72
     9
 73
     6
 74
     0
 42
0.000000001
 43
0.00000001
 40
0.0
 40
0.0
 40
0.0
 40
0.25
 40
0.5
 40
0.75
 40
1.0
 40
1.0
 40
1.0
 10
-92.65048184066555
 20
400.0018516800055
 30
0.0
 10
-92.01816861168804
 20
400.0084427925802
 30
0.0
 10
-90.8889185744871
 20
400.4403598705691
 30
0.0
 10
-89.98935174253906
 20
401.2729352520882
 30
0.0
 10
-89.49982573313372
 20
402.3686624133009
 30
0.0
 10
-89.49011212435524
 20
403.0018516800054
 30
0.0
  0
LINE
  5
9D
330
1F
100
AcDbEntity
  8
0
  6
Continuous
 62
     7
370
    15
100
AcDbLine
 10
-89.4901121244
 20
403.00185168
 30
0.0
 11
-89.4901121244
 21
495.4715292196
 31
0.0
  0
SPLINE
  5
9E
330
1F
100
AcDbEntity
  8
0
  6
Continuous
 62
     7
370
    15
100
AcDbSpline
210
0.0
220
0.0
230
1.0
 70
     8
 71
     2
 72
     9
 73
     6
 74
     0
 42
0.000000001
 43
0.00000001
 40
0.0
 40
0.0
 40
0.0
 40
0.25
 40
0.5
 40
0.75
 40
1.0
 40
1.0
 40
1.0
 10
-89.49011212435519
 20
495.4715292195958
 30
0.0
 10
-89.47805703668983
 20
496.4424901411995
 30
0.0
 10
-88.77531533107472
 20
498.1567865305346
 30
0.0
 10
-87.47031630125355
 20
499.5203314045075
 30
0.0
 10
-85.79886389054012
 20
500.3291092765814
 30
0.0
 10
-84.83112511064117
 20
500.441802153535
 30
0.0
  0
SPLINE
  5
9F
330
1F
100
AcDbEntity
  8
0
  6
Continuous
 62
     7
370
    15
100
AcDbSpline
210
0.0
220
0.0
230
1.0
 70
     8
 71
     2
 72
     6
 73
     3
 74
     0
 42
0.000000001
 43
0.00000001
 40
0.5
 40
0.5
 40
0.5
 40
1.0
 40
1.0
 40
1.0
 10
-34.79298061280131
 20
505.8652866239352
 30
0.0
 10
-66.69926052990759
 20
502.3513169452799
 30
0.0
 10
-84.83112511064117
 20
500.441802153535
 30
0.0
  0
SPLINE
  5
A0
330
1F
100
AcDbEntity
  8
0
  6
Continuous
 62
     7
370
    15
100
AcDbSpline
210
0.0
220
0.0
230
1.0
 70
     8
 71
     2
 72
     8
 73
     5
 74
     0
 42
0.000000001
 43
0.00000001
 40
0.0
 40
0.0
 40
0.0
 40
0.25
 40
0.25
 40
0.5
 40
0.5
 40
0.5
 10
-34.79298061280131
 20
505.8652866239352
 30
0.0
 10
-16.64178610751637
 20
507.8643522401291
 30
0.0
 10
-9.777996791174393
 20
508.614721318037
 30
0.0
 10
3.76049643369035
 20
510.094788116302
 30
0.0
 10
15.24210965148354
 20
511.3170642346291
 30
0.0
  0
SPLINE
  5
A1
330
1F
100
AcDbEntity
  8
0
  6
Continuous
 62
     7
370
    15
100
AcDbSpline
210
0.0
220
0.0
230
1.0
 70
    11
 71
     3
 72
    38
 73
    34
 74
     0
 42
0.000000001
 43
0.00000001
 40
0.0624597430909739
 40
0.0624597430909739
 40
0.0624597430909739
 40
0.0624597430909739
 40
0.1249081269350922
 40
0.1249187533764111
 40
0.1873988663895221
 40
0.1874049337117996
 40
0.2499114388189141
 40
0.2499235703330041
 40
0.3124365054922174
 40
0.3124609223542508
 40
0.3749585962995788
 40
0.3749953690546355
 40
0.4374676989696585
 40
0.4375104655803963
 40
0.4999578214380791
 40
0.4999959287582031
 40
0.5624348696099162
 40
0.5624594658257774
 40
0.6249119727148792
 40
0.6249230640213324
 40
0.687401516413623
 40
0.6874078616133437
 40
0.749909315408866
 40
0.7499217267440582
 40
0.8124322459459853
 40
0.8124569904706638
 40
0.8749573251157124
 40
0.874994372160035
 40
0.937470256615437
 40
0.9375133598148452
 40
0.999961454882981
 40
1.0
 40
1.062459743090974
 40
1.062459743090974
 40
1.062459743090974
 40
1.062459743090974
 10
11.19242485788804
 20
285.0021655619265
 30
0.0
 10
11.19246685159876
 20
285.2667794246824
 30
0.0
 10
11.24728754813582
 20
285.5314289326533
 30
0.0
 10
11.45614199056295
 20
286.0178422325915
 30
0.0
 10
11.61025658845911
 20
286.2396443092796
 30
0.0
 10
11.99108208120621
 20
286.6074656247059
 30
0.0
 10
12.21791065344557
 20
286.7535358333975
 30
0.0
 10
12.70936281529331
 20
286.9505980093373
 30
0.0
 10
12.97415970060508
 20
287.0016327861582
 30
0.0
 10
13.50362048813079
 20
287.0020687547342
 30
0.0
 10
13.76858741407498
 20
286.9514761378883
 30
0.0
 10
14.26007192468101
 20
286.7547299635501
 30
0.0
 10
14.48699770598986
 20
286.6084433003468
 30
0.0
 10
14.8672269277963
 20
286.2401749707603
 30
0.0
 10
15.02090785628846
 20
286.017887595082
 30
0.0
 10
15.22883714090887
 20
285.5311525855384
 30
0.0
 10
15.28328582449765
 20
285.2663189666843
 30
0.0
 10
15.28324385069469
 20
284.7370212233006
 30
0.0
 10
15.22875499244464
 20
284.4722528068555
 30
0.0
 10
15.02071986043747
 20
283.9854819405236
 30
0.0
 10
14.86707922421208
 20
283.763330172442
 30
0.0
 10
14.48672277511766
 20
283.3950489391569
 30
0.0
 10
14.25989023408199
 20
283.2488613028102
 30
0.0
 10
13.7683095178053
 20
283.0521554282931
 30
0.0
 10
13.50338299016938
 20
283.0015972803437
 30
0.0
 10
12.9739198087583
 20
283.0021079918824
 30
0.0
 10
12.70907641814319
 20
283.0531793275313
 30
0.0
 10
12.21772427260631
 20
283.250283000097
 30
0.0
 10
11.99080430344663
 20
283.3964518024002
 30
0.0
 10
11.61011078611972
 20
283.7642542321469
 30
0.0
 10
11.45595342899836
 20
283.9861930890027
 30
0.0
 10
11.24716394344688
 20
284.472668852778
 30
0.0
 10
11.19238285653873
 20
284.7375035663927
 30
0.0
 10
11.19242485788804
 20
285.0021655619265
 30
0.0
  0
SPLINE
  5
A2
330
1F
100
AcDbEntity
  8
0
  6
Continuous
 62
     7
370
    15
100
AcDbSpline
210
0.0
220
0.0
230
1.0
 70
    11
 71
     3
 72
    38
 73
    34
 74
     0
 42
0.000000001
 43
0.00000001
 40
0.0624597430909672
 40
0.0624597430909672
 40
0.0624597430909672
 40
0.0624597430909672
 40
0.124908126975578
 40
0.1249187533764095
 40
0.1873988664300563
 40
0.1874049337117953
 40
0.2499114388595081
 40
0.2499235703329951
 40
0.3124365055328613
 40
0.3124609223542438
 40
0.3749585963402751
 40
0.3749953690546288
 40
0.4374676990104094
 40
0.4375104655803914
 40
0.4999578214788902
 40
0.4999959287581903
 40
0.56243486965078
 40
0.5624594658257687
 40
0.6249119727557896
 40
0.6249230640213169
 40
0.6874015164545879
 40
0.6874078616133383
 40
0.749909315449883
 40
0.7499217267440494
 40
0.8124322459870561
 40
0.8124569904706569
 40
0.8749573251568387
 40
0.874994372160026
 40
0.9374702566566203
 40
0.9375133598148386
 40
0.9999614549242141
 40
1.0
 40
1.062459743090967
 40
1.062459743090967
 40
1.062459743090967
 40
1.062459743090967
 10
11.19242485788832
 20
115.0021655614051
 30
0.0
 10
11.19246685152934
 20
115.2667794243345
 30
0.0
 10
11.24728754803304
 20
115.5314289323229
 30
0.0
 10
11.4561419904626
 20
116.0178422324492
 30
0.0
 10
11.61025658823561
 20
116.2396443090169
 30
0.0
 10
11.9910820810592
 20
116.6074656246108
 30
0.0
 10
12.21791065313892
 20
116.7535358332387
 30
0.0
 10
12.70936281512135
 20
116.9505980093044
 30
0.0
 10
12.974159700261
 20
117.0016327861249
 30
0.0
 10
13.50362048795856
 20
117.002068754767
 30
0.0
 10
13.7685874137427
 20
116.9514761379852
 30
0.0
 10
14.26007192453326
 20
116.7547299636454
 30
0.0
 10
14.4869977057181
 20
116.6084433005621
 30
0.0
 10
14.86722692769604
 20
116.2401749709052
 30
0.0
 10
15.02090785612027
 20
116.0178875953858
 30
0.0
 10
15.22883714087321
 20
115.5311525857112
 30
0.0
 10
15.28328582446198
 20
115.2663189670304
 30
0.0
 10
15.28324385073022
 20
114.7370212234738
 30
0.0
 10
15.22875499254828
 20
114.4722528071881
 30
0.0
 10
15.02071986053802
 20
113.985481940669
 30
0.0
 10
14.86707922443728
 20
113.7633301727082
 30
0.0
 10
14.48672277526627
 20
113.3950489392528
 30
0.0
 10
14.2598902343919
 20
113.2488613029707
 30
0.0
 10
13.76830951797905
 20
113.0521554283263
 30
0.0
 10
13.50338299051704
 20
113.0015972803768
 30
0.0
 10
12.97391980893216
 20
113.002107991849
 30
0.0
 10
12.70907641847876
 20
113.0531793274331
 30
0.0
 10
12.21772427275544
 20
113.2502830000011
 30
0.0
 10
11.99080430372115
 20
113.3964518021831
 30
0.0
 10
11.61011078622144
 20
113.7642542320006
 30
0.0
 10
11.45595342916941
 20
113.9861930886956
 30
0.0
 10
11.24716394355137
 20
114.472668852443
 30
0.0
 10
11.19238285660874
 20
114.7375035658694
 30
0.0
 10
11.19242485788832
 20
115.0021655614051
 30
0.0
  0
SPLINE
  5
A3
330
1F
100
AcDbEntity
  8
0
  6
Continuous
 62
     7
370
    15
100
AcDbSpline
210
0.0
220
0.0
230
1.0
 70
    11
 71
     3
 72
    38
 73
    34
 74
     0
 42
0.000000001
 43
0.00000001
 40
0.0624597430909608
 40
0.0624597430909608
 40
0.0624597430909608
 40
0.0624597430909608
 40
0.1249081269620971
 40
0.1249187533763936
 40
0.187398866416555
 40
0.1874049337117888
 40
0.2499114388459871
 40
0.2499235703329954
 40
0.3124365055193256
 40
0.3124609223542417
 40
0.3749585963267217
 40
0.3749953690546285
 40
0.4374676989968486
 40
0.4375104655803842
 40
0.4999578214652971
 40
0.4999959287581835
 40
0.5624348696371739
 40
0.5624594658257704
 40
0.6249119727421635
 40
0.624923064021325
 40
0.6874015164409428
 40
0.6874078616133361
 40
0.7499093154362234
 40
0.7499217267440503
 40
0.8124322459733772
 40
0.8124569904706548
 40
0.8749573251431388
 40
0.8749943721600248
 40
0.9374702566429012
 40
0.9375133598148349
 40
0.9999614549104733
 40
1.0
 40
1.062459743090961
 40
1.062459743090961
 40
1.062459743090961
 40
1.062459743090961
 10
11.19242485788825
 20
455.0021655615784
 30
0.0
 10
11.1924668515525
 20
455.2667794244499
 30
0.0
 10
11.24728754806729
 20
455.5314289324325
 30
0.0
 10
11.45614199049604
 20
456.0178422324962
 30
0.0
 10
11.61025658831004
 20
456.2396443091039
 30
0.0
 10
11.9910820811082
 20
456.6074656246422
 30
0.0
 10
12.21791065324105
 20
456.7535358332916
 30
0.0
 10
12.70936281517863
 20
456.9505980093152
 30
0.0
 10
12.97415970037559
 20
457.0016327861358
 30
0.0
 10
13.50362048801592
 20
457.0020687547557
 30
0.0
 10
13.76858741385337
 20
456.9514761379527
 30
0.0
 10
14.26007192458252
 20
456.7547299636134
 30
0.0
 10
14.48699770580859
 20
456.6084433004901
 30
0.0
 10
14.86722692772938
 20
456.2401749708567
 30
0.0
 10
15.02090785617623
 20
456.0178875952843
 30
0.0
 10
15.22883714088512
 20
455.5311525856533
 30
0.0
 10
15.28328582447393
 20
455.2663189669149
 30
0.0
 10
15.28324385071846
 20
454.737021223416
 30
0.0
 10
15.22875499251382
 20
454.4722528070771
 30
0.0
 10
15.02071986050457
 20
453.9854819406203
 30
0.0
 10
14.8670792243623
 20
453.7633301726194
 30
0.0
 10
14.48672277521682
 20
453.3950489392208
 30
0.0
 10
14.25989023428875
 20
453.248861302917
 30
0.0
 10
13.76830951792124
 20
453.052155428315
 30
0.0
 10
13.50338299040132
 20
453.0015972803657
 30
0.0
 10
12.97391980887432
 20
453.0021079918599
 30
0.0
 10
12.70907641836711
 20
453.0531793274655
 30
0.0
 10
12.21772427270586
 20
453.2502830000326
 30
0.0
 10
11.99080430362981
 20
453.3964518022549
 30
0.0
 10
11.6101107861876
 20
453.764254232049
 30
0.0
 10
11.45595342911247
 20
453.9861930887977
 30
0.0
 10
11.24716394351659
 20
454.4726688525544
 30
0.0
 10
11.19238285658546
 20
454.7375035660435
 30
0.0
 10
11.19242485788825
 20
455.0021655615784
 30
0.0
  0
LINE
  5
A4
330
1F
100
AcDbEntity
  8
0
  6
Continuous
 62
     7
370
    15
100
AcDbLine
 10
36.8139312956
 20
528.6157756158
 30
0.0
 11
36.8139312956
 21
41.3883991229
 31
0.0
  0
SPLINE
  5
A5
330
1F
100
AcDbEntity
  8
0
  6
Continuous
 62
     7
370
    15
100
AcDbSpline
210
0.0
220
0.0
230
1.0
 70
     8
 71
     3
 72
    20
 73
    16
 74
     0
 42
0.000000001
 43
0.00000001
 40
0.0
 40
0.0
 40
0.0
 40
0.0
 40
0.2499999999999994
 40
0.2499999999999994
 40
0.3124999999999993
 40
0.3124999999999993
 40
0.3749999999999992
 40
0.4999999999999991
 40
0.4999999999999991
 40
0.749999999999999
 40
0.749999999999999
 40
0.8124999999999993
 40
0.8124999999999993
 40
0.8749999999999994
 40
1.0
 40
1.0
 40
1.0
 40
1.0
 10
-103.8208842935873
 20
513.6144975182242
 30
0.0
 10
-93.26709455588018
 20
514.6757520368809
 30
0.0
 10
-81.5512709494684
 20
515.896173438776
 30
0.0
 10
-65.45394910557268
 20
517.6206587951929
 30
0.0
 10
-64.32998732495285
 20
517.7422154155977
 30
0.0
 10
-59.37057091755138
 20
518.278066001242
 30
0.0
 10
-51.27079953761753
 20
519.1560230321138
 30
0.0
 10
-41.18908785118895
 20
520.2565235202022
 30
0.0
 10
-18.38307740300538
 20
522.7542491060013
 30
0.0
 10
-5.718801514919644
 20
524.1344877240839
 30
0.0
 10
3.607834694812268
 20
525.1382262837577
 30
0.0
 10
7.898602095372132
 20
525.5980468759185
 30
0.0
 10
14.01847871565481
 20
526.248688925599
 30
0.0
 10
23.01117654594363
 20
527.1984873880625
 30
0.0
 10
31.44252307582666
 20
528.0697920143543
 30
0.0
 10
36.81393129556836
 20
528.6157756158057
 30
0.0
  0
LINE
  5
A6
330
1F
100
AcDbEntity
  8
0
  6
Continuous
 62
     7
370
    15
100
AcDbLine
 10
-103.8208842936
 20
56.3852759567
 30
0.0
 11
-103.8208842936
 21
513.6144975182
 31
0.0
  0
SPLINE
  5
A7
330
1F
100
AcDbEntity
  8
0
  6
Continuous
 62
     7
370
    15
100
AcDbSpline
210
0.0
220
0.0
230
1.0
 70
     8
 71
     3
 72
    19
 73
    15
 74
     0
 42
0.000000001
 43
0.00000001
 40
0.0
 40
0.0
 40
0.0
 40
0.0
 40
0.1250000000000002
 40
0.1875000000000002
 40
0.1875000000000002
 40
0.2500000000000002
 40
0.2500000000000002
 40
0.5000000000000001
 40
0.5000000000000001
 40
0.6250000000000001
 40
0.6250000000000001
 40
0.7500000000000002
 40
0.7500000000000002
 40
1.0
 40
1.0
 40
1.0
 40
1.0
 10
36.81393129556856
 20
41.38839912290726
 30
0.0
 10
31.56654966885879
 20
41.92089252504574
 30
0.0
 10
23.2262056351879
 20
42.78216649847716
 30
0.0
 10
14.18195421110751
 20
43.7372412772441
 30
0.0
 10
7.99602939718521
 20
44.39480241982993
 30
0.0
 10
3.603236362502732
 20
44.86546535685654
 30
0.0
 10
-5.725857771980529
 20
45.8691802666776
 30
0.0
 10
-18.39149400567994
 20
47.24916577133223
 30
0.0
 10
-41.19524574600688
 20
49.74589698343669
 30
0.0
 10
-47.91558854485838
 20
50.47925734584879
 30
0.0
 10
-59.59445858004649
 20
51.7482113207609
 30
0.0
 10
-62.36071893837151
 20
52.04903614527562
 30
0.0
 10
-81.30027020194578
 20
54.07738490238941
 30
0.0
 10
-93.01593073550949
 20
55.29742608873345
 30
0.0
 10
-103.8208842935873
 20
56.38527595667897
 30
0.0
  0
ENDSEC
  0
SECTION
  2
OBJECTS
  0
DICTIONARY
  5
C
330
0
100
AcDbDictionary
281
     1
  3
ACAD_GROUP
350
D
  3
ACAD_LAYOUT
350
1A
  3
ACAD_MLINESTYLE
350
17
  3
ACAD_PLOTSETTINGS
350
19
  3
ACAD_PLOTSTYLENAME
350
E
  3
ACAD_SCALELIST
350
47
  0
DICTIONARY
  5
D
102
{ACAD_REACTORS
330
C
102
}
330
C
100
AcDbDictionary
281
     1
  0
DICTIONARY
  5
1A
102
{ACAD_REACTORS
330
C
102
}
330
C
100
AcDbDictionary
281
     1
  3
Layout1
350
1E
  3
Layout2
350
26
  3
Model
350
22
  0
DICTIONARY
  5
17
102
{ACAD_REACTORS
330
C
102
}
330
C
100
AcDbDictionary
281
     1
  3
Standard
350
18
  0
DICTIONARY
  5
19
102
{ACAD_REACTORS
330
C
102
}
330
C
100
AcDbDictionary
281
     1
  0
ACDBDICTIONARYWDFLT
  5
E
102
{ACAD_REACTORS
330
C
102
}
330
C
100
AcDbDictionary
281
     1
  3
Normal
350
F
100
AcDbDictionaryWithDefault
340
F
  0
DICTIONARY
  5
47
102
{ACAD_REACTORS
330
C
102
}
330
C
100
AcDbDictionary
281
     1
  3
A0
350
48
  3
A1
350
49
  3
A2
350
4A
  3
A3
350
4B
  3
A4
350
4C
  3
A5
350
4D
  3
A6
350
4E
  3
A7
350
4F
  3
A8
350
50
  3
A9
350
51
  3
B0
350
52
  3
B1
350
53
  3
B2
350
54
  3
B3
350
55
  3
B4
350
56
  3
B5
350
57
  3
B6
350
58
  3
B7
350
59
  3
B8
350
5A
  3
B9
350
5B
  3
C0
350
5C
  3
C1
350
5D
  3
C2
350
5E
  3
C3
350
5F
  3
C4
350
60
  3
C5
350
61
  3
C6
350
62
  3
C7
350
63
  3
C8
350
64
  3
C9
350
65
  3
D0
350
66
  3
D1
350
67
  3
D2
350
68
  0
LAYOUT
  5
1E
102
{ACAD_REACTORS
330
1A
102
}
330
1A
100
AcDbPlotSettings
  1

  2
none_device
  4

  6

 40
0.0
 41
0.0
 42
0.0
 43
0.0
 44
0.0
 45
0.0
 46
0.0
 47
0.0
 48
0.0
 49
0.0
140
0.0
141
0.0
142
1.0
143
1.0
 70
   688
 72
     1
 73
     0
 74
     5
  7

 75
    16
147
1.0
148
0.0
149
0.0
100
AcDbLayout
  1
Layout1
 70
     1
 71
     1
 10
0.0
 20
0.0
 11
420.0
 21
297.0
 12
0.0
 22
0.0
 32
0.0
 14
1.0000000000E+20
 24
1.0000000000E+20
 34
1.0000000000E+20
 15
-1.0000000000E+20
 25
-1.0000000000E+20
 35
-1.0000000000E+20
146
0.0
 13
0.0
 23
0.0
 33
0.0
 16
1.0
 26
0.0
 36
0.0
 17
0.0
 27
1.0
 37
0.0
 76
     0
330
1B
  0
LAYOUT
  5
26
102
{ACAD_REACTORS
330
1A
102
}
330
1A
100
AcDbPlotSettings
  1

  2
none_device
  4

  6

 40
0.0
 41
0.0
 42
0.0
 43
0.0
 44
0.0
 45
0.0
 46
0.0
 47
0.0
 48
0.0
 49
0.0
140
0.0
141
0.0
142
1.0
143
1.0
 70
   688
 72
     1
 73
     0
 74
     5
  7

 75
    16
147
1.0
148
0.0
149
0.0
100
AcDbLayout
  1
Layout2
 70
     1
 71
     2
 10
0.0
 20
0.0
 11
0.0
 21
0.0
 12
0.0
 22
0.0
 32
0.0
 14
0.0
 24
0.0
 34
0.0
 15
0.0
 25
0.0
 35
0.0
146
0.0
 13
0.0
 23
0.0
 33
0.0
 16
1.0
 26
0.0
 36
0.0
 17
0.0
 27
1.0
 37
0.0
 76
     0
330
23
  0
LAYOUT
  5
22
102
{ACAD_REACTORS
330
1A
102
}
330
1A
100
AcDbPlotSettings
  1

  2
none_device
  4
ANSI_A_(11.00_x_8.50_Inches)
  6

 40
6.35
 41
19.05
 42
6.35000508
 43
19.05000254
 44
279.4
 45
215.9
 46
148.0475840815
 47
-36.1271120102
 48
0.0
 49
0.0
140
0.0
141
0.0
142
0.017271197
143
1.0
 70
  1696
 72
     0
 73
     0
 74
     0
  7

 75
     0
147
0.0179189148
148
-1300.4909072572
149
0.0
100
AcDbLayout
  1
Model
 70
     1
 71
     0
 10
0.0
 20
0.0
 11
420.0
 21
297.0
 12
0.0
 22
0.0
 32
0.0
 14
-103.8208842936
 24
41.3883991229
 34
0.0
 15
36.8139312956
 25
528.6157756158
 35
0.0
146
0.0
 13
0.0
 23
0.0
 33
0.0
 16
1.0
 26
0.0
 36
0.0
 17
0.0
 27
1.0
 37
0.0
 76
     0
330
1F
331
29
  0
MLINESTYLE
  5
18
102
{ACAD_REACTORS
330
17
102
}
330
17
100
AcDbMlineStyle
  2
Standard
 70
     0
  3

 62
   256
 51
90.0
 52
90.0
 71
     2
 49
0.5
 62
   256
  6
BYLAYER
 49
-0.5
 62
   256
  6
BYLAYER
  0
ACDBPLACEHOLDER
  5
F
102
{ACAD_REACTORS
330
E
102
}
330
E
  0
SCALE
  5
48
102
{ACAD_REACTORS
330
47
102
}
330
47
100
AcDbScale
 70
     0
300
1:1
140
1.0
141
1.0
290
     1
  0
SCALE
  5
49
102
{ACAD_REACTORS
330
47
102
}
330
47
100
AcDbScale
 70
     0
300
1:2
140
1.0
141
2.0
290
     0
  0
SCALE
  5
4A
102
{ACAD_REACTORS
330
47
102
}
330
47
100
AcDbScale
 70
     0
300
1:4
140
1.0
141
4.0
290
     0
  0
SCALE
  5
4B
102
{ACAD_REACTORS
330
47
102
}
330
47
100
AcDbScale
 70
     0
300
1:5
140
1.0
141
5.0
290
     0
  0
SCALE
  5
4C
102
{ACAD_REACTORS
330
47
102
}
330
47
100
AcDbScale
 70
     0
300
1:8
140
1.0
141
8.0
290
     0
  0
SCALE
  5
4D
102
{ACAD_REACTORS
330
47
102
}
330
47
100
AcDbScale
 70
     0
300
1:10
140
1.0
141
10.0
290
     0
  0
SCALE
  5
4E
102
{ACAD_REACTORS
330
47
102
}
330
47
100
AcDbScale
 70
     0
300
1:16
140
1.0
141
16.0
290
     0
  0
SCALE
  5
4F
102
{ACAD_REACTORS
330
47
102
}
330
47
100
AcDbScale
 70
     0
300
1:20
140
1.0
141
20.0
290
     0
  0
SCALE
  5
50
102
{ACAD_REACTORS
330
47
102
}
330
47
100
AcDbScale
 70
     0
300
1:30
140
1.0
141
30.0
290
     0
  0
SCALE
  5
51
102
{ACAD_REACTORS
330
47
102
}
330
47
100
AcDbScale
 70
     0
300
1:40
140
1.0
141
40.0
290
     0
  0
SCALE
  5
52
102
{ACAD_REACTORS
330
47
102
}
330
47
100
AcDbScale
 70
     0
300
1:50
140
1.0
141
50.0
290
     0
  0
SCALE
  5
53
102
{ACAD_REACTORS
330
47
102
}
330
47
100
AcDbScale
 70
     0
300
1:100
140
1.0
141
100.0
290
     0
  0
SCALE
  5
54
102
{ACAD_REACTORS
330
47
102
}
330
47
100
AcDbScale
 70
     0
300
2:1
140
2.0
141
1.0
290
     0
  0
SCALE
  5
55
102
{ACAD_REACTORS
330
47
102
}
330
47
100
AcDbScale
 70
     0
300
4:1
140
4.0
141
1.0
290
     0
  0
SCALE
  5
56
102
{ACAD_REACTORS
330
47
102
}
330
47
100
AcDbScale
 70
     0
300
8:1
140
8.0
141
1.0
290
     0
  0
SCALE
  5
57
102
{ACAD_REACTORS
330
47
102
}
330
47
100
AcDbScale
 70
     0
300
10:1
140
10.0
141
1.0
290
     0
  0
SCALE
  5
58
102
{ACAD_REACTORS
330
47
102
}
330
47
100
AcDbScale
 70
     0
300
100:1
140
100.0
141
1.0
290
     0
  0
SCALE
  5
59
102
{ACAD_REACTORS
330
47
102
}
330
47
100
AcDbScale
 70
     0
300
1/128" = 1'-0"
140
0.0078125
141
12.0
290
     0
  0
SCALE
  5
5A
102
{ACAD_REACTORS
330
47
102
}
330
47
100
AcDbScale
 70
     0
300
1/64" = 1'-0"
140
0.015625
141
12.0
290
     0
  0
SCALE
  5
5B
102
{ACAD_REACTORS
330
47
102
}
330
47
100
AcDbScale
 70
     0
300
1/32" = 1'-0"
140
0.03125
141
12.0
290
     0
  0
SCALE
  5
5C
102
{ACAD_REACTORS
330
47
102
}
330
47
100
AcDbScale
 70
     0
300
1/16" = 1'-0"
140
0.0625
141
12.0
290
     0
  0
SCALE
  5
5D
102
{ACAD_REACTORS
330
47
102
}
330
47
100
AcDbScale
 70
     0
300
3/32" = 1'-0"
140
0.09375
141
12.0
290
     0
  0
SCALE
  5
5E
102
{ACAD_REACTORS
330
47
102
}
330
47
100
AcDbScale
 70
     0
300
1/8" = 1'-0"
140
0.125
141
12.0
290
     0
  0
SCALE
  5
5F
102
{ACAD_REACTORS
330
47
102
}
330
47
100
AcDbScale
 70
     0
300
3/16" = 1'-0"
140
0.1875
141
12.0
290
     0
  0
SCALE
  5
60
102
{ACAD_REACTORS
330
47
102
}
330
47
100
AcDbScale
 70
     0
300
1/4" = 1'-0"
140
0.25
141
12.0
290
     0
  0
SCALE
  5
61
102
{ACAD_REACTORS
330
47
102
}
330
47
100
AcDbScale
 70
     0
300
3/8" = 1'-0"
140
0.375
141
12.0
290
     0
  0
SCALE
  5
62
102
{ACAD_REACTORS
330
47
102
}
330
47
100
AcDbScale
 70
     0
300
1/2" = 1'-0"
140
0.5
141
12.0
290
     0
  0
SCALE
  5
63
102
{ACAD_REACTORS
330
47
102
}
330
47
100
AcDbScale
 70
     0
300
3/4" = 1'-0"
140
0.75
141
12.0
290
     0
  0
SCALE
  5
64
102
{ACAD_REACTORS
330
47
102
}
330
47
100
AcDbScale
 70
     0
300
1" = 1'-0"
140
1.0
141
12.0
290
     0
  0
SCALE
  5
65
102
{ACAD_REACTORS
330
47
102
}
330
47
100
AcDbScale
 70
     0
300
1-1/2" = 1'-0"
140
1.5
141
12.0
290
     0
  0
SCALE
  5
66
102
{ACAD_REACTORS
330
47
102
}
330
47
100
AcDbScale
 70
     0
300
3" = 1'-0"
140
3.0
141
12.0
290
     0
  0
SCALE
  5
67
102
{ACAD_REACTORS
330
47
102
}
330
47
100
AcDbScale
 70
     0
300
6" = 1'-0"
140
6.0
141
12.0
290
     0
  0
SCALE
  5
68
102
{ACAD_REACTORS
330
47
102
}
330
47
100
AcDbScale
 70
     0
300
1'-0" = 1'-0"
140
12.0
141
12.0
290
     0
  0
ENDSEC
  0
EOF
