  0
SECTION
  2
HEADER
  9
$ACADVER
  1
AC1015
  9
$ACADMAINTVER
 70
     6
  9
$DWGCODEPAGE
  3
ANSI_1252
  9
$INSBASE
 10
0.0
 20
0.0
 30
0.0
  9
$EXTMIN
 10
-300.0
 20
0.0
 30
0.0
  9
$EXTMAX
 10
0.0
 20
260.0
 30
0.0
  9
$LIMMIN
 10
0.0
 20
0.0
  9
$LIMMAX
 10
420.0
 20
297.0
  9
$ORTHOMODE
 70
     0
  9
$REGENMODE
 70
     1
  9
$FILLMODE
 70
     1
  9
$QTEXTMODE
 70
     0
  9
$MIRRTEXT
 70
     1
  9
$LTSCALE
 40
1.0
  9
$ATTMODE
 70
     1
  9
$TEXTSIZE
 40
3.175
  9
$TRACEWID
 40
1.0
  9
$TEXTSTYLE
  7
Standard
  9
$CLAYER
  8
0
  9
$CELTYPE
  6
ByLayer
  9
$CECOLOR
 62
   256
  9
$CELTSCALE
 40
1.0
  9
$DISPSILH
 70
     0
  9
$DIMSCALE
 40
1.0
  9
$DIMASZ
 40
3.302
  9
$DIMEXO
 40
1.27
  9
$DIMDLI
 40
3.75
  9
$DIMRND
 40
0.0
  9
$DIMDLE
 40
0.0
  9
$DIMEXE
 40
3.175
  9
$DIMTP
 40
0.0
  9
$DIMTM
 40
0.0
  9
$DIMTXT
 40
3.175
  9
$DIMCEN
 40
2.5
  9
$DIMTSZ
 40
0.0
  9
$DIMTOL
 70
     0
  9
$DIMLIM
 70
     0
  9
$DIMTIH
 70
     1
  9
$DIMTOH
 70
     1
  9
$DIMSE1
 70
     0
  9
$DIMSE2
 70
     0
  9
$DIMTAD
 70
     0
  9
$DIMZIN
 70
     0
  9
$DIMBLK
  1

  9
$DIMASO
 70
     1
  9
$DIMSHO
 70
     1
  9
$DIMPOST
  1

  9
$DIMAPOST
  1

  9
$DIMALT
 70
     0
  9
$DIMALTD
 70
     3
  9
$DIMALTF
 40
0.0393700787
  9
$DIMLFAC
 40
1.0
  9
$DIMTOFL
 70
     1
  9
$DIMTVP
 40
0.0
  9
$DIMTIX
 70
     0
  9
$DIMSOXD
 70
     0
  9
$DIMSAH
 70
     0
  9
$DIMBLK1
  1

  9
$DIMBLK2
  1

  9
$DIMSTYLE
  2
ISO-25
  9
$DIMCLRD
 70
     0
  9
$DIMCLRE
 70
     0
  9
$DIMCLRT
 70
     0
  9
$DIMTFAC
 40
1.0
  9
$DIMGAP
 40
1.524
  9
$DIMJUST
 70
     0
  9
$DIMSD1
 70
     0
  9
$DIMSD2
 70
     0
  9
$DIMTOLJ
 70
     0
  9
$DIMTZIN
 70
     0
  9
$DIMALTZ
 70
     0
  9
$DIMALTTZ
 70
     0
  9
$DIMUPT
 70
     0
  9
$DIMDEC
 70
     2
  9
$DIMTDEC
 70
     2
  9
$DIMALTU
 70
     2
  9
$DIMALTTD
 70
     3
  9
$DIMTXSTY
  7
Standard
  9
$DIMAUNIT
 70
     0
  9
$DIMADEC
 70
     2
  9
$DIMALTRND
 40
0.0
  9
$DIMAZIN
 70
     0
  9
$DIMDSEP
 70
    44
  9
$DIMATFIT
 70
     3
  9
$DIMFRAC
 70
     0
  9
$DIMLDRBLK
  1

  9
$DIMLUNIT
 70
     2
  9
$DIMLWD
 70
    -2
  9
$DIMLWE
 70
    -2
  9
$DIMTMOVE
 70
     0
  9
$LUNITS
 70
     2
  9
$LUPREC
 70
     2
  9
$SKETCHINC
 40
1.0
  9
$FILLETRAD
 40
10.0
  9
$AUNITS
 70
     0
  9
$AUPREC
 70
     2
  9
$MENU
  1
.
  9
$ELEVATION
 40
0.0
  9
$PELEVATION
 40
0.0
  9
$THICKNESS
 40
0.0
  9
$LIMCHECK
 70
     0
  9
$CHAMFERA
 40
0.0
  9
$CHAMFERB
 40
0.0
  9
$CHAMFERC
 40
0.0
  9
$CHAMFERD
 40
0.0
  9
$SKPOLY
 70
     0
  9
$TDCREATE
 40
2458359.716654386
  9
$TDUCREATE
 40
2458359.633321053
  9
$TDUPDATE
 40
2458359.716691435
  9
$TDUUPDATE
 40
2458359.633358102
  9
$TDINDWG
 40
0.0000000116
  9
$TDUSRTIMER
 40
0.0000000116
  9
$USRTIMER
 70
     1
  9
$ANGBASE
 50
0.0
  9
$ANGDIR
 70
     0
  9
$PDMODE
 70
     0
  9
$PDSIZE
 40
-1.0
  9
$PLINEWID
 40
0.0
  9
$SPLFRAME
 70
     0
  9
$SPLINETYPE
 70
     6
  9
$SPLINESEGS
 70
     8
  9
$HANDSEED
  5
14B
  9
$SURFTAB1
 70
     6
  9
$SURFTAB2
 70
     6
  9
$SURFTYPE
 70
     6
  9
$SURFU
 70
     6
  9
$SURFV
 70
     6
  9
$UCSBASE
  2

  9
$UCSNAME
  2

  9
$UCSORG
 10
0.0
 20
0.0
 30
0.0
  9
$UCSXDIR
 10
1.0
 20
0.0
 30
0.0
  9
$UCSYDIR
 10
0.0
 20
1.0
 30
0.0
  9
$UCSORTHOREF
  2

  9
$UCSORTHOVIEW
 70
     0
  9
$UCSORGTOP
 10
0.0
 20
0.0
 30
0.0
  9
$UCSORGBOTTOM
 10
0.0
 20
0.0
 30
0.0
  9
$UCSORGLEFT
 10
0.0
 20
0.0
 30
0.0
  9
$UCSORGRIGHT
 10
0.0
 20
0.0
 30
0.0
  9
$UCSORGFRONT
 10
0.0
 20
0.0
 30
0.0
  9
$UCSORGBACK
 10
0.0
 20
0.0
 30
0.0
  9
$PUCSBASE
  2

  9
$PUCSNAME
  2

  9
$PUCSORG
 10
0.0
 20
0.0
 30
0.0
  9
$PUCSXDIR
 10
1.0
 20
0.0
 30
0.0
  9
$PUCSYDIR
 10
0.0
 20
1.0
 30
0.0
  9
$PUCSORTHOREF
  2

  9
$PUCSORTHOVIEW
 70
     0
  9
$PUCSORGTOP
 10
0.0
 20
0.0
 30
0.0
  9
$PUCSORGBOTTOM
 10
0.0
 20
0.0
 30
0.0
  9
$PUCSORGLEFT
 10
0.0
 20
0.0
 30
0.0
  9
$PUCSORGRIGHT
 10
0.0
 20
0.0
 30
0.0
  9
$PUCSORGFRONT
 10
0.0
 20
0.0
 30
0.0
  9
$PUCSORGBACK
 10
0.0
 20
0.0
 30
0.0
  9
$USERI1
 70
     0
  9
$USERI2
 70
     0
  9
$USERI3
 70
     0
  9
$USERI4
 70
     0
  9
$USERI5
 70
     0
  9
$USERR1
 40
0.0
  9
$USERR2
 40
0.0
  9
$USERR3
 40
0.0
  9
$USERR4
 40
0.0
  9
$USERR5
 40
0.0
  9
$WORLDVIEW
 70
     1
  9
$SHADEDGE
 70
     3
  9
$SHADEDIF
 70
    70
  9
$TILEMODE
 70
     1
  9
$MAXACTVP
 70
    64
  9
$PINSBASE
 10
0.0
 20
0.0
 30
0.0
  9
$PLIMCHECK
 70
     0
  9
$PEXTMIN
 10
1.0000000000E+20
 20
1.0000000000E+20
 30
1.0000000000E+20
  9
$PEXTMAX
 10
-1.0000000000E+20
 20
-1.0000000000E+20
 30
-1.0000000000E+20
  9
$PLIMMIN
 10
0.0
 20
0.0
  9
$PLIMMAX
 10
420.0
 20
297.0
  9
$UNITMODE
 70
     0
  9
$VISRETAIN
 70
     1
  9
$PLINEGEN
 70
     0
  9
$PSLTSCALE
 70
     1
  9
$TREEDEPTH
 70
  3020
  9
$CMLSTYLE
  2
Standard
  9
$CMLJUST
 70
     0
  9
$CMLSCALE
 40
20.0
  9
$PROXYGRAPHICS
 70
     1
  9
$MEASUREMENT
 70
     1
  9
$CELWEIGHT
370
    -1
  9
$ENDCAPS
280
     0
  9
$JOINSTYLE
280
     0
  9
$LWDISPLAY
290
     1
  9
$INSUNITS
 70
     4
  9
$HYPERLINKBASE
  1

  9
$STYLESHEET
  1

  9
$XEDIT
290
     1
  9
$CEPSNTYPE
380
     0
  9
$PSTYLEMODE
290
     1
  9
$FINGERPRINTGUID
  2
{D19B78AA-C68A-4C48-B572-6DF89F10E5E9}
  9
$VERSIONGUID
  2
{FAEB1C32-E019-11D5-929B-00C0DF256EC4}
  9
$EXTNAMES
290
     1
  9
$PSVPSCALE
 40
0.0
  9
$OLESTARTUP
290
     0
  0
ENDSEC
  0
SECTION
  2
CLASSES
  0
CLASS
  1
ACDBDICTIONARYWDFLT
  2
AcDbDictionaryWithDefault
  3
ObjectDBX Classes
 90
        0
280
     0
281
     0
  0
CLASS
  1
VISUALSTYLE
  2
AcDbVisualStyle
  3
ObjectDBX Classes
 90
     4095
280
     0
281
     0
  0
CLASS
  1
MATERIAL
  2
AcDbMaterial
  3
ObjectDBX Classes
 90
     1153
280
     0
281
     0
  0
CLASS
  1
SCALE
  2
AcDbScale
  3
ObjectDBX Classes
 90
     1153
280
     0
281
     0
  0
CLASS
  1
TABLESTYLE
  2
AcDbTableStyle
  3
ObjectDBX Classes
 90
     4095
280
     0
281
     0
  0
CLASS
  1
MLEADERSTYLE
  2
AcDbMLeaderStyle
  3
ACDB_MLEADERSTYLE_CLASS
 90
     4095
280
     0
281
     0
  0
CLASS
  1
SUN
  2
AcDbSun
  3
SCENEOE
 90
     1153
280
     0
281
     0
  0
CLASS
  1
ACDBPLACEHOLDER
  2
AcDbPlaceHolder
  3
ObjectDBX Classes
 90
        0
280
     0
281
     0
  0
CLASS
  1
LAYOUT
  2
AcDbLayout
  3
ObjectDBX Classes
 90
        0
280
     0
281
     0
  0
ENDSEC
  0
SECTION
  2
TABLES
  0
TABLE
  2
VPORT
  5
8
330
0
100
AcDbSymbolTable
 70
     1
  0
VPORT
  5
29
330
8
100
AcDbSymbolTableRecord
100
AcDbViewportTableRecord
  2
*Active
 70
     0
 10
0.0
 20
0.0
 11
1.0
 21
1.0
 12
-150.0
 22
130.0
 13
0.0
 23
0.0
 14
10.0
 24
10.0
 15
10.0
 25
10.0
 16
0.0
 26
0.0
 36
1.0
 17
0.0
 27
0.0
 37
0.0
 40
265.2
 41
1.1538461538
 42
50.0
 43
0.0
 44
0.0
 50
0.0
 51
0.0
 71
     0
 72
   100
 73
     1
 74
     3
 75
     0
 76
     0
 77
     0
 78
     0
281
     0
 65
     1
110
0.0
120
0.0
130
0.0
111
1.0
121
0.0
131
0.0
112
0.0
122
1.0
132
0.0
 79
     0
146
0.0
  0
ENDTAB
  0
TABLE
  2
LTYPE
  5
5
330
0
100
AcDbSymbolTable
 70
     6
  0
LTYPE
  5
14
330
5
100
AcDbSymbolTableRecord
100
AcDbLinetypeTableRecord
  2
ByBlock
 70
     0
  3

 72
    65
 73
     0
 40
0.0
  0
LTYPE
  5
15
330
5
100
AcDbSymbolTableRecord
100
AcDbLinetypeTableRecord
  2
ByLayer
 70
     0
  3

 72
    65
 73
     0
 40
0.0
  0
LTYPE
  5
16
330
5
100
AcDbSymbolTableRecord
100
AcDbLinetypeTableRecord
  2
Continuous
 70
     0
  3
Solid line
 72
    65
 73
     0
 40
0.0
  0
LTYPE
  5
6E
330
5
100
AcDbSymbolTableRecord
100
AcDbLinetypeTableRecord
  2
HIDDEN
 70
     0
  3
Hidden __ __ __ __ __ __ __ __ __ __ __ __ __ __
 72
    65
 73
     2
 40
1.905
 49
1.27
 74
     0
 49
-0.635
 74
     0
  0
LTYPE
  5
6F
330
5
100
AcDbSymbolTableRecord
100
AcDbLinetypeTableRecord
  2
PHANTOM
 70
     0
  3
Phantom ______  __  __  ______  __  __  ______
 72
    65
 73
     6
 40
12.7
 49
6.35
 74
     0
 49
-1.27
 74
     0
 49
1.27
 74
     0
 49
-1.27
 74
     0
 49
1.27
 74
     0
 49
-1.27
 74
     0
  0
LTYPE
  5
70
330
5
100
AcDbSymbolTableRecord
100
AcDbLinetypeTableRecord
  2
CENTER
 70
     0
  3
Center ____ _ ____ _ ____ _ ____ _ ____ _ ____
 72
    65
 73
     4
 40
10.16
 49
6.35
 74
     0
 49
-1.27
 74
     0
 49
1.27
 74
     0
 49
-1.27
 74
     0
  0
LTYPE
  5
71
330
5
100
AcDbSymbolTableRecord
100
AcDbLinetypeTableRecord
  2
CENTERX2
 70
     0
  3
Center (2x) ________  __  ________  __  _____
 72
    65
 73
     4
 40
20.32
 49
12.7
 74
     0
 49
-2.54
 74
     0
 49
2.54
 74
     0
 49
-2.54
 74
     0
  0
LTYPE
  5
72
330
5
100
AcDbSymbolTableRecord
100
AcDbLinetypeTableRecord
  2
DOT2
 70
     0
  3
Dot (.5x) ........................................
 72
    65
 73
     2
 40
0.635
 49
0.0
 74
     0
 49
-0.635
 74
     0
  0
ENDTAB
  0
TABLE
  2
LAYER
  5
2
330
0
100
AcDbSymbolTable
 70
     1
  0
LAYER
  5
10
330
2
100
AcDbSymbolTableRecord
100
AcDbLayerTableRecord
  2
0
 70
     0
 62
     7
  6
Continuous
370
    -3
390
F
  0
ENDTAB
  0
TABLE
  2
STYLE
  5
3
330
0
100
AcDbSymbolTable
 70
     1
  0
STYLE
  5
11
330
3
100
AcDbSymbolTableRecord
100
AcDbTextStyleTableRecord
  2
Standard
 70
     0
 40
0.0
 41
1.0
 50
0.0
 71
     0
 42
3.175
  3
txt
  4

  0
ENDTAB
  0
TABLE
  2
VIEW
  5
6
330
0
100
AcDbSymbolTable
 70
     0
  0
ENDTAB
  0
TABLE
  2
UCS
  5
7
330
0
100
AcDbSymbolTable
 70
     0
  0
ENDTAB
  0
TABLE
  2
APPID
  5
9
330
0
100
AcDbSymbolTable
 70
     1
  0
APPID
  5
12
330
9
100
AcDbSymbolTableRecord
100
AcDbRegAppTableRecord
  2
ACAD
 70
     0
  0
ENDTAB
  0
TABLE
  2
DIMSTYLE
  5
A
330
0
100
AcDbSymbolTable
 70
     1
100
AcDbDimStyleTable
  0
DIMSTYLE
105
27
330
A
100
AcDbSymbolTableRecord
100
AcDbDimStyleTableRecord
  2
ISO-25
 70
     0
 41
2.5
 42
0.625
 43
3.75
 44
1.25
 73
     0
 74
     0
 77
     1
 78
     8
140
2.5
141
2.5
143
0.0393700787
147
0.625
171
     3
172
     1
178
     0
271
     2
272
     2
274
     3
278
    44
283
     0
284
     8
340
11
  0
ENDTAB
  0
TABLE
  2
BLOCK_RECORD
  5
1
330
0
100
AcDbSymbolTable
 70
     1
  0
BLOCK_RECORD
  5
1F
330
1
100
AcDbSymbolTableRecord
100
AcDbBlockTableRecord
  2
*Model_Space
340
22
  0
BLOCK_RECORD
  5
1B
330
1
100
AcDbSymbolTableRecord
100
AcDbBlockTableRecord
  2
*Paper_Space
340
1E
  0
BLOCK_RECORD
  5
23
330
1
100
AcDbSymbolTableRecord
100
AcDbBlockTableRecord
  2
*Paper_Space0
340
26
  0
ENDTAB
  0
ENDSEC
  0
SECTION
  2
BLOCKS
  0
BLOCK
  5
20
330
1F
100
AcDbEntity
  8
0
100
AcDbBlockBegin
  2
*Model_Space
 70
     0
 10
0.0
 20
0.0
 30
0.0
  3
*Model_Space
  1

  0
ENDBLK
  5
21
330
1F
100
AcDbEntity
  8
0
100
AcDbBlockEnd
  0
BLOCK
  5
1C
330
1B
100
AcDbEntity
 67
     1
  8
0
100
AcDbBlockBegin
  2
*Paper_Space
 70
     0
 10
0.0
 20
0.0
 30
0.0
  3
*Paper_Space
  1

  0
ENDBLK
  5
1D
330
1B
100
AcDbEntity
 67
     1
  8
0
100
AcDbBlockEnd
  0
BLOCK
  5
24
330
23
100
AcDbEntity
  8
0
100
AcDbBlockBegin
  2
*Paper_Space0
 70
     0
 10
0.0
 20
0.0
 30
0.0
  3
*Paper_Space0
  1

  0
ENDBLK
  5
25
330
23
100
AcDbEntity
  8
0
100
AcDbBlockEnd
  0
ENDSEC
  0
SECTION
  2
ENTITIES
  0
SPLINE
  5
8E
330
1F
100
AcDbEntity
  8
0
  6
Continuous
 62
     7
370
    15
100
AcDbSpline
210
0.0
220
0.0
230
1.0
 70
     8
 71
     3
 72
    31
 73
    27
 74
     0
 42
0.000000001
 43
0.00000001
 40
0.0
 40
0.0
 40
0.0
 40
0.0
 40
0.0487321523579152
 40
0.0953485012431153
 40
0.1403608992954211
 40
0.1838316105949765
 40
0.2253467637724197
 40
0.2653623082453189
 40
0.3037834491514345
 40
0.3406959795033953
 40
0.376276093496076
 40
0.4105801893169052
 40
0.4435805497446498
 40
0.4757447902496708
 40
0.506727258015198
 40
0.5365920596195336
 40
0.5658732725846055
 40
0.5942017854652875
 40
0.648691616253804
 40
0.7011195634948515
 40
0.7519602653610304
 40
0.8021913309034768
 40
0.8517822656893324
 40
0.9009712082094895
 40
0.9502522741574563
 40
1.0
 40
1.0
 40
1.0
 40
1.0
 10
-221.1773308069166
 20
132.0108695652174
 30
0.0
 10
-221.1825659944473
 20
131.4333515960216
 30
0.0
 10
-221.1928090734131
 20
130.3033897507217
 30
0.0
 10
-221.2629460022783
 20
128.6412148453832
 30
0.0
 10
-221.3702932523279
 20
127.0436348031613
 30
0.0
 10
-221.5281842458281
 20
125.5106402946666
 30
0.0
 10
-221.7470218748901
 20
124.0452895505169
 30
0.0
 10
-221.9861243698988
 20
122.6438003086541
 30
0.0
 10
-222.2823736109374
 20
121.3085520060116
 30
0.0
 10
-222.6351913917152
 20
120.0420172223682
 30
0.0
 10
-223.0146340269389
 20
118.8342574425308
 30
0.0
 10
-223.4334852205258
 20
117.6889311942479
 30
0.0
 10
-223.8717755049977
 20
116.5942185938209
 30
0.0
 10
-224.3573949279707
 20
115.5628570516122
 30
0.0
 10
-224.8663605803412
 20
114.5849339176795
 30
0.0
 10
-225.4012552596659
 20
113.6597365604606
 30
0.0
 10
-225.9786632202305
 20
112.7979832072394
 30
0.0
 10
-226.7732763333098
 20
111.7329567299803
 30
0.0
 10
-227.8338086692486
 20
110.5259620372736
 30
0.0
 10
-229.2266488481779
 20
109.2738586386468
 30
0.0
 10
-230.702461702737
 20
108.2021758620381
 30
0.0
 10
-232.2825903265725
 20
107.361068342926
 30
0.0
 10
-233.9181869036766
 20
106.6884484204774
 30
0.0
 10
-235.5997755596946
 20
106.1808131089592
 30
0.0
 10
-237.3208515911831
 20
105.811469593186
 30
0.0
 10
-238.4905438739515
 20
105.7054390247003
 30
0.0
 10
-239.0781460243079
 20
105.6521739130435
 30
0.0
  0
SPLINE
  5
8F
330
1F
100
AcDbEntity
  8
0
  6
Continuous
 62
     7
370
    15
100
AcDbSpline
210
0.0
220
0.0
230
1.0
 70
     8
 71
     3
 72
    31
 73
    27
 74
     0
 42
0.000000001
 43
0.00000001
 40
0.0
 40
0.0
 40
0.0
 40
0.0
 40
0.0498109089787409
 40
0.0992038056358949
 40
0.1485254328333969
 40
0.1983633195303045
 40
0.2487723460970139
 40
0.2999577516440834
 40
0.3527738216527598
 40
0.4076923120128111
 40
0.4362487332516112
 40
0.4655671354315761
 40
0.4956766905125575
 40
0.5266985082070996
 40
0.5586870818229738
 40
0.5917293550463718
 40
0.6260770194991665
 40
0.6614744099632934
 40
0.6982032865679236
 40
0.7364398299724507
 40
0.7760351832906721
 40
0.8173664042821753
 40
0.8604166479260432
 40
0.9052476270496356
 40
0.9516842234087417
 40
1.0
 40
1.0
 40
1.0
 40
1.0
 10
-239.0781460243079
 20
158.3695652173913
 30
0.0
 10
-238.4903770218878
 20
158.3170970107166
 30
0.0
 10
-237.3197715647622
 20
158.212600909687
 30
0.0
 10
-235.5998000246131
 20
157.8310342447494
 30
0.0
 10
-233.9156142618926
 20
157.3186762080288
 30
0.0
 10
-232.284649810689
 20
156.6238352357367
 30
0.0
 10
-230.6992085926416
 20
155.7783725341469
 30
0.0
 10
-229.2265685929191
 20
154.6871047913943
 30
0.0
 10
-227.8336175378197
 20
153.4187596094401
 30
0.0
 10
-226.7724636224387
 20
152.1983037072528
 30
0.0
 10
-225.981420309608
 20
151.1227046192554
 30
0.0
 10
-225.3983633304007
 20
150.2590071557569
 30
0.0
 10
-224.8687362174635
 20
149.3278160121045
 30
0.0
 10
-224.3592554994836
 20
148.3504941301627
 30
0.0
 10
-223.8697074277252
 20
147.3237523202199
 30
0.0
 10
-223.4336444833601
 20
146.2308113706732
 30
0.0
 10
-223.0161339638467
 20
145.0879381406016
 30
0.0
 10
-222.6349856889786
 20
143.8864320841663
 30
0.0
 10
-222.2822802775478
 20
142.6283314504048
 30
0.0
 10
-221.9871811044012
 20
141.3041977619529
 30
0.0
 10
-221.7459394627083
 20
139.9143804777297
 30
0.0
 10
-221.5290156333415
 20
138.4629002720321
 30
0.0
 10
-221.369672336905
 20
136.9413890371446
 30
0.0
 10
-221.2630546096562
 20
135.3550422239877
 30
0.0
 10
-221.1929005706816
 20
133.7042007741762
 30
0.0
 10
-221.182588897065
 20
132.5827271914548
 30
0.0
 10
-221.1773308069166
 20
132.0108695652174
 30
0.0
  0
SPLINE
  5
91
330
1F
100
AcDbEntity
  8
0
  6
Continuous
 62
     7
370
    15
100
AcDbSpline
210
0.0
220
0.0
230
1.0
 70
     8
 71
     3
 72
    23
 73
    19
 74
     0
 42
0.000000001
 43
0.00000001
 40
0.0
 40
0.0
 40
0.0
 40
0.0
 40
0.0931062560227169
 40
0.181487250675223
 40
0.2652848452315552
 40
0.3445861079492468
 40
0.4201462875534909
 40
0.4915260462325945
 40
0.5590671821701971
 40
0.6228775446593577
 40
0.683013679423015
 40
0.7387630531319913
 40
0.7906042170676244
 40
0.8385559114531115
 40
0.8829491722785062
 40
0.9238348779360616
 40
0.9628945577334993
 40
1.0
 40
1.0
 40
1.0
 40
1.0
 10
-233.9830373286558
 20
132.0108695652174
 30
0.0
 10
-233.9885437237901
 20
132.5034574911397
 30
0.0
 10
-233.9992770574753
 20
133.463633876813
 30
0.0
 10
-234.0647092985128
 20
134.8661375490392
 30
0.0
 10
-234.1855386148159
 20
136.1914276085674
 30
0.0
 10
-234.3425281730198
 20
137.4447794390626
 30
0.0
 10
-234.5564751976545
 20
138.6229424318663
 30
0.0
 10
-234.8064775729624
 20
139.7304275483109
 30
0.0
 10
-235.1134179508878
 20
140.7589699528198
 30
0.0
 10
-235.4605136321777
 20
141.7114948510768
 30
0.0
 10
-235.843281719599
 20
142.5822349029644
 30
0.0
 10
-236.2387678727767
 20
143.3773058271974
 30
0.0
 10
-236.6640501068585
 20
144.0829252451475
 30
0.0
 10
-237.1051845404152
 20
144.7059700853916
 30
0.0
 10
-237.5606871015756
 20
145.2459722817535
 30
0.0
 10
-238.0444442618397
 20
145.6932861368851
 30
0.0
 10
-238.542254615067
 20
146.0661338355833
 30
0.0
 10
-238.9025974352791
 20
146.2480113760147
 30
0.0
 10
-239.0781460243079
 20
146.3366168478261
 30
0.0
  0
SPLINE
  5
92
330
1F
100
AcDbEntity
  8
0
  6
Continuous
 62
     7
370
    15
100
AcDbSpline
210
0.0
220
0.0
230
1.0
 70
     8
 71
     3
 72
    23
 73
    19
 74
     0
 42
0.000000001
 43
0.00000001
 40
0.0
 40
0.0
 40
0.0
 40
0.0
 40
0.0371058035709144
 40
0.0761658637016351
 40
0.117051967472917
 40
0.1614456605659273
 40
0.2093978218683347
 40
0.261239490593566
 40
0.3169894071472992
 40
0.3771261274706353
 40
0.4409371112962945
 40
0.508991879898431
 40
0.5798511178242719
 40
0.655412033175744
 40
0.7347140680684711
 40
0.8190453696904819
 40
0.9068928373797828
 40
1.0
 40
1.0
 40
1.0
 40
1.0
 10
-239.0781460243079
 20
117.6851222826087
 30
0.0
 10
-238.9025974321461
 20
117.7737277535298
 30
0.0
 10
-238.5422546055029
 20
117.9556052921338
 30
0.0
 10
-238.0444443032535
 20
118.3284530053176
 30
0.0
 10
-237.5606869324945
 20
118.7757668006359
 30
0.0
 10
-237.1051852546331
 20
119.3157692479924
 30
0.0
 10
-236.6640471110003
 20
119.9388130339968
 30
0.0
 10
-236.2387804227612
 20
120.644436869388
 30
0.0
 10
-235.8432293866445
 20
121.4394893567589
 30
0.0
 10
-235.4607310570127
 20
122.3103060618817
 30
0.0
 10
-235.1115992916828
 20
123.2650682978052
 30
0.0
 10
-234.8094146147783
 20
124.2949279796763
 30
0.0
 10
-234.5549142865662
 20
125.4012487971563
 30
0.0
 10
-234.3428956512933
 20
126.5770405245362
 30
0.0
 10
-234.1848469395709
 20
127.8330667600001
 30
0.0
 10
-234.0655537883131
 20
129.1584996682826
 30
0.0
 10
-233.9989671698493
 20
130.5609145144122
 30
0.0
 10
-233.9884491823063
 20
131.5182755437591
 30
0.0
 10
-233.9830373286557
 20
132.0108695652174
 30
0.0
  0
SPLINE
  5
9C
330
1F
100
AcDbEntity
  8
0
  6
Continuous
 62
     7
370
    15
100
AcDbSpline
210
0.0
220
0.0
230
1.0
 70
     8
 71
     3
 72
    23
 73
    19
 74
     0
 42
0.000000001
 43
0.00000001
 40
0.0
 40
0.0
 40
0.0
 40
0.0
 40
0.0929794352074807
 40
0.1811863132798665
 40
0.2652573194006193
 40
0.3447671878544146
 40
0.4199427654760281
 40
0.4914068713958568
 40
0.5588195174077917
 40
0.622920144020791
 40
0.6827494029436861
 40
0.7388282948779646
 40
0.7899130215115301
 40
0.8380444776090071
 40
0.8826149116156985
 40
0.9242751914600114
 40
0.9631946497746245
 40
1.0
 40
1.0
 40
1.0
 40
1.0
 10
-246.7887438503949
 20
132.0108695652174
 30
0.0
 10
-246.7834902284038
 20
131.523922572856
 30
0.0
 10
-246.7732526484722
 20
130.5750231725551
 30
0.0
 10
-246.7042581368046
 20
129.1871832804352
 30
0.0
 10
-246.5950082995105
 20
127.8729186453717
 30
0.0
 10
-246.4467104415748
 20
126.6308370579755
 30
0.0
 10
-246.2402165238158
 20
125.4641100377323
 30
0.0
 10
-245.997304059284
 20
124.3692857475134
 30
0.0
 10
-245.7079668857666
 20
123.3457850492122
 30
0.0
 10
-245.3801172966088
 20
122.3982103842566
 30
0.0
 10
-245.0136735714416
 20
121.5287877647226
 30
0.0
 10
-244.624654616404
 20
120.7453293591971
 30
0.0
 10
-244.2275290513736
 20
120.034241024604
 30
0.0
 10
-243.7901079686838
 20
119.4204248930086
 30
0.0
 10
-243.3537383645591
 20
118.8669726305763
 30
0.0
 10
-242.8835893263623
 20
118.4085271361401
 30
0.0
 10
-242.4001952437132
 20
118.0245366589958
 30
0.0
 10
-242.0504474980962
 20
117.8361357534539
 30
0.0
 10
-241.8804558069166
 20
117.7445652173913
 30
0.0
  0
SPLINE
  5
9D
330
1F
100
AcDbEntity
  8
0
  6
Continuous
 62
     7
370
    15
100
AcDbSpline
210
0.0
220
0.0
230
1.0
 70
     8
 71
     3
 72
    23
 73
    19
 74
     0
 42
0.000000001
 43
0.00000001
 40
0.0
 40
0.0
 40
0.0
 40
0.0
 40
0.0368189277934292
 40
0.0760854693516121
 40
0.1177611177573237
 40
0.161929668731533
 40
0.2105231071917239
 40
0.2625676623835172
 40
0.3186672419343244
 40
0.3790171694133898
 40
0.443141442877046
 40
0.5110993347867447
 40
0.5820623735650009
 40
0.6572656836090724
 40
0.7368048834139687
 40
0.8203681121668103
 40
0.9080674886918172
 40
1.0
 40
1.0
 40
1.0
 40
1.0
 10
-241.8804558069166
 20
146.2771739130435
 30
0.0
 10
-242.050828162081
 20
146.1861007489006
 30
0.0
 10
-242.4028987242644
 20
145.997900145178
 30
0.0
 10
-242.8810732542952
 20
145.6041454988862
 30
0.0
 10
-243.3511237015495
 20
145.1471784876312
 30
0.0
 10
-243.7951132073535
 20
144.5994955925707
 30
0.0
 10
-244.2295426370943
 20
143.9768629670517
 30
0.0
 10
-244.619826166699
 20
143.2539856231704
 30
0.0
 10
-245.0165784193949
 20
142.4659370975091
 30
0.0
 10
-245.3775911386354
 20
141.5913377018663
 30
0.0
 10
-245.7101467957662
 20
140.6398302370054
 30
0.0
 10
-245.9943469612541
 20
139.614873057203
 30
0.0
 10
-246.2417380142913
 20
138.5211994837356
 30
0.0
 10
-246.4464500234791
 20
137.3568632810492
 30
0.0
 10
-246.594575365706
 20
136.117660301556
 30
0.0
 10
-246.7043362720712
 20
134.8090940818401
 30
0.0
 10
-246.7730912639227
 20
133.4325634207981
 30
0.0
 10
-246.7834449909442
 20
132.4921546190322
 30
0.0
 10
-246.7887438503949
 20
132.0108695652174
 30
0.0
  0
SPLINE
  5
9F
330
1F
100
AcDbEntity
  8
0
  6
Continuous
 62
     7
370
    15
100
AcDbSpline
210
0.0
220
0.0
230
1.0
 70
     8
 71
     3
 72
    31
 73
    27
 74
     0
 42
0.000000001
 43
0.00000001
 40
0.0
 40
0.0
 40
0.0
 40
0.0
 40
0.0481011446342144
 40
0.0945533831059497
 40
0.1391516422079192
 40
0.1822000111173444
 40
0.223692165025537
 40
0.2635485575661438
 40
0.3017089690765749
 40
0.338576788533661
 40
0.3741692566371034
 40
0.40862490766721
 40
0.4417595176936414
 40
0.4738226390688077
 40
0.5049049142721828
 40
0.5350607861799858
 40
0.5642767179481032
 40
0.5928481749426565
 40
0.6477542532729169
 40
0.7004953432631207
 40
0.7517178646533219
 40
0.802217240380674
 40
0.8522026859300856
 40
0.90140922918018
 40
0.9506040185262161
 40
1.0
 40
1.0
 40
1.0
 40
1.0
 10
-259.5434992851776
 20
132.0108695652174
 30
0.0
 10
-259.5382402660495
 20
132.5770721453162
 30
0.0
 10
-259.5279025068513
 20
133.6900678937289
 30
0.0
 10
-259.457537054805
 20
135.3266790525182
 30
0.0
 10
-259.352887124888
 20
136.9020600259641
 30
0.0
 10
-259.1839197836236
 20
138.4128516738255
 30
0.0
 10
-259.0011028122587
 20
139.8661748656755
 30
0.0
 10
-258.7370285717151
 20
141.248427875294
 30
0.0
 10
-258.454966055427
 20
142.5712141359541
 30
0.0
 10
-258.1136480313196
 20
143.8285080855207
 30
0.0
 10
-257.7277460025032
 20
145.0266530622372
 30
0.0
 10
-257.3217092811066
 20
146.1713882202223
 30
0.0
 10
-256.8934345254457
 20
147.2640288397548
 30
0.0
 10
-256.4123592435948
 20
148.2907692261076
 30
0.0
 10
-255.9121108112255
 20
149.2685780095866
 30
0.0
 10
-255.3890158840445
 20
150.1965341219723
 30
0.0
 10
-254.8254459215235
 20
151.0656070067476
 30
0.0
 10
-254.0439428737199
 20
152.138069355401
 30
0.0
 10
-252.9954293151736
 20
153.3555845268204
 30
0.0
 10
-251.6310860330065
 20
154.639110295549
 30
0.0
 10
-250.1722958160211
 20
155.732784903575
 30
0.0
 10
-248.6075317813007
 20
156.6023836216692
 30
0.0
 10
-246.9856135797067
 20
157.2979633482592
 30
0.0
 10
-245.3183236053776
 20
157.8256811472777
 30
0.0
 10
-243.6154359404703
 20
158.2004700450635
 30
0.0
 10
-242.4595687694363
 20
158.3131235300771
 30
0.0
 10
-241.8804558069166
 20
158.3695652173913
 30
0.0
  0
SPLINE
  5
A0
330
1F
100
AcDbEntity
  8
0
  6
Continuous
 62
     7
370
    15
100
AcDbSpline
210
0.0
220
0.0
230
1.0
 70
     8
 71
     3
 72
    31
 73
    27
 74
     0
 42
0.000000001
 43
0.00000001
 40
0.0
 40
0.0
 40
0.0
 40
0.0
 40
0.0492755349774832
 40
0.0983278334865501
 40
0.1472984354131835
 40
0.1969101351769339
 40
0.2469652001802139
 40
0.297806540935387
 40
0.350121201171944
 40
0.4049239296588177
 40
0.4334416065311055
 40
0.4626025450805399
 40
0.492701654518073
 40
0.5237254234800253
 40
0.555728192364659
 40
0.5888004330348909
 40
0.6231912281101373
 40
0.6587167004252058
 40
0.6955151234969963
 40
0.7338381918583324
 40
0.7738556473396196
 40
0.815507596635211
 40
0.8589523057595077
 40
0.904184952382484
 40
0.9510293980733668
 40
1.0
 40
1.0
 40
1.0
 40
1.0
 10
-241.8804558069166
 20
105.6521739130435
 30
0.0
 10
-242.4595517074544
 20
105.7056310127087
 30
0.0
 10
-243.6151199890943
 20
105.8123030315304
 30
0.0
 10
-245.3166692435853
 20
106.1805263047217
 30
0.0
 10
-246.9833045684328
 20
106.690409534848
 30
0.0
 10
-248.6063010915574
 20
107.3593189064579
 30
0.0
 10
-250.1738819165184
 20
108.2023412017077
 30
0.0
 10
-251.6297525587016
 20
109.2811254938276
 30
0.0
 10
-253.0007348816029
 20
110.5473099207769
 30
0.0
 10
-254.0435749503153
 20
111.765165816008
 30
0.0
 10
-254.8255186276577
 20
112.837170789911
 30
0.0
 10
-255.3889955057383
 20
113.7063402656726
 30
0.0
 10
-255.9121166457772
 20
114.6342692985076
 30
0.0
 10
-256.412357144469
 20
115.6120858087171
 30
0.0
 10
-256.8934369241263
 20
116.6388235162915
 30
0.0
 10
-257.3217014920154
 20
117.731466893208
 30
0.0
 10
-257.7277762851737
 20
118.8761933705018
 30
0.0
 10
-258.1135293746345
 20
120.0743718235817
 30
0.0
 10
-258.4561589473575
 20
121.3342041977472
 30
0.0
 10
-258.7368239614747
 20
122.6629949151556
 30
0.0
 10
-259.0010819401315
 20
124.053694007162
 30
0.0
 10
-259.1844504616667
 20
125.5182622876399
 30
0.0
 10
-259.3532596610766
 20
127.0460893958441
 30
0.0
 10
-259.4571705438757
 20
128.6413146449087
 30
0.0
 10
-259.528211601214
 20
130.3033630950499
 30
0.0
 10
-259.5383285580501
 20
131.4333425803195
 30
0.0
 10
-259.5434992851776
 20
132.0108695652174
 30
0.0
  0
CIRCLE
  5
B6
330
1F
100
AcDbEntity
  8
0
  6
Continuous
 62
     7
370
    15
100
AcDbCircle
 10
-10.0
 20
250.0
 30
0.0
 40
2.750000000000012
  0
CIRCLE
  5
C7
330
1F
100
AcDbEntity
  8
0
  6
Continuous
 62
     7
370
    15
100
AcDbCircle
 10
-290.0
 20
250.0
 30
0.0
 40
2.749999999999943
  0
CIRCLE
  5
C8
330
1F
100
AcDbEntity
  8
0
  6
Continuous
 62
     7
370
    15
100
AcDbCircle
 10
-10.0
 20
10.0
 30
0.0
 40
2.749999999999992
  0
CIRCLE
  5
C9
330
1F
100
AcDbEntity
  8
0
  6
Continuous
 62
     7
370
    15
100
AcDbCircle
 10
-290.0
 20
10.0
 30
0.0
 40
2.749999999999943
  0
LINE
  5
E5
330
1F
100
AcDbEntity
  8
0
  6
Continuous
 62
     7
370
    15
100
AcDbLine
 10
-63.8081052634
 20
137.1824048913
 30
0.0
 11
-69.5570862417
 21
127.6205842391
 31
0.0
  0
LINE
  5
E6
330
1F
100
AcDbEntity
  8
0
  6
Continuous
 62
     7
370
    15
100
AcDbLine
 10
-70.3977791765
 20
148.0434782609
 30
0.0
 11
-63.8081052634
 21
137.1824048913
 31
0.0
  0
LINE
  5
E7
330
1F
100
AcDbEntity
  8
0
  6
Continuous
 62
     7
370
    15
100
AcDbLine
 10
-84.1375889591
 20
148.0434782609
 30
0.0
 11
-70.3977791765
 21
148.0434782609
 31
0.0
  0
LINE
  5
E8
330
1F
100
AcDbEntity
  8
0
  6
Continuous
 62
     7
370
    15
100
AcDbLine
 10
-76.426991133
 20
137.2418478261
 30
0.0
 11
-84.1375889591
 21
148.0434782609
 31
0.0
  0
LINE
  5
E9
330
1F
100
AcDbEntity
  8
0
  6
Continuous
 62
     7
370
    15
100
AcDbLine
 10
-69.5570862417
 20
127.6205842391
 30
0.0
 11
-76.426991133
 21
137.2418478261
 31
0.0
  0
LINE
  5
EA
330
1F
100
AcDbEntity
  8
0
  6
Continuous
 62
     7
370
    15
100
AcDbLine
 10
-107.950428633
 20
107.8260869565
 30
0.0
 11
-107.950428633
 21
117.0652173913
 31
0.0
  0
LINE
  5
EB
330
1F
100
AcDbEntity
  8
0
  6
Continuous
 62
     7
370
    15
100
AcDbLine
 10
-91.1280780895
 20
107.8260869565
 30
0.0
 11
-107.950428633
 21
107.8260869565
 31
0.0
  0
LINE
  5
EC
330
1F
100
AcDbEntity
  8
0
  6
Continuous
 62
     7
370
    15
100
AcDbLine
 10
-91.1280780895
 20
117.0652173913
 30
0.0
 11
-91.1280780895
 21
107.8260869565
 31
0.0
  0
LINE
  5
ED
330
1F
100
AcDbEntity
  8
0
  6
Continuous
 62
     7
370
    15
100
AcDbLine
 10
-107.950428633
 20
117.0652173913
 30
0.0
 11
-91.1280780895
 21
117.0652173913
 31
0.0
  0
LINE
  5
EE
330
1F
100
AcDbEntity
  8
0
  6
Continuous
 62
     7
370
    15
100
AcDbLine
 10
-152.4324259156
 20
124.6739130435
 30
0.0
 11
-149.4942465678
 21
124.6739130435
 31
0.0
  0
LINE
  5
EF
330
1F
100
AcDbEntity
  8
0
  6
Continuous
 62
     7
370
    15
100
AcDbLine
 10
-155.4300481982
 20
115.4347826087
 30
0.0
 11
-152.4324259156
 21
124.6739130435
 31
0.0
  0
LINE
  5
F0
330
1F
100
AcDbEntity
  8
0
  6
Continuous
 62
     7
370
    15
100
AcDbLine
 10
-146.5900346113
 20
115.4347826087
 30
0.0
 11
-155.4300481982
 21
115.4347826087
 31
0.0
  0
LINE
  5
F1
330
1F
100
AcDbEntity
  8
0
  6
Continuous
 62
     7
370
    15
100
AcDbLine
 10
-144.21231722
 20
107.8260869565
 30
0.0
 11
-146.5900346113
 21
115.4347826087
 31
0.0
  0
LINE
  5
F2
330
1F
100
AcDbEntity
  8
0
  6
Continuous
 62
     7
370
    15
100
AcDbLine
 10
-130.6508362417
 20
107.8260869565
 30
0.0
 11
-144.21231722
 21
107.8260869565
 31
0.0
  0
LINE
  5
F3
330
1F
100
AcDbEntity
  8
0
  6
Continuous
 62
     7
370
    15
100
AcDbLine
 10
-145.18887972
 20
148.0434782609
 30
0.0
 11
-130.6508362417
 21
107.8260869565
 31
0.0
  0
LINE
  5
F4
330
1F
100
AcDbEntity
  8
0
  6
Continuous
 62
     7
370
    15
100
AcDbLine
 10
-145.282290046
 20
148.0434782609
 30
0.0
 11
-145.18887972
 21
148.0434782609
 31
0.0
  0
LINE
  5
F5
330
1F
100
AcDbEntity
  8
0
  6
Continuous
 62
     7
370
    15
100
AcDbLine
 10
-150.9378606982
 20
129.2680027174
 30
0.0
 11
-145.282290046
 21
148.0434782609
 31
0.0
  0
LINE
  5
F6
330
1F
100
AcDbEntity
  8
0
  6
Continuous
 62
     7
370
    15
100
AcDbLine
 10
-149.4942465678
 20
124.6739130435
 30
0.0
 11
-150.9378606982
 21
129.2680027174
 31
0.0
  0
LINE
  5
F7
330
1F
100
AcDbEntity
  8
0
  6
Continuous
 62
     7
370
    15
100
AcDbLine
 10
-196.3199938504
 20
123.0434782609
 30
0.0
 11
-196.3199938504
 21
132.2826086957
 31
0.0
  0
LINE
  5
F8
330
1F
100
AcDbEntity
  8
0
  6
Continuous
 62
     7
370
    15
100
AcDbLine
 10
-180.2024666765
 20
123.0434782609
 30
0.0
 11
-196.3199938504
 21
123.0434782609
 31
0.0
  0
LINE
  5
F9
330
1F
100
AcDbEntity
  8
0
  6
Continuous
 62
     7
370
    15
100
AcDbLine
 10
-180.2024666765
 20
132.2826086957
 30
0.0
 11
-180.2024666765
 21
123.0434782609
 31
0.0
  0
LINE
  5
FA
330
1F
100
AcDbEntity
  8
0
  6
Continuous
 62
     7
370
    15
100
AcDbLine
 10
-196.3199938504
 20
132.2826086957
 30
0.0
 11
-180.2024666765
 21
132.2826086957
 31
0.0
  0
LINE
  5
FB
330
1F
100
AcDbEntity
  8
0
  6
Continuous
 62
     7
370
    15
100
AcDbLine
 10
-211.9365020026
 20
148.0434782609
 30
0.0
 11
-199.1307954808
 21
148.0434782609
 31
0.0
  0
LINE
  5
FC
330
1F
100
AcDbEntity
  8
0
  6
Continuous
 62
     7
370
    15
100
AcDbLine
 10
-211.9365020026
 20
107.8260869565
 30
0.0
 11
-211.9365020026
 21
148.0434782609
 31
0.0
  0
LINE
  5
FD
330
1F
100
AcDbEntity
  8
0
  6
Continuous
 62
     7
370
    15
100
AcDbLine
 10
-199.1307954808
 20
107.8260869565
 30
0.0
 11
-211.9365020026
 21
107.8260869565
 31
0.0
  0
LINE
  5
FE
330
1F
100
AcDbEntity
  8
0
  6
Continuous
 62
     7
370
    15
100
AcDbLine
 10
-199.1307954808
 20
148.0434782609
 30
0.0
 11
-199.1307954808
 21
107.8260869565
 31
0.0
  0
LINE
  5
FF
330
1F
100
AcDbEntity
  8
0
  6
Continuous
 62
     7
370
    15
100
AcDbLine
 10
-239.0781460243
 20
105.652173913
 30
0.0
 11
-239.0781460243
 21
117.6851222826
 31
0.0
  0
LINE
  5
100
330
1F
100
AcDbEntity
  8
0
  6
Continuous
 62
     7
370
    15
100
AcDbLine
 10
-239.0781460243
 20
146.3366168478
 30
0.0
 11
-239.0781460243
 21
158.3695652174
 31
0.0
  0
LINE
  5
101
330
1F
100
AcDbEntity
  8
0
  6
Continuous
 62
     7
370
    15
100
AcDbLine
 10
0.0
 20
10.0
 30
0.0
 11
0.0
 21
250.0
 31
0.0
  0
LINE
  5
102
330
1F
100
AcDbEntity
  8
0
  6
Continuous
 62
     7
370
    15
100
AcDbLine
 10
-290.0
 20
0.0
 30
0.0
 11
-10.0
 21
0.0
 31
0.0
  0
LINE
  5
103
330
1F
100
AcDbEntity
  8
0
  6
Continuous
 62
     7
370
    15
100
AcDbLine
 10
-300.0
 20
250.0
 30
0.0
 11
-300.0
 21
10.0
 31
0.0
  0
LINE
  5
104
330
1F
100
AcDbEntity
  8
0
  6
Continuous
 62
     7
370
    15
100
AcDbLine
 10
-10.0
 20
260.0
 30
0.0
 11
-290.0
 21
260.0
 31
0.0
  0
LINE
  5
105
330
1F
100
AcDbEntity
  8
0
  6
Continuous
 62
     7
370
    15
100
AcDbLine
 10
-241.8804558069
 20
117.7445652174
 30
0.0
 11
-241.8804558069
 21
105.652173913
 31
0.0
  0
LINE
  5
106
330
1F
100
AcDbEntity
  8
0
  6
Continuous
 62
     7
370
    15
100
AcDbLine
 10
-241.8804558069
 20
158.3695652174
 30
0.0
 11
-241.8804558069
 21
146.277173913
 31
0.0
  0
LINE
  5
107
330
1F
100
AcDbEntity
  8
0
  6
Continuous
 62
     7
370
    15
100
AcDbLine
 10
-196.3199938504
 20
138.8043478261
 30
0.0
 11
-196.3199938504
 21
148.0434782609
 31
0.0
  0
LINE
  5
108
330
1F
100
AcDbEntity
  8
0
  6
Continuous
 62
     7
370
    15
100
AcDbLine
 10
-177.2048443939
 20
138.8043478261
 30
0.0
 11
-196.3199938504
 21
138.8043478261
 31
0.0
  0
LINE
  5
109
330
1F
100
AcDbEntity
  8
0
  6
Continuous
 62
     7
370
    15
100
AcDbLine
 10
-177.2048443939
 20
148.0434782609
 30
0.0
 11
-177.2048443939
 21
138.8043478261
 31
0.0
  0
LINE
  5
10A
330
1F
100
AcDbEntity
  8
0
  6
Continuous
 62
     7
370
    15
100
AcDbLine
 10
-196.3199938504
 20
148.0434782609
 30
0.0
 11
-177.2048443939
 21
148.0434782609
 31
0.0
  0
LINE
  5
10B
330
1F
100
AcDbEntity
  8
0
  6
Continuous
 62
     7
370
    15
100
AcDbLine
 10
-148.2289612417
 20
148.0434782609
 30
0.0
 11
-152.4324259156
 21
134.3291440217
 31
0.0
  0
LINE
  5
10C
330
1F
100
AcDbEntity
  8
0
  6
Continuous
 62
     7
370
    15
100
AcDbLine
 10
-159.6335128721
 20
148.0434782609
 30
0.0
 11
-148.2289612417
 21
148.0434782609
 31
0.0
  0
LINE
  5
10D
330
1F
100
AcDbEntity
  8
0
  6
Continuous
 62
     7
370
    15
100
AcDbLine
 10
-166.9704693939
 20
127.5866168478
 30
0.0
 11
-159.6335128721
 21
148.0434782609
 31
0.0
  0
LINE
  5
10E
330
1F
100
AcDbEntity
  8
0
  6
Continuous
 62
     7
370
    15
100
AcDbLine
 10
-174.0271949374
 20
107.8260869565
 30
0.0
 11
-166.9704693939
 21
127.5866168478
 31
0.0
  0
LINE
  5
10F
330
1F
100
AcDbEntity
  8
0
  6
Continuous
 62
     7
370
    15
100
AcDbLine
 10
-160.516665046
 20
107.8260869565
 30
0.0
 11
-174.0271949374
 21
107.8260869565
 31
0.0
  0
LINE
  5
110
330
1F
100
AcDbEntity
  8
0
  6
Continuous
 62
     7
370
    15
100
AcDbLine
 10
-152.4324259156
 20
134.3291440217
 30
0.0
 11
-160.516665046
 21
107.8260869565
 31
0.0
  0
LINE
  5
111
330
1F
100
AcDbEntity
  8
0
  6
Continuous
 62
     7
370
    15
100
AcDbLine
 10
-110.7612302634
 20
107.8260869565
 30
0.0
 11
-123.5159856982
 21
107.8260869565
 31
0.0
  0
LINE
  5
112
330
1F
100
AcDbEntity
  8
0
  6
Continuous
 62
     7
370
    15
100
AcDbLine
 10
-110.7612302634
 20
148.0434782609
 30
0.0
 11
-110.7612302634
 21
107.8260869565
 31
0.0
  0
LINE
  5
113
330
1F
100
AcDbEntity
  8
0
  6
Continuous
 62
     7
370
    15
100
AcDbLine
 10
-123.5159856982
 20
148.0434782609
 30
0.0
 11
-110.7612302634
 21
148.0434782609
 31
0.0
  0
LINE
  5
114
330
1F
100
AcDbEntity
  8
0
  6
Continuous
 62
     7
370
    15
100
AcDbLine
 10
-123.5159856982
 20
107.8260869565
 30
0.0
 11
-123.5159856982
 21
148.0434782609
 31
0.0
  0
LINE
  5
115
330
1F
100
AcDbEntity
  8
0
  6
Continuous
 62
     7
370
    15
100
AcDbLine
 10
-68.5295726547
 20
107.8260869565
 30
0.0
 11
-68.5295726547
 21
123.7143342391
 31
0.0
  0
LINE
  5
116
330
1F
100
AcDbEntity
  8
0
  6
Continuous
 62
     7
370
    15
100
AcDbLine
 10
-55.7663253721
 20
107.8260869565
 30
0.0
 11
-68.5295726547
 21
107.8260869565
 31
0.0
  0
LINE
  5
117
330
1F
100
AcDbEntity
  8
0
  6
Continuous
 62
     7
370
    15
100
AcDbLine
 10
-55.7663253721
 20
126.2364130435
 30
0.0
 11
-55.7663253721
 21
107.8260869565
 31
0.0
  0
LINE
  5
118
330
1F
100
AcDbEntity
  8
0
  6
Continuous
 62
     7
370
    15
100
AcDbLine
 10
-40.1583090678
 20
148.0434782609
 30
0.0
 11
-55.7663253721
 21
126.2364130435
 31
0.0
  0
LINE
  5
119
330
1F
100
AcDbEntity
  8
0
  6
Continuous
 62
     7
370
    15
100
AcDbLine
 10
-53.9490699374
 20
148.0434782609
 30
0.0
 11
-40.1583090678
 21
148.0434782609
 31
0.0
  0
LINE
  5
11A
330
1F
100
AcDbEntity
  8
0
  6
Continuous
 62
     7
370
    15
100
AcDbLine
 10
-57.821352546
 20
141.6491168478
 30
0.0
 11
-53.9490699374
 21
148.0434782609
 31
0.0
  0
LINE
  5
11B
330
1F
100
AcDbEntity
  8
0
  6
Continuous
 62
     7
370
    15
100
AcDbLine
 10
-68.5295726547
 20
123.7143342391
 30
0.0
 11
-57.7788933069
 21
141.6491168478
 31
0.0
  0
LINE
  5
11C
330
1F
100
AcDbEntity
  8
0
  6
Continuous
 62
     7
370
    15
100
AcDbLine
 10
-266.2500000005
 20
22.1042301636
 30
0.0
 11
-266.2500000005
 21
14.1042301636
 31
0.0
  0
LINE
  5
11D
330
1F
100
AcDbEntity
  8
0
  6
Continuous
 62
     7
370
    15
100
AcDbLine
 10
-249.7500000005
 20
14.1042301636
 30
0.0
 11
-249.7500000005
 21
22.1042301636
 31
0.0
  0
LINE
  5
11E
330
1F
100
AcDbEntity
  8
0
  6
Continuous
 62
     7
370
    15
100
AcDbLine
 10
-66.2500000005
 20
22.1042301636
 30
0.0
 11
-66.2500000005
 21
14.1042301636
 31
0.0
  0
LINE
  5
11F
330
1F
100
AcDbEntity
  8
0
  6
Continuous
 62
     7
370
    15
100
AcDbLine
 10
-49.7500000005
 20
14.1042301636
 30
0.0
 11
-49.7500000005
 21
22.1042301636
 31
0.0
  0
LINE
  5
120
330
1F
100
AcDbEntity
  8
0
  6
Continuous
 62
     7
370
    15
100
AcDbLine
 10
-266.25
 20
222.1042301836
 30
0.0
 11
-266.25
 21
214.1042301836
 31
0.0
  0
LINE
  5
121
330
1F
100
AcDbEntity
  8
0
  6
Continuous
 62
     7
370
    15
100
AcDbLine
 10
-249.75
 20
214.1042301836
 30
0.0
 11
-249.75
 21
222.1042301836
 31
0.0
  0
LINE
  5
122
330
1F
100
AcDbEntity
  8
0
  6
Continuous
 62
     7
370
    15
100
AcDbLine
 10
-49.75
 20
214.1042301836
 30
0.0
 11
-49.75
 21
222.1042301836
 31
0.0
  0
LINE
  5
123
330
1F
100
AcDbEntity
  8
0
  6
Continuous
 62
     7
370
    15
100
AcDbLine
 10
-66.25
 20
222.1042301836
 30
0.0
 11
-66.25
 21
214.1042301836
 31
0.0
  0
LINE
  5
124
330
1F
100
AcDbEntity
  8
0
  6
Continuous
 62
     7
370
    15
100
AcDbLine
 10
-161.6768220371
 20
60.5088778399
 30
0.0
 11
-161.6768220371
 21
39.4820778399
 31
0.0
  0
LINE
  5
125
330
1F
100
AcDbEntity
  8
0
  6
Continuous
 62
     7
370
    15
100
AcDbLine
 10
-158.4402220371
 20
36.2454778399
 30
0.0
 11
-133.0984220371
 21
36.2454778399
 31
0.0
  0
LINE
  5
126
330
1F
100
AcDbEntity
  8
0
  6
Continuous
 62
     7
370
    15
100
AcDbLine
 10
-129.8618220371
 20
39.4820778399
 30
0.0
 11
-129.8618220371
 21
55.8109007324
 31
0.0
  0
LINE
  5
127
330
1F
100
AcDbEntity
  8
0
  6
Continuous
 62
     7
370
    15
100
AcDbLine
 10
-132.1118220371
 20
61.5318971492
 30
0.0
 11
-129.6118220371
 21
61.5318971492
 31
0.0
  0
LINE
  5
128
330
1F
100
AcDbEntity
  8
0
  6
Continuous
 62
     7
370
    15
100
AcDbLine
 10
-132.3618220371
 20
55.8109007324
 30
0.0
 11
-132.3618220371
 21
39.4820778399
 31
0.0
  0
LINE
  5
129
330
1F
100
AcDbEntity
  8
0
  6
Continuous
 62
     7
370
    15
100
AcDbLine
 10
-133.0984220371
 20
38.7454778399
 30
0.0
 11
-158.4402220371
 21
38.7454778399
 31
0.0
  0
LINE
  5
12A
330
1F
100
AcDbEntity
  8
0
  6
Continuous
 62
     7
370
    15
100
AcDbLine
 10
-159.1768220371
 20
39.4820778399
 30
0.0
 11
-159.1768220371
 21
60.5088778399
 31
0.0
  0
LINE
  5
12B
330
1F
100
AcDbEntity
  8
0
  6
Continuous
 62
     7
370
    15
100
AcDbLine
 10
-162.4134220371
 20
63.7454778399
 30
0.0
 11
-184.1768220371
 21
63.7454778399
 31
0.0
  0
LINE
  5
12C
330
1F
100
AcDbEntity
  8
0
  6
Continuous
 62
     7
370
    15
100
AcDbLine
 10
-184.1768220371
 20
63.7454778399
 30
0.0
 11
-184.1768220371
 21
61.2454778399
 31
0.0
  0
LINE
  5
12D
330
1F
100
AcDbEntity
  8
0
  6
Continuous
 62
     7
370
    15
100
AcDbLine
 10
-184.1768220371
 20
61.2454778399
 30
0.0
 11
-162.4134220371
 21
61.2454778399
 31
0.0
  0
LINE
  5
12E
330
1F
100
AcDbEntity
  8
0
  6
Continuous
 62
     7
370
    15
100
AcDbLine
 10
-139.6448687042
 20
23.4252158435
 30
0.0
 11
-139.6448687042
 21
25.4252158435
 31
0.0
  0
LINE
  5
12F
330
1F
100
AcDbEntity
  8
0
  6
Continuous
 62
     7
370
    15
100
AcDbLine
 10
-139.6448687042
 20
25.4252158435
 30
0.0
 11
-149.6448687042
 21
25.4252158435
 31
0.0
  0
LINE
  5
130
330
1F
100
AcDbEntity
  8
0
  6
Continuous
 62
     7
370
    15
100
AcDbLine
 10
-144.9685701043
 20
22.5615794798
 30
0.0
 11
-146.75001719
 21
21.6524885707
 31
0.0
  0
LINE
  5
131
330
1F
100
AcDbEntity
  8
0
  6
Continuous
 62
     7
370
    15
100
AcDbLine
 10
-149.6448687042
 20
23.4252158435
 30
0.0
 11
-139.6448687042
 21
23.4252158435
 31
0.0
  0
LINE
  5
132
330
1F
100
AcDbEntity
  8
0
  6
Continuous
 62
     7
370
    15
100
AcDbLine
 10
-57.7788933069
 20
141.6491168478
 30
0.0
 11
-57.821352546
 21
141.6491168478
 31
0.0
  0
ARC
  5
133
330
1F
100
AcDbEntity
  8
0
  6
Continuous
 62
     7
370
    15
100
AcDbCircle
 10
-10.0
 20
10.0
 30
0.0
 40
9.999999999999963
100
AcDbArc
 50
270.0
 51
0.0
  0
ARC
  5
134
330
1F
100
AcDbEntity
  8
0
  6
Continuous
 62
     7
370
    15
100
AcDbCircle
 10
-290.0
 20
10.0
 30
0.0
 40
10.00000000000008
100
AcDbArc
 50
180.0
 51
270.0
  0
ARC
  5
135
330
1F
100
AcDbEntity
  8
0
  6
Continuous
 62
     7
370
    15
100
AcDbCircle
 10
-290.0
 20
250.0
 30
0.0
 40
10.0
100
AcDbArc
 50
90.0
 51
180.0
  0
ARC
  5
136
330
1F
100
AcDbEntity
  8
0
  6
Continuous
 62
     7
370
    15
100
AcDbCircle
 10
-10.0
 20
250.0
 30
0.0
 40
10.00000000000002
100
AcDbArc
 50
0.0
 51
90.0
  0
ARC
  5
137
330
1F
100
AcDbEntity
  8
0
  6
Continuous
 62
     7
370
    15
100
AcDbCircle
 10
-258.0000000005
 20
34.63169998
 30
0.0
 40
14.99999999999999
100
AcDbArc
 50
303.3670129692
 51
236.6329870308
  0
ARC
  5
138
330
1F
100
AcDbEntity
  8
0
  6
Continuous
 62
     7
370
    15
100
AcDbCircle
 10
-258.0000000005
 20
14.1042301636
 30
0.0
 40
8.25
100
AcDbArc
 50
180.0
 51
0.0
  0
ARC
  5
139
330
1F
100
AcDbEntity
  8
0
  6
Continuous
 62
     7
370
    15
100
AcDbCircle
 10
-58.0000000005
 20
34.63169998
 30
0.0
 40
14.99999999999999
100
AcDbArc
 50
303.3670129692
 51
236.6329870308
  0
ARC
  5
13A
330
1F
100
AcDbEntity
  8
0
  6
Continuous
 62
     7
370
    15
100
AcDbCircle
 10
-58.0000000005
 20
14.1042301636
 30
0.0
 40
8.250000000000014
100
AcDbArc
 50
180.0
 51
0.0
  0
ARC
  5
13B
330
1F
100
AcDbEntity
  8
0
  6
Continuous
 62
     7
370
    15
100
AcDbCircle
 10
-258.0
 20
234.6317
 30
0.0
 40
15.00000000000002
100
AcDbArc
 50
303.3670129692
 51
236.6329870308
  0
ARC
  5
13C
330
1F
100
AcDbEntity
  8
0
  6
Continuous
 62
     7
370
    15
100
AcDbCircle
 10
-258.0
 20
214.1042301836
 30
0.0
 40
8.250000000000057
100
AcDbArc
 50
180.0
 51
0.0
  0
ARC
  5
13D
330
1F
100
AcDbEntity
  8
0
  6
Continuous
 62
     7
370
    15
100
AcDbCircle
 10
-58.0
 20
214.1042301836
 30
0.0
 40
8.250000000000007
100
AcDbArc
 50
180.0
 51
0.0
  0
ARC
  5
13E
330
1F
100
AcDbEntity
  8
0
  6
Continuous
 62
     7
370
    15
100
AcDbCircle
 10
-58.0
 20
234.6317
 30
0.0
 40
14.99999999999996
100
AcDbArc
 50
303.3670129692
 51
236.6329870308
  0
ARC
  5
13F
330
1F
100
AcDbEntity
  8
0
  6
Continuous
 62
     7
370
    15
100
AcDbCircle
 10
-162.4134220371
 20
60.5088778399
 30
0.0
 40
0.7366000000000668
100
AcDbArc
 50
0.0
 51
90.0
  0
ARC
  5
140
330
1F
100
AcDbEntity
  8
0
  6
Continuous
 62
     7
370
    15
100
AcDbCircle
 10
-158.4402220371
 20
39.4820778399
 30
0.0
 40
3.236599999999989
100
AcDbArc
 50
180.0
 51
270.0
  0
ARC
  5
141
330
1F
100
AcDbEntity
  8
0
  6
Continuous
 62
     7
370
    15
100
AcDbCircle
 10
-133.0984220371
 20
39.4820778399
 30
0.0
 40
3.236600000000067
100
AcDbArc
 50
270.0
 51
0.0
  0
ARC
  5
142
330
1F
100
AcDbEntity
  8
0
  6
Continuous
 62
     7
370
    15
100
AcDbCircle
 10
-133.0984220371
 20
55.8109007324
 30
0.0
 40
3.236600000000013
100
AcDbArc
 50
0.0
 51
107.131025775
  0
ARC
  5
143
330
1F
100
AcDbEntity
  8
0
  6
Continuous
 62
     7
370
    15
100
AcDbCircle
 10
-134.8618220371
 20
61.5318971492
 30
0.0
 40
2.749999999999975
100
AcDbArc
 50
0.0
 51
287.131025775
  0
ARC
  5
144
330
1F
100
AcDbEntity
  8
0
  6
Continuous
 62
     7
370
    15
100
AcDbCircle
 10
-134.8618220371
 20
61.5318971492
 30
0.0
 40
5.250000000000006
100
AcDbArc
 50
0.0
 51
287.131025775
  0
ARC
  5
145
330
1F
100
AcDbEntity
  8
0
  6
Continuous
 62
     7
370
    15
100
AcDbCircle
 10
-133.0984220371
 20
55.8109007324
 30
0.0
 40
0.7366000000000124
100
AcDbArc
 50
0.0
 51
107.131025775
  0
ARC
  5
146
330
1F
100
AcDbEntity
  8
0
  6
Continuous
 62
     7
370
    15
100
AcDbCircle
 10
-133.0984220371
 20
39.4820778399
 30
0.0
 40
0.7365999999999815
100
AcDbArc
 50
270.0
 51
0.0
  0
ARC
  5
147
330
1F
100
AcDbEntity
  8
0
  6
Continuous
 62
     7
370
    15
100
AcDbCircle
 10
-158.4402220371
 20
39.4820778399
 30
0.0
 40
0.7366000000000099
100
AcDbArc
 50
180.0
 51
270.0
  0
ARC
  5
148
330
1F
100
AcDbEntity
  8
0
  6
Continuous
 62
     7
370
    15
100
AcDbCircle
 10
-162.4134220371
 20
60.5088778399
 30
0.0
 40
3.236599999999981
100
AcDbArc
 50
0.0
 51
90.0
  0
ARC
  5
149
330
1F
100
AcDbEntity
  8
0
  6
Continuous
 62
     7
370
    15
100
AcDbCircle
 10
-149.6448687042
 20
20.1752158435
 30
0.0
 40
5.250000000000011
100
AcDbArc
 50
89.9999999999
 51
27.0356917894
  0
ARC
  5
14A
330
1F
100
AcDbEntity
  8
0
  6
Continuous
 62
     7
370
    15
100
AcDbCircle
 10
-149.6448687042
 20
20.1752158435
 30
0.0
 40
3.250000000000008
100
AcDbArc
 50
89.9999999999
 51
27.0356917894
  0
ENDSEC
  0
SECTION
  2
OBJECTS
  0
DICTIONARY
  5
C
330
0
100
AcDbDictionary
281
     1
  3
ACAD_GROUP
350
D
  3
ACAD_LAYOUT
350
1A
  3
ACAD_MLINESTYLE
350
17
  3
ACAD_PLOTSETTINGS
350
19
  3
ACAD_PLOTSTYLENAME
350
E
  3
ACAD_SCALELIST
350
47
  0
DICTIONARY
  5
D
102
{ACAD_REACTORS
330
C
102
}
330
C
100
AcDbDictionary
281
     1
  0
DICTIONARY
  5
1A
102
{ACAD_REACTORS
330
C
102
}
330
C
100
AcDbDictionary
281
     1
  3
Layout1
350
1E
  3
Layout2
350
26
  3
Model
350
22
  0
DICTIONARY
  5
17
102
{ACAD_REACTORS
330
C
102
}
330
C
100
AcDbDictionary
281
     1
  3
Standard
350
18
  0
DICTIONARY
  5
19
102
{ACAD_REACTORS
330
C
102
}
330
C
100
AcDbDictionary
281
     1
  0
ACDBDICTIONARYWDFLT
  5
E
102
{ACAD_REACTORS
330
C
102
}
330
C
100
AcDbDictionary
281
     1
  3
Normal
350
F
100
AcDbDictionaryWithDefault
340
F
  0
DICTIONARY
  5
47
102
{ACAD_REACTORS
330
C
102
}
330
C
100
AcDbDictionary
281
     1
  3
A0
350
48
  3
A1
350
49
  3
A2
350
4A
  3
A3
350
4B
  3
A4
350
4C
  3
A5
350
4D
  3
A6
350
4E
  3
A7
350
4F
  3
A8
350
50
  3
A9
350
51
  3
B0
350
52
  3
B1
350
53
  3
B2
350
54
  3
B3
350
55
  3
B4
350
56
  3
B5
350
57
  3
B6
350
58
  3
B7
350
59
  3
B8
350
5A
  3
B9
350
5B
  3
C0
350
5C
  3
C1
350
5D
  3
C2
350
5E
  3
C3
350
5F
  3
C4
350
60
  3
C5
350
61
  3
C6
350
62
  3
C7
350
63
  3
C8
350
64
  3
C9
350
65
  3
D0
350
66
  3
D1
350
67
  3
D2
350
68
  0
LAYOUT
  5
1E
102
{ACAD_REACTORS
330
1A
102
}
330
1A
100
AcDbPlotSettings
  1

  2
none_device
  4

  6

 40
0.0
 41
0.0
 42
0.0
 43
0.0
 44
0.0
 45
0.0
 46
0.0
 47
0.0
 48
0.0
 49
0.0
140
0.0
141
0.0
142
1.0
143
1.0
 70
   688
 72
     1
 73
     0
 74
     5
  7

 75
    16
147
1.0
148
0.0
149
0.0
100
AcDbLayout
  1
Layout1
 70
     1
 71
     1
 10
0.0
 20
0.0
 11
420.0
 21
297.0
 12
0.0
 22
0.0
 32
0.0
 14
1.0000000000E+20
 24
1.0000000000E+20
 34
1.0000000000E+20
 15
-1.0000000000E+20
 25
-1.0000000000E+20
 35
-1.0000000000E+20
146
0.0
 13
0.0
 23
0.0
 33
0.0
 16
1.0
 26
0.0
 36
0.0
 17
0.0
 27
1.0
 37
0.0
 76
     0
330
1B
  0
LAYOUT
  5
26
102
{ACAD_REACTORS
330
1A
102
}
330
1A
100
AcDbPlotSettings
  1

  2
none_device
  4

  6

 40
0.0
 41
0.0
 42
0.0
 43
0.0
 44
0.0
 45
0.0
 46
0.0
 47
0.0
 48
0.0
 49
0.0
140
0.0
141
0.0
142
1.0
143
1.0
 70
   688
 72
     1
 73
     0
 74
     5
  7

 75
    16
147
1.0
148
0.0
149
0.0
100
AcDbLayout
  1
Layout2
 70
     1
 71
     2
 10
0.0
 20
0.0
 11
0.0
 21
0.0
 12
0.0
 22
0.0
 32
0.0
 14
0.0
 24
0.0
 34
0.0
 15
0.0
 25
0.0
 35
0.0
146
0.0
 13
0.0
 23
0.0
 33
0.0
 16
1.0
 26
0.0
 36
0.0
 17
0.0
 27
1.0
 37
0.0
 76
     0
330
23
  0
LAYOUT
  5
22
102
{ACAD_REACTORS
330
1A
102
}
330
1A
100
AcDbPlotSettings
  1

  2
none_device
  4
ANSI_A_(11.00_x_8.50_Inches)
  6

 40
6.35
 41
19.05
 42
6.35000508
 43
19.05000254
 44
279.4
 45
215.9
 46
256.6621128446
 47
-17.97050127
 48
0.0
 49
0.0
140
0.0
141
0.0
142
0.0323653846
143
1.0
 70
  1696
 72
     0
 73
     0
 74
     0
  7

 75
     0
147
0.0179189148
148
-1300.4909072572
149
0.0
100
AcDbLayout
  1
Model
 70
     1
 71
     0
 10
0.0
 20
0.0
 11
420.0
 21
297.0
 12
0.0
 22
0.0
 32
0.0
 14
-300.0
 24
0.0
 34
0.0
 15
0.0
 25
260.0
 35
0.0
146
0.0
 13
0.0
 23
0.0
 33
0.0
 16
1.0
 26
0.0
 36
0.0
 17
0.0
 27
1.0
 37
0.0
 76
     0
330
1F
331
29
  0
MLINESTYLE
  5
18
102
{ACAD_REACTORS
330
17
102
}
330
17
100
AcDbMlineStyle
  2
Standard
 70
     0
  3

 62
   256
 51
90.0
 52
90.0
 71
     2
 49
0.5
 62
   256
  6
BYLAYER
 49
-0.5
 62
   256
  6
BYLAYER
  0
ACDBPLACEHOLDER
  5
F
102
{ACAD_REACTORS
330
E
102
}
330
E
  0
SCALE
  5
48
102
{ACAD_REACTORS
330
47
102
}
330
47
100
AcDbScale
 70
     0
300
1:1
140
1.0
141
1.0
290
     1
  0
SCALE
  5
49
102
{ACAD_REACTORS
330
47
102
}
330
47
100
AcDbScale
 70
     0
300
1:2
140
1.0
141
2.0
290
     0
  0
SCALE
  5
4A
102
{ACAD_REACTORS
330
47
102
}
330
47
100
AcDbScale
 70
     0
300
1:4
140
1.0
141
4.0
290
     0
  0
SCALE
  5
4B
102
{ACAD_REACTORS
330
47
102
}
330
47
100
AcDbScale
 70
     0
300
1:5
140
1.0
141
5.0
290
     0
  0
SCALE
  5
4C
102
{ACAD_REACTORS
330
47
102
}
330
47
100
AcDbScale
 70
     0
300
1:8
140
1.0
141
8.0
290
     0
  0
SCALE
  5
4D
102
{ACAD_REACTORS
330
47
102
}
330
47
100
AcDbScale
 70
     0
300
1:10
140
1.0
141
10.0
290
     0
  0
SCALE
  5
4E
102
{ACAD_REACTORS
330
47
102
}
330
47
100
AcDbScale
 70
     0
300
1:16
140
1.0
141
16.0
290
     0
  0
SCALE
  5
4F
102
{ACAD_REACTORS
330
47
102
}
330
47
100
AcDbScale
 70
     0
300
1:20
140
1.0
141
20.0
290
     0
  0
SCALE
  5
50
102
{ACAD_REACTORS
330
47
102
}
330
47
100
AcDbScale
 70
     0
300
1:30
140
1.0
141
30.0
290
     0
  0
SCALE
  5
51
102
{ACAD_REACTORS
330
47
102
}
330
47
100
AcDbScale
 70
     0
300
1:40
140
1.0
141
40.0
290
     0
  0
SCALE
  5
52
102
{ACAD_REACTORS
330
47
102
}
330
47
100
AcDbScale
 70
     0
300
1:50
140
1.0
141
50.0
290
     0
  0
SCALE
  5
53
102
{ACAD_REACTORS
330
47
102
}
330
47
100
AcDbScale
 70
     0
300
1:100
140
1.0
141
100.0
290
     0
  0
SCALE
  5
54
102
{ACAD_REACTORS
330
47
102
}
330
47
100
AcDbScale
 70
     0
300
2:1
140
2.0
141
1.0
290
     0
  0
SCALE
  5
55
102
{ACAD_REACTORS
330
47
102
}
330
47
100
AcDbScale
 70
     0
300
4:1
140
4.0
141
1.0
290
     0
  0
SCALE
  5
56
102
{ACAD_REACTORS
330
47
102
}
330
47
100
AcDbScale
 70
     0
300
8:1
140
8.0
141
1.0
290
     0
  0
SCALE
  5
57
102
{ACAD_REACTORS
330
47
102
}
330
47
100
AcDbScale
 70
     0
300
10:1
140
10.0
141
1.0
290
     0
  0
SCALE
  5
58
102
{ACAD_REACTORS
330
47
102
}
330
47
100
AcDbScale
 70
     0
300
100:1
140
100.0
141
1.0
290
     0
  0
SCALE
  5
59
102
{ACAD_REACTORS
330
47
102
}
330
47
100
AcDbScale
 70
     0
300
1/128" = 1'-0"
140
0.0078125
141
12.0
290
     0
  0
SCALE
  5
5A
102
{ACAD_REACTORS
330
47
102
}
330
47
100
AcDbScale
 70
     0
300
1/64" = 1'-0"
140
0.015625
141
12.0
290
     0
  0
SCALE
  5
5B
102
{ACAD_REACTORS
330
47
102
}
330
47
100
AcDbScale
 70
     0
300
1/32" = 1'-0"
140
0.03125
141
12.0
290
     0
  0
SCALE
  5
5C
102
{ACAD_REACTORS
330
47
102
}
330
47
100
AcDbScale
 70
     0
300
1/16" = 1'-0"
140
0.0625
141
12.0
290
     0
  0
SCALE
  5
5D
102
{ACAD_REACTORS
330
47
102
}
330
47
100
AcDbScale
 70
     0
300
3/32" = 1'-0"
140
0.09375
141
12.0
290
     0
  0
SCALE
  5
5E
102
{ACAD_REACTORS
330
47
102
}
330
47
100
AcDbScale
 70
     0
300
1/8" = 1'-0"
140
0.125
141
12.0
290
     0
  0
SCALE
  5
5F
102
{ACAD_REACTORS
330
47
102
}
330
47
100
AcDbScale
 70
     0
300
3/16" = 1'-0"
140
0.1875
141
12.0
290
     0
  0
SCALE
  5
60
102
{ACAD_REACTORS
330
47
102
}
330
47
100
AcDbScale
 70
     0
300
1/4" = 1'-0"
140
0.25
141
12.0
290
     0
  0
SCALE
  5
61
102
{ACAD_REACTORS
330
47
102
}
330
47
100
AcDbScale
 70
     0
300
3/8" = 1'-0"
140
0.375
141
12.0
290
     0
  0
SCALE
  5
62
102
{ACAD_REACTORS
330
47
102
}
330
47
100
AcDbScale
 70
     0
300
1/2" = 1'-0"
140
0.5
141
12.0
290
     0
  0
SCALE
  5
63
102
{ACAD_REACTORS
330
47
102
}
330
47
100
AcDbScale
 70
     0
300
3/4" = 1'-0"
140
0.75
141
12.0
290
     0
  0
SCALE
  5
64
102
{ACAD_REACTORS
330
47
102
}
330
47
100
AcDbScale
 70
     0
300
1" = 1'-0"
140
1.0
141
12.0
290
     0
  0
SCALE
  5
65
102
{ACAD_REACTORS
330
47
102
}
330
47
100
AcDbScale
 70
     0
300
1-1/2" = 1'-0"
140
1.5
141
12.0
290
     0
  0
SCALE
  5
66
102
{ACAD_REACTORS
330
47
102
}
330
47
100
AcDbScale
 70
     0
300
3" = 1'-0"
140
3.0
141
12.0
290
     0
  0
SCALE
  5
67
102
{ACAD_REACTORS
330
47
102
}
330
47
100
AcDbScale
 70
     0
300
6" = 1'-0"
140
6.0
141
12.0
290
     0
  0
SCALE
  5
68
102
{ACAD_REACTORS
330
47
102
}
330
47
100
AcDbScale
 70
     0
300
1'-0" = 1'-0"
140
12.0
141
12.0
290
     0
  0
ENDSEC
  0
EOF
